%TF.GenerationSoftware,KiCad,Pcbnew,10.0.6*%
%TF.CreationDate,2026-09-21T01:43:10+02:00*%
%TF.ProjectId,Phil's_Lab#11,5068696c-2773-45f4-9c61-622331312e6b,rev?*%
%TF.SameCoordinates,Original*%
%TF.FileFunction,Copper,L2,Inr*%
%TF.FilePolarity,Positive*%
%FSLAX46Y46*%
G04 Gerber Fmt 4.6, Leading zero omitted, Abs format (unit mm)*
G04 Created by KiCad (PCBNEW 10.0.6) date 2026-09-21 01:43:10*
%MOMM*%
%LPD*%
G01*
G04 APERTURE LIST*
G04 Aperture macros list*
%AMRoundRect*
0 Rectangle with rounded corners*
0 $1 Rounding radius*
0 $2 $3 $4 $5 $6 $7 $8 $9 X,Y pos of 4 corners*
0 Add a 4 corners polygon primitive as box body*
4,1,4,$2,$3,$4,$5,$6,$7,$8,$9,$2,$3,0*
0 Add four circle primitives for the rounded corners*
1,1,$1+$1,$2,$3*
1,1,$1+$1,$4,$5*
1,1,$1+$1,$6,$7*
1,1,$1+$1,$8,$9*
0 Add four rect primitives between the rounded corners*
20,1,$1+$1,$2,$3,$4,$5,0*
20,1,$1+$1,$4,$5,$6,$7,0*
20,1,$1+$1,$6,$7,$8,$9,0*
20,1,$1+$1,$8,$9,$2,$3,0*%
G04 Aperture macros list end*
%TA.AperFunction,ComponentPad*%
%ADD10C,0.900000*%
%TD*%
%TA.AperFunction,ComponentPad*%
%ADD11C,8.600000*%
%TD*%
%TA.AperFunction,ComponentPad*%
%ADD12RoundRect,0.200000X0.200000X0.450000X-0.200000X0.450000X-0.200000X-0.450000X0.200000X-0.450000X0*%
%TD*%
%TA.AperFunction,ComponentPad*%
%ADD13O,0.800000X1.300000*%
%TD*%
%TA.AperFunction,ComponentPad*%
%ADD14RoundRect,0.200000X-0.200000X-0.450000X0.200000X-0.450000X0.200000X0.450000X-0.200000X0.450000X0*%
%TD*%
%TA.AperFunction,ComponentPad*%
%ADD15RoundRect,0.250001X0.949999X-0.949999X0.949999X0.949999X-0.949999X0.949999X-0.949999X-0.949999X0*%
%TD*%
%TA.AperFunction,ComponentPad*%
%ADD16C,2.400000*%
%TD*%
%TA.AperFunction,ComponentPad*%
%ADD17O,1.600000X0.900000*%
%TD*%
%TA.AperFunction,ComponentPad*%
%ADD18R,1.500000X1.500000*%
%TD*%
%TA.AperFunction,ComponentPad*%
%ADD19C,1.600000*%
%TD*%
%TA.AperFunction,ViaPad*%
%ADD20C,0.600000*%
%TD*%
G04 APERTURE END LIST*
D10*
%TO.N,GND*%
%TO.C,H3*%
X104550000Y-112000000D03*
X105494581Y-109719581D03*
X105494581Y-114280419D03*
X107775000Y-108775000D03*
D11*
X107775000Y-112000000D03*
D10*
X107775000Y-115225000D03*
X110055419Y-109719581D03*
X110055419Y-114280419D03*
X111000000Y-112000000D03*
%TD*%
D12*
%TO.N,+3.3V*%
%TO.C,J3*%
X122025000Y-65550000D03*
D13*
%TO.N,I2C1_SCL*%
X120775000Y-65550000D03*
%TO.N,I2C1_SDA*%
X119525000Y-65550000D03*
%TO.N,GND*%
X118275000Y-65550000D03*
%TD*%
D14*
%TO.N,+3.3V*%
%TO.C,J4*%
X118250000Y-112500000D03*
D13*
%TO.N,USART3_TX*%
X119500000Y-112500000D03*
%TO.N,USART3_RX*%
X120750000Y-112500000D03*
%TO.N,GND*%
X122000000Y-112500000D03*
%TD*%
D10*
%TO.N,GND*%
%TO.C,H4*%
X104575000Y-66000000D03*
X105519581Y-63719581D03*
X105519581Y-68280419D03*
X107800000Y-62775000D03*
D11*
X107800000Y-66000000D03*
D10*
X107800000Y-69225000D03*
X110080419Y-63719581D03*
X110080419Y-68280419D03*
X111025000Y-66000000D03*
%TD*%
%TO.N,GND*%
%TO.C,H2*%
X161375000Y-112000000D03*
X162319581Y-109719581D03*
X162319581Y-114280419D03*
X164600000Y-108775000D03*
D11*
X164600000Y-112000000D03*
D10*
X164600000Y-115225000D03*
X166880419Y-109719581D03*
X166880419Y-114280419D03*
X167825000Y-112000000D03*
%TD*%
D15*
%TO.N,+12V*%
%TO.C,J1*%
X163700000Y-97375000D03*
D16*
%TO.N,GND*%
X163700000Y-93875000D03*
%TD*%
D10*
%TO.N,GND*%
%TO.C,H1*%
X161375000Y-66000000D03*
X162319581Y-63719581D03*
X162319581Y-68280419D03*
X164600000Y-62775000D03*
D11*
X164600000Y-66000000D03*
D10*
X164600000Y-69225000D03*
X166880419Y-63719581D03*
X166880419Y-68280419D03*
X167825000Y-66000000D03*
%TD*%
D17*
%TO.N,N/C*%
%TO.C,J5*%
X168700000Y-83400000D03*
X168700000Y-76800000D03*
%TD*%
D18*
%TO.N,+3.3V*%
%TO.C,SW1*%
X104500000Y-79710000D03*
D19*
%TO.N,Net-(SW1-B)*%
X104500000Y-77170000D03*
%TO.N,GND*%
X104500000Y-82250000D03*
%TD*%
D20*
%TO.N,GND*%
X134150000Y-94320000D03*
X157610000Y-90910000D03*
X118040000Y-83100000D03*
X127490000Y-97300000D03*
X160620000Y-78330000D03*
X112970000Y-86490000D03*
X141830000Y-112630000D03*
X127620000Y-84910000D03*
X157600000Y-92980000D03*
X128800000Y-85170000D03*
X158030000Y-100120000D03*
X157250000Y-99420000D03*
X147240000Y-94000000D03*
X164220000Y-78010000D03*
X129740000Y-69620000D03*
X154570000Y-96230000D03*
X163410000Y-78800000D03*
X112830000Y-83710000D03*
X147240000Y-96400000D03*
X164220000Y-78800000D03*
X112470000Y-92150000D03*
X106070000Y-90600000D03*
X107450000Y-93310000D03*
X112400000Y-97130000D03*
X156130000Y-96230000D03*
X113560000Y-92140000D03*
X108410000Y-85690000D03*
X150180000Y-99190000D03*
X140070000Y-112620000D03*
X163410000Y-78010000D03*
X132280000Y-69630000D03*
X117000000Y-98690000D03*
X141830000Y-115310000D03*
X124900000Y-101230000D03*
X133560000Y-69630000D03*
X134150000Y-92780000D03*
X110540000Y-88400000D03*
X150180000Y-101110000D03*
X140080000Y-115310000D03*
X147500000Y-73090000D03*
%TO.N,+3.3V*%
X134950000Y-107570000D03*
X110550000Y-94680000D03*
X115130000Y-82930000D03*
X112960000Y-87450000D03*
X134950000Y-109620000D03*
X117825000Y-80275000D03*
X141050000Y-109630000D03*
X153300000Y-102480000D03*
X125950000Y-97910000D03*
X141050000Y-107580000D03*
X119120000Y-98690000D03*
X122375000Y-80260000D03*
X152520000Y-101780000D03*
X137120000Y-115300000D03*
X149500000Y-71970000D03*
X138880000Y-112630000D03*
X127740000Y-86310000D03*
X137120000Y-112630000D03*
X134950000Y-108600000D03*
X109310000Y-94680000D03*
X134820000Y-69610000D03*
X141050000Y-108610000D03*
X138880000Y-115300000D03*
%TO.N,NRST*%
X123575000Y-84055000D03*
X120635000Y-86995000D03*
%TD*%
%TA.AperFunction,Conductor*%
%TO.N,GND*%
G36*
X164602562Y-60900605D02*
G01*
X165016004Y-60917705D01*
X165026177Y-60918548D01*
X165434264Y-60969417D01*
X165444372Y-60971104D01*
X165846831Y-61055490D01*
X165856767Y-61058006D01*
X166250906Y-61175346D01*
X166260574Y-61178665D01*
X166537793Y-61286837D01*
X166643671Y-61328151D01*
X166653056Y-61332268D01*
X167022475Y-61512866D01*
X167031489Y-61517743D01*
X167384765Y-61728250D01*
X167393344Y-61733856D01*
X167728008Y-61972800D01*
X167736085Y-61979087D01*
X168049883Y-62244861D01*
X168057423Y-62251802D01*
X168348197Y-62542576D01*
X168355138Y-62550116D01*
X168620908Y-62863909D01*
X168627203Y-62871997D01*
X168866143Y-63206655D01*
X168871749Y-63215234D01*
X169082256Y-63568510D01*
X169087133Y-63577524D01*
X169267731Y-63946943D01*
X169271848Y-63956328D01*
X169421329Y-64339413D01*
X169424657Y-64349106D01*
X169541993Y-64743232D01*
X169544509Y-64753168D01*
X169628895Y-65155627D01*
X169630582Y-65165735D01*
X169681449Y-65573801D01*
X169682295Y-65584015D01*
X169699394Y-65997437D01*
X169699500Y-66002561D01*
X169699500Y-75858836D01*
X169679815Y-75925875D01*
X169627011Y-75971630D01*
X169557853Y-75981574D01*
X169506615Y-75961942D01*
X169500240Y-75957683D01*
X169500228Y-75957676D01*
X169327251Y-75886027D01*
X169327243Y-75886025D01*
X169143620Y-75849500D01*
X169143616Y-75849500D01*
X168256384Y-75849500D01*
X168256379Y-75849500D01*
X168072756Y-75886025D01*
X168072748Y-75886027D01*
X167899771Y-75957676D01*
X167899762Y-75957681D01*
X167744092Y-76061697D01*
X167744088Y-76061700D01*
X167611700Y-76194088D01*
X167611697Y-76194092D01*
X167507681Y-76349762D01*
X167507676Y-76349771D01*
X167436027Y-76522748D01*
X167436025Y-76522756D01*
X167399500Y-76706379D01*
X167399500Y-76893620D01*
X167436025Y-77077243D01*
X167436027Y-77077251D01*
X167507676Y-77250228D01*
X167507681Y-77250237D01*
X167611697Y-77405907D01*
X167611700Y-77405911D01*
X167744088Y-77538299D01*
X167744092Y-77538302D01*
X167899762Y-77642318D01*
X167899768Y-77642321D01*
X167899769Y-77642322D01*
X168072749Y-77713973D01*
X168256379Y-77750499D01*
X168256383Y-77750500D01*
X168256384Y-77750500D01*
X169143617Y-77750500D01*
X169143618Y-77750499D01*
X169327251Y-77713973D01*
X169500231Y-77642322D01*
X169500237Y-77642318D01*
X169506609Y-77638061D01*
X169573286Y-77617183D01*
X169640667Y-77635667D01*
X169687357Y-77687646D01*
X169699500Y-77741163D01*
X169699500Y-82458836D01*
X169679815Y-82525875D01*
X169627011Y-82571630D01*
X169557853Y-82581574D01*
X169506615Y-82561942D01*
X169500240Y-82557683D01*
X169500228Y-82557676D01*
X169327251Y-82486027D01*
X169327243Y-82486025D01*
X169143620Y-82449500D01*
X169143616Y-82449500D01*
X168256384Y-82449500D01*
X168256379Y-82449500D01*
X168072756Y-82486025D01*
X168072748Y-82486027D01*
X167899771Y-82557676D01*
X167899762Y-82557681D01*
X167744092Y-82661697D01*
X167744088Y-82661700D01*
X167611700Y-82794088D01*
X167611697Y-82794092D01*
X167507681Y-82949762D01*
X167507676Y-82949771D01*
X167436027Y-83122748D01*
X167436025Y-83122756D01*
X167399500Y-83306379D01*
X167399500Y-83493620D01*
X167436025Y-83677243D01*
X167436027Y-83677251D01*
X167507676Y-83850228D01*
X167507681Y-83850237D01*
X167611697Y-84005907D01*
X167611700Y-84005911D01*
X167744088Y-84138299D01*
X167744092Y-84138302D01*
X167899762Y-84242318D01*
X167899768Y-84242321D01*
X167899769Y-84242322D01*
X168072749Y-84313973D01*
X168256379Y-84350499D01*
X168256383Y-84350500D01*
X168256384Y-84350500D01*
X169143617Y-84350500D01*
X169143618Y-84350499D01*
X169327251Y-84313973D01*
X169500231Y-84242322D01*
X169500237Y-84242318D01*
X169506609Y-84238061D01*
X169573286Y-84217183D01*
X169640667Y-84235667D01*
X169687357Y-84287646D01*
X169699500Y-84341163D01*
X169699500Y-111997438D01*
X169699394Y-112002562D01*
X169682295Y-112415984D01*
X169681449Y-112426198D01*
X169630582Y-112834264D01*
X169628895Y-112844372D01*
X169544509Y-113246831D01*
X169541993Y-113256767D01*
X169424657Y-113650893D01*
X169421329Y-113660586D01*
X169271848Y-114043671D01*
X169267731Y-114053056D01*
X169087133Y-114422475D01*
X169082256Y-114431489D01*
X168871749Y-114784765D01*
X168866143Y-114793344D01*
X168627203Y-115128002D01*
X168620908Y-115136090D01*
X168355138Y-115449883D01*
X168348197Y-115457423D01*
X168057423Y-115748197D01*
X168049883Y-115755138D01*
X167736090Y-116020908D01*
X167728002Y-116027203D01*
X167393344Y-116266143D01*
X167384765Y-116271749D01*
X167031489Y-116482256D01*
X167022475Y-116487133D01*
X166653056Y-116667731D01*
X166643671Y-116671848D01*
X166260586Y-116821329D01*
X166250893Y-116824657D01*
X165856767Y-116941993D01*
X165846831Y-116944509D01*
X165444372Y-117028895D01*
X165434264Y-117030582D01*
X165026198Y-117081449D01*
X165015984Y-117082295D01*
X164602563Y-117099394D01*
X164597439Y-117099500D01*
X107802561Y-117099500D01*
X107797437Y-117099394D01*
X107384015Y-117082295D01*
X107373801Y-117081449D01*
X106965735Y-117030582D01*
X106955627Y-117028895D01*
X106553168Y-116944509D01*
X106543232Y-116941993D01*
X106149106Y-116824657D01*
X106139413Y-116821329D01*
X105756328Y-116671848D01*
X105746943Y-116667731D01*
X105377524Y-116487133D01*
X105368510Y-116482256D01*
X105015234Y-116271749D01*
X105006655Y-116266143D01*
X104671997Y-116027203D01*
X104663909Y-116020908D01*
X104650314Y-116009394D01*
X104350116Y-115755138D01*
X104342576Y-115748197D01*
X104051802Y-115457423D01*
X104044861Y-115449883D01*
X103913857Y-115295207D01*
X103851136Y-115221153D01*
X136319500Y-115221153D01*
X136319500Y-115378846D01*
X136350261Y-115533489D01*
X136350264Y-115533501D01*
X136410602Y-115679172D01*
X136410609Y-115679185D01*
X136498210Y-115810288D01*
X136498213Y-115810292D01*
X136609707Y-115921786D01*
X136609711Y-115921789D01*
X136740814Y-116009390D01*
X136740827Y-116009397D01*
X136886498Y-116069735D01*
X136886503Y-116069737D01*
X137041153Y-116100499D01*
X137041156Y-116100500D01*
X137041158Y-116100500D01*
X137198844Y-116100500D01*
X137198845Y-116100499D01*
X137353497Y-116069737D01*
X137499179Y-116009394D01*
X137630289Y-115921789D01*
X137741789Y-115810289D01*
X137829394Y-115679179D01*
X137885439Y-115543874D01*
X137929280Y-115489470D01*
X137995574Y-115467405D01*
X138063273Y-115484684D01*
X138110884Y-115535821D01*
X138114561Y-115543874D01*
X138170602Y-115679172D01*
X138170609Y-115679185D01*
X138258210Y-115810288D01*
X138258213Y-115810292D01*
X138369707Y-115921786D01*
X138369711Y-115921789D01*
X138500814Y-116009390D01*
X138500827Y-116009397D01*
X138646498Y-116069735D01*
X138646503Y-116069737D01*
X138801153Y-116100499D01*
X138801156Y-116100500D01*
X138801158Y-116100500D01*
X138958844Y-116100500D01*
X138958845Y-116100499D01*
X139113497Y-116069737D01*
X139259179Y-116009394D01*
X139390289Y-115921789D01*
X139501789Y-115810289D01*
X139589394Y-115679179D01*
X139649737Y-115533497D01*
X139680500Y-115378842D01*
X139680500Y-115221158D01*
X139680500Y-115221155D01*
X139680499Y-115221153D01*
X139662883Y-115132594D01*
X139649737Y-115066503D01*
X139615205Y-114983134D01*
X139589397Y-114920827D01*
X139589390Y-114920814D01*
X139501789Y-114789711D01*
X139501786Y-114789707D01*
X139390292Y-114678213D01*
X139390288Y-114678210D01*
X139259185Y-114590609D01*
X139259172Y-114590602D01*
X139113501Y-114530264D01*
X139113489Y-114530261D01*
X138958845Y-114499500D01*
X138958842Y-114499500D01*
X138801158Y-114499500D01*
X138801155Y-114499500D01*
X138646510Y-114530261D01*
X138646498Y-114530264D01*
X138500827Y-114590602D01*
X138500814Y-114590609D01*
X138369711Y-114678210D01*
X138369707Y-114678213D01*
X138258213Y-114789707D01*
X138258210Y-114789711D01*
X138170609Y-114920814D01*
X138170602Y-114920827D01*
X138114561Y-115056125D01*
X138070720Y-115110529D01*
X138004426Y-115132594D01*
X137936727Y-115115315D01*
X137889116Y-115064178D01*
X137885439Y-115056125D01*
X137829397Y-114920827D01*
X137829390Y-114920814D01*
X137741789Y-114789711D01*
X137741786Y-114789707D01*
X137630292Y-114678213D01*
X137630288Y-114678210D01*
X137499185Y-114590609D01*
X137499172Y-114590602D01*
X137353501Y-114530264D01*
X137353489Y-114530261D01*
X137198845Y-114499500D01*
X137198842Y-114499500D01*
X137041158Y-114499500D01*
X137041155Y-114499500D01*
X136886510Y-114530261D01*
X136886498Y-114530264D01*
X136740827Y-114590602D01*
X136740814Y-114590609D01*
X136609711Y-114678210D01*
X136609707Y-114678213D01*
X136498213Y-114789707D01*
X136498210Y-114789711D01*
X136410609Y-114920814D01*
X136410602Y-114920827D01*
X136350264Y-115066498D01*
X136350261Y-115066510D01*
X136319500Y-115221153D01*
X103851136Y-115221153D01*
X103779091Y-115136090D01*
X103772796Y-115128002D01*
X103728883Y-115066498D01*
X103533856Y-114793344D01*
X103528250Y-114784765D01*
X103317743Y-114431489D01*
X103312866Y-114422475D01*
X103132268Y-114053056D01*
X103128151Y-114043671D01*
X103086837Y-113937793D01*
X102978665Y-113660574D01*
X102975346Y-113650906D01*
X102858006Y-113256767D01*
X102855490Y-113246831D01*
X102771104Y-112844372D01*
X102769417Y-112834264D01*
X102753783Y-112708842D01*
X102718548Y-112426177D01*
X102717705Y-112416004D01*
X102700606Y-112002562D01*
X102700500Y-111997438D01*
X102700500Y-111993384D01*
X117349500Y-111993384D01*
X117349500Y-113006616D01*
X117350036Y-113012512D01*
X117355913Y-113077192D01*
X117355913Y-113077194D01*
X117355914Y-113077196D01*
X117391397Y-113191067D01*
X117406522Y-113239606D01*
X117494530Y-113385188D01*
X117614811Y-113505469D01*
X117614813Y-113505470D01*
X117614815Y-113505472D01*
X117760394Y-113593478D01*
X117922804Y-113644086D01*
X117993384Y-113650500D01*
X117993387Y-113650500D01*
X118506613Y-113650500D01*
X118506616Y-113650500D01*
X118577196Y-113644086D01*
X118739606Y-113593478D01*
X118883125Y-113506717D01*
X118950676Y-113488882D01*
X119016162Y-113509733D01*
X119073450Y-113548011D01*
X119073457Y-113548015D01*
X119182707Y-113593267D01*
X119237334Y-113615894D01*
X119237336Y-113615894D01*
X119237341Y-113615896D01*
X119411304Y-113650499D01*
X119411307Y-113650500D01*
X119411309Y-113650500D01*
X119588693Y-113650500D01*
X119588694Y-113650499D01*
X119646682Y-113638964D01*
X119762658Y-113615896D01*
X119762661Y-113615894D01*
X119762666Y-113615894D01*
X119926547Y-113548013D01*
X120056109Y-113461442D01*
X120122786Y-113440564D01*
X120190166Y-113459048D01*
X120193891Y-113461442D01*
X120323446Y-113548008D01*
X120323453Y-113548013D01*
X120323455Y-113548014D01*
X120323459Y-113548016D01*
X120433214Y-113593477D01*
X120487334Y-113615894D01*
X120487336Y-113615894D01*
X120487341Y-113615896D01*
X120661304Y-113650499D01*
X120661307Y-113650500D01*
X120661309Y-113650500D01*
X120838693Y-113650500D01*
X120838694Y-113650499D01*
X120896682Y-113638964D01*
X121012658Y-113615896D01*
X121012661Y-113615894D01*
X121012666Y-113615894D01*
X121176547Y-113548013D01*
X121176552Y-113548009D01*
X121176555Y-113548008D01*
X121265042Y-113488882D01*
X121306558Y-113461141D01*
X121373234Y-113440263D01*
X121440615Y-113458747D01*
X121444340Y-113461141D01*
X121573683Y-113547566D01*
X121573693Y-113547571D01*
X121737476Y-113615412D01*
X121737483Y-113615415D01*
X121750000Y-113617904D01*
X121750000Y-113617903D01*
X122250000Y-113617903D01*
X122262516Y-113615415D01*
X122262523Y-113615412D01*
X122426306Y-113547571D01*
X122426316Y-113547566D01*
X122573716Y-113449076D01*
X122573720Y-113449073D01*
X122699073Y-113323720D01*
X122699076Y-113323716D01*
X122797566Y-113176316D01*
X122797571Y-113176307D01*
X122865413Y-113012520D01*
X122865415Y-113012512D01*
X122899999Y-112838646D01*
X122900000Y-112838643D01*
X122900000Y-112750000D01*
X122250000Y-112750000D01*
X122250000Y-113617903D01*
X121750000Y-113617903D01*
X121750000Y-112549728D01*
X121788060Y-112641614D01*
X121858386Y-112711940D01*
X121950272Y-112750000D01*
X122049728Y-112750000D01*
X122141614Y-112711940D01*
X122211940Y-112641614D01*
X122249410Y-112551153D01*
X136319500Y-112551153D01*
X136319500Y-112708846D01*
X136350261Y-112863489D01*
X136350264Y-112863501D01*
X136410602Y-113009172D01*
X136410609Y-113009185D01*
X136498210Y-113140288D01*
X136498213Y-113140292D01*
X136609707Y-113251786D01*
X136609711Y-113251789D01*
X136740814Y-113339390D01*
X136740827Y-113339397D01*
X136851371Y-113385185D01*
X136886503Y-113399737D01*
X137041153Y-113430499D01*
X137041156Y-113430500D01*
X137041158Y-113430500D01*
X137198844Y-113430500D01*
X137198845Y-113430499D01*
X137353497Y-113399737D01*
X137499179Y-113339394D01*
X137630289Y-113251789D01*
X137741789Y-113140289D01*
X137829394Y-113009179D01*
X137885439Y-112873874D01*
X137929280Y-112819470D01*
X137995574Y-112797405D01*
X138063273Y-112814684D01*
X138110884Y-112865821D01*
X138114561Y-112873874D01*
X138170602Y-113009172D01*
X138170609Y-113009185D01*
X138258210Y-113140288D01*
X138258213Y-113140292D01*
X138369707Y-113251786D01*
X138369711Y-113251789D01*
X138500814Y-113339390D01*
X138500827Y-113339397D01*
X138611371Y-113385185D01*
X138646503Y-113399737D01*
X138801153Y-113430499D01*
X138801156Y-113430500D01*
X138801158Y-113430500D01*
X138958844Y-113430500D01*
X138958845Y-113430499D01*
X139113497Y-113399737D01*
X139259179Y-113339394D01*
X139390289Y-113251789D01*
X139501789Y-113140289D01*
X139589394Y-113009179D01*
X139649737Y-112863497D01*
X139680500Y-112708842D01*
X139680500Y-112551158D01*
X139680500Y-112551155D01*
X139680499Y-112551153D01*
X139658494Y-112440529D01*
X139649737Y-112396503D01*
X139604819Y-112288060D01*
X139589397Y-112250827D01*
X139589390Y-112250814D01*
X139501789Y-112119711D01*
X139501786Y-112119707D01*
X139390292Y-112008213D01*
X139390288Y-112008210D01*
X139259185Y-111920609D01*
X139259172Y-111920602D01*
X139113501Y-111860264D01*
X139113489Y-111860261D01*
X138958845Y-111829500D01*
X138958842Y-111829500D01*
X138801158Y-111829500D01*
X138801155Y-111829500D01*
X138646510Y-111860261D01*
X138646498Y-111860264D01*
X138500827Y-111920602D01*
X138500814Y-111920609D01*
X138369711Y-112008210D01*
X138369707Y-112008213D01*
X138258213Y-112119707D01*
X138258210Y-112119711D01*
X138170609Y-112250814D01*
X138170602Y-112250827D01*
X138114561Y-112386125D01*
X138070720Y-112440529D01*
X138004426Y-112462594D01*
X137936727Y-112445315D01*
X137889116Y-112394178D01*
X137885439Y-112386125D01*
X137829397Y-112250827D01*
X137829390Y-112250814D01*
X137741789Y-112119711D01*
X137741786Y-112119707D01*
X137630292Y-112008213D01*
X137630288Y-112008210D01*
X137499185Y-111920609D01*
X137499172Y-111920602D01*
X137353501Y-111860264D01*
X137353489Y-111860261D01*
X137198845Y-111829500D01*
X137198842Y-111829500D01*
X137041158Y-111829500D01*
X137041155Y-111829500D01*
X136886510Y-111860261D01*
X136886498Y-111860264D01*
X136740827Y-111920602D01*
X136740814Y-111920609D01*
X136609711Y-112008210D01*
X136609707Y-112008213D01*
X136498213Y-112119707D01*
X136498210Y-112119711D01*
X136410609Y-112250814D01*
X136410602Y-112250827D01*
X136350264Y-112396498D01*
X136350261Y-112396510D01*
X136319500Y-112551153D01*
X122249410Y-112551153D01*
X122250000Y-112549728D01*
X122250000Y-112450272D01*
X122211940Y-112358386D01*
X122141614Y-112288060D01*
X122049728Y-112250000D01*
X122250000Y-112250000D01*
X122900000Y-112250000D01*
X122900000Y-112161357D01*
X122899999Y-112161353D01*
X122865415Y-111987487D01*
X122865413Y-111987479D01*
X122797571Y-111823692D01*
X122797566Y-111823683D01*
X122699076Y-111676283D01*
X122699073Y-111676279D01*
X122573720Y-111550926D01*
X122573716Y-111550923D01*
X122426316Y-111452433D01*
X122426307Y-111452428D01*
X122262519Y-111384585D01*
X122250000Y-111382094D01*
X122250000Y-112250000D01*
X122049728Y-112250000D01*
X121950272Y-112250000D01*
X121858386Y-112288060D01*
X121788060Y-112358386D01*
X121750000Y-112450272D01*
X121750000Y-111382095D01*
X121749999Y-111382094D01*
X121737480Y-111384585D01*
X121573692Y-111452428D01*
X121573683Y-111452433D01*
X121444340Y-111538858D01*
X121377662Y-111559736D01*
X121310282Y-111541251D01*
X121306558Y-111538858D01*
X121176552Y-111451990D01*
X121176540Y-111451983D01*
X121012667Y-111384106D01*
X121012658Y-111384103D01*
X120838694Y-111349500D01*
X120838691Y-111349500D01*
X120661309Y-111349500D01*
X120661306Y-111349500D01*
X120487341Y-111384103D01*
X120487332Y-111384106D01*
X120323459Y-111451983D01*
X120323446Y-111451990D01*
X120193891Y-111538557D01*
X120127213Y-111559435D01*
X120059833Y-111540950D01*
X120056109Y-111538557D01*
X119926553Y-111451990D01*
X119926540Y-111451983D01*
X119762667Y-111384106D01*
X119762658Y-111384103D01*
X119588694Y-111349500D01*
X119588691Y-111349500D01*
X119411309Y-111349500D01*
X119411306Y-111349500D01*
X119237341Y-111384103D01*
X119237332Y-111384106D01*
X119073460Y-111451983D01*
X119073449Y-111451989D01*
X119016162Y-111490267D01*
X118949484Y-111511144D01*
X118883122Y-111493281D01*
X118739606Y-111406522D01*
X118661212Y-111382094D01*
X118577196Y-111355914D01*
X118577194Y-111355913D01*
X118577192Y-111355913D01*
X118527778Y-111351423D01*
X118506616Y-111349500D01*
X117993384Y-111349500D01*
X117974145Y-111351248D01*
X117922807Y-111355913D01*
X117760393Y-111406522D01*
X117614811Y-111494530D01*
X117494530Y-111614811D01*
X117406522Y-111760393D01*
X117355913Y-111922807D01*
X117350782Y-111979275D01*
X117349500Y-111993384D01*
X102700500Y-111993384D01*
X102700500Y-107491153D01*
X134149500Y-107491153D01*
X134149500Y-107648846D01*
X134180261Y-107803489D01*
X134180264Y-107803501D01*
X134240602Y-107949172D01*
X134240608Y-107949183D01*
X134285327Y-108016110D01*
X134306204Y-108082787D01*
X134287719Y-108150167D01*
X134285327Y-108153890D01*
X134240608Y-108220816D01*
X134240602Y-108220827D01*
X134180264Y-108366498D01*
X134180261Y-108366510D01*
X134149500Y-108521153D01*
X134149500Y-108678846D01*
X134180261Y-108833489D01*
X134180264Y-108833501D01*
X134240602Y-108979171D01*
X134240603Y-108979172D01*
X134240606Y-108979179D01*
X134240609Y-108979183D01*
X134240611Y-108979187D01*
X134281986Y-109041111D01*
X134302863Y-109107788D01*
X134284378Y-109175168D01*
X134281986Y-109178889D01*
X134240611Y-109240812D01*
X134240602Y-109240828D01*
X134180264Y-109386498D01*
X134180261Y-109386510D01*
X134149500Y-109541153D01*
X134149500Y-109698846D01*
X134180261Y-109853489D01*
X134180264Y-109853501D01*
X134240602Y-109999172D01*
X134240609Y-109999185D01*
X134328210Y-110130288D01*
X134328213Y-110130292D01*
X134439707Y-110241786D01*
X134439711Y-110241789D01*
X134570814Y-110329390D01*
X134570827Y-110329397D01*
X134716498Y-110389735D01*
X134716503Y-110389737D01*
X134871153Y-110420499D01*
X134871156Y-110420500D01*
X134871158Y-110420500D01*
X135028844Y-110420500D01*
X135028845Y-110420499D01*
X135183497Y-110389737D01*
X135296166Y-110343067D01*
X135329172Y-110329397D01*
X135329172Y-110329396D01*
X135329179Y-110329394D01*
X135460289Y-110241789D01*
X135571789Y-110130289D01*
X135659394Y-109999179D01*
X135719737Y-109853497D01*
X135750500Y-109698842D01*
X135750500Y-109541158D01*
X135750500Y-109541155D01*
X135750499Y-109541153D01*
X135719737Y-109386503D01*
X135663539Y-109250827D01*
X135659397Y-109240827D01*
X135659389Y-109240813D01*
X135618014Y-109178892D01*
X135597135Y-109112215D01*
X135615619Y-109044835D01*
X135618014Y-109041108D01*
X135652707Y-108989187D01*
X135659394Y-108979179D01*
X135719737Y-108833497D01*
X135750500Y-108678842D01*
X135750500Y-108521158D01*
X135750500Y-108521155D01*
X135750499Y-108521153D01*
X135719737Y-108366503D01*
X135663539Y-108230827D01*
X135659397Y-108220827D01*
X135659390Y-108220814D01*
X135614673Y-108153891D01*
X135593795Y-108087214D01*
X135612279Y-108019834D01*
X135614673Y-108016109D01*
X135659390Y-107949185D01*
X135659391Y-107949183D01*
X135659394Y-107949179D01*
X135719737Y-107803497D01*
X135750500Y-107648842D01*
X135750500Y-107501153D01*
X140249500Y-107501153D01*
X140249500Y-107658846D01*
X140280261Y-107813489D01*
X140280264Y-107813501D01*
X140340602Y-107959172D01*
X140340608Y-107959183D01*
X140385327Y-108026110D01*
X140406204Y-108092787D01*
X140387719Y-108160167D01*
X140385327Y-108163890D01*
X140340608Y-108230816D01*
X140340602Y-108230827D01*
X140280264Y-108376498D01*
X140280261Y-108376510D01*
X140249500Y-108531153D01*
X140249500Y-108688846D01*
X140280261Y-108843489D01*
X140280264Y-108843501D01*
X140340602Y-108989171D01*
X140340603Y-108989172D01*
X140340606Y-108989179D01*
X140340609Y-108989183D01*
X140340611Y-108989187D01*
X140381986Y-109051111D01*
X140402863Y-109117788D01*
X140384378Y-109185168D01*
X140381986Y-109188889D01*
X140340611Y-109250812D01*
X140340602Y-109250828D01*
X140280264Y-109396498D01*
X140280261Y-109396510D01*
X140249500Y-109551153D01*
X140249500Y-109708846D01*
X140280261Y-109863489D01*
X140280264Y-109863501D01*
X140340602Y-110009172D01*
X140340609Y-110009185D01*
X140428210Y-110140288D01*
X140428213Y-110140292D01*
X140539707Y-110251786D01*
X140539711Y-110251789D01*
X140670814Y-110339390D01*
X140670827Y-110339397D01*
X140792363Y-110389738D01*
X140816503Y-110399737D01*
X140971153Y-110430499D01*
X140971156Y-110430500D01*
X140971158Y-110430500D01*
X141128844Y-110430500D01*
X141128845Y-110430499D01*
X141283497Y-110399737D01*
X141429179Y-110339394D01*
X141560289Y-110251789D01*
X141671789Y-110140289D01*
X141759394Y-110009179D01*
X141819737Y-109863497D01*
X141850500Y-109708842D01*
X141850500Y-109551158D01*
X141850500Y-109551155D01*
X141850499Y-109551153D01*
X141819738Y-109396510D01*
X141819737Y-109396503D01*
X141759397Y-109250828D01*
X141759397Y-109250827D01*
X141759389Y-109250813D01*
X141718014Y-109188892D01*
X141697135Y-109122215D01*
X141715619Y-109054835D01*
X141718014Y-109051108D01*
X141759394Y-108989179D01*
X141819737Y-108843497D01*
X141850500Y-108688842D01*
X141850500Y-108531158D01*
X141850500Y-108531155D01*
X141850499Y-108531153D01*
X141819738Y-108376510D01*
X141819737Y-108376503D01*
X141815593Y-108366498D01*
X141759397Y-108230827D01*
X141759390Y-108230814D01*
X141714673Y-108163891D01*
X141693795Y-108097214D01*
X141712279Y-108029834D01*
X141714673Y-108026109D01*
X141759390Y-107959185D01*
X141759391Y-107959183D01*
X141759394Y-107959179D01*
X141763535Y-107949183D01*
X141819735Y-107813501D01*
X141819737Y-107813497D01*
X141850500Y-107658842D01*
X141850500Y-107501158D01*
X141850500Y-107501155D01*
X141850499Y-107501153D01*
X141819738Y-107346510D01*
X141819737Y-107346503D01*
X141815593Y-107336498D01*
X141759397Y-107200827D01*
X141759390Y-107200814D01*
X141671789Y-107069711D01*
X141671786Y-107069707D01*
X141560292Y-106958213D01*
X141560288Y-106958210D01*
X141429185Y-106870609D01*
X141429172Y-106870602D01*
X141283501Y-106810264D01*
X141283489Y-106810261D01*
X141128845Y-106779500D01*
X141128842Y-106779500D01*
X140971158Y-106779500D01*
X140971155Y-106779500D01*
X140816510Y-106810261D01*
X140816498Y-106810264D01*
X140670827Y-106870602D01*
X140670814Y-106870609D01*
X140539711Y-106958210D01*
X140539707Y-106958213D01*
X140428213Y-107069707D01*
X140428210Y-107069711D01*
X140340609Y-107200814D01*
X140340602Y-107200827D01*
X140280264Y-107346498D01*
X140280261Y-107346510D01*
X140249500Y-107501153D01*
X135750500Y-107501153D01*
X135750500Y-107491158D01*
X135750500Y-107491155D01*
X135750499Y-107491153D01*
X135719737Y-107336503D01*
X135663539Y-107200827D01*
X135659397Y-107190827D01*
X135659390Y-107190814D01*
X135571789Y-107059711D01*
X135571786Y-107059707D01*
X135460292Y-106948213D01*
X135460288Y-106948210D01*
X135329185Y-106860609D01*
X135329172Y-106860602D01*
X135183501Y-106800264D01*
X135183489Y-106800261D01*
X135028845Y-106769500D01*
X135028842Y-106769500D01*
X134871158Y-106769500D01*
X134871155Y-106769500D01*
X134716510Y-106800261D01*
X134716498Y-106800264D01*
X134570827Y-106860602D01*
X134570814Y-106860609D01*
X134439711Y-106948210D01*
X134439707Y-106948213D01*
X134328213Y-107059707D01*
X134328210Y-107059711D01*
X134240609Y-107190814D01*
X134240602Y-107190827D01*
X134180264Y-107336498D01*
X134180261Y-107336510D01*
X134149500Y-107491153D01*
X102700500Y-107491153D01*
X102700500Y-101701153D01*
X151719500Y-101701153D01*
X151719500Y-101858846D01*
X151750261Y-102013489D01*
X151750264Y-102013501D01*
X151810602Y-102159172D01*
X151810609Y-102159185D01*
X151898210Y-102290288D01*
X151898213Y-102290292D01*
X152009707Y-102401786D01*
X152009711Y-102401789D01*
X152140814Y-102489390D01*
X152140827Y-102489397D01*
X152286498Y-102549735D01*
X152286503Y-102549737D01*
X152425126Y-102577311D01*
X152487037Y-102609696D01*
X152521611Y-102670411D01*
X152522552Y-102674735D01*
X152530261Y-102713492D01*
X152530264Y-102713501D01*
X152590602Y-102859172D01*
X152590609Y-102859185D01*
X152678210Y-102990288D01*
X152678213Y-102990292D01*
X152789707Y-103101786D01*
X152789711Y-103101789D01*
X152920814Y-103189390D01*
X152920827Y-103189397D01*
X153066498Y-103249735D01*
X153066503Y-103249737D01*
X153221153Y-103280499D01*
X153221156Y-103280500D01*
X153221158Y-103280500D01*
X153378844Y-103280500D01*
X153378845Y-103280499D01*
X153533497Y-103249737D01*
X153679179Y-103189394D01*
X153810289Y-103101789D01*
X153921789Y-102990289D01*
X154009394Y-102859179D01*
X154069737Y-102713497D01*
X154100500Y-102558842D01*
X154100500Y-102401158D01*
X154100500Y-102401155D01*
X154100499Y-102401153D01*
X154078447Y-102290292D01*
X154069737Y-102246503D01*
X154033569Y-102159185D01*
X154009397Y-102100827D01*
X154009390Y-102100814D01*
X153921789Y-101969711D01*
X153921786Y-101969707D01*
X153810292Y-101858213D01*
X153810288Y-101858210D01*
X153679185Y-101770609D01*
X153679172Y-101770602D01*
X153533501Y-101710264D01*
X153533491Y-101710261D01*
X153394872Y-101682688D01*
X153332961Y-101650303D01*
X153298387Y-101589587D01*
X153297447Y-101585262D01*
X153289738Y-101546510D01*
X153289737Y-101546503D01*
X153289735Y-101546498D01*
X153229397Y-101400827D01*
X153229390Y-101400814D01*
X153141789Y-101269711D01*
X153141786Y-101269707D01*
X153030292Y-101158213D01*
X153030288Y-101158210D01*
X152899185Y-101070609D01*
X152899172Y-101070602D01*
X152753501Y-101010264D01*
X152753489Y-101010261D01*
X152598845Y-100979500D01*
X152598842Y-100979500D01*
X152441158Y-100979500D01*
X152441155Y-100979500D01*
X152286510Y-101010261D01*
X152286498Y-101010264D01*
X152140827Y-101070602D01*
X152140814Y-101070609D01*
X152009711Y-101158210D01*
X152009707Y-101158213D01*
X151898213Y-101269707D01*
X151898210Y-101269711D01*
X151810609Y-101400814D01*
X151810602Y-101400827D01*
X151750264Y-101546498D01*
X151750261Y-101546510D01*
X151719500Y-101701153D01*
X102700500Y-101701153D01*
X102700500Y-98611153D01*
X118319500Y-98611153D01*
X118319500Y-98768846D01*
X118350261Y-98923489D01*
X118350264Y-98923501D01*
X118410602Y-99069172D01*
X118410609Y-99069185D01*
X118498210Y-99200288D01*
X118498213Y-99200292D01*
X118609707Y-99311786D01*
X118609711Y-99311789D01*
X118740814Y-99399390D01*
X118740827Y-99399397D01*
X118886498Y-99459735D01*
X118886503Y-99459737D01*
X119041153Y-99490499D01*
X119041156Y-99490500D01*
X119041158Y-99490500D01*
X119198844Y-99490500D01*
X119198845Y-99490499D01*
X119353497Y-99459737D01*
X119499179Y-99399394D01*
X119630289Y-99311789D01*
X119741789Y-99200289D01*
X119829394Y-99069179D01*
X119889737Y-98923497D01*
X119920500Y-98768842D01*
X119920500Y-98611158D01*
X119920500Y-98611155D01*
X119920499Y-98611153D01*
X119904712Y-98531786D01*
X119889737Y-98456503D01*
X119874737Y-98420289D01*
X119829397Y-98310827D01*
X119829390Y-98310814D01*
X119741789Y-98179711D01*
X119741786Y-98179707D01*
X119630292Y-98068213D01*
X119630288Y-98068210D01*
X119499185Y-97980609D01*
X119499172Y-97980602D01*
X119400247Y-97939627D01*
X119353501Y-97920264D01*
X119353489Y-97920261D01*
X119198845Y-97889500D01*
X119198842Y-97889500D01*
X119041158Y-97889500D01*
X119041155Y-97889500D01*
X118886510Y-97920261D01*
X118886498Y-97920264D01*
X118740827Y-97980602D01*
X118740814Y-97980609D01*
X118609711Y-98068210D01*
X118609707Y-98068213D01*
X118498213Y-98179707D01*
X118498210Y-98179711D01*
X118410609Y-98310814D01*
X118410602Y-98310827D01*
X118350264Y-98456498D01*
X118350261Y-98456510D01*
X118319500Y-98611153D01*
X102700500Y-98611153D01*
X102700500Y-97831153D01*
X125149500Y-97831153D01*
X125149500Y-97988846D01*
X125180261Y-98143489D01*
X125180264Y-98143501D01*
X125240602Y-98289172D01*
X125240609Y-98289185D01*
X125328210Y-98420288D01*
X125328213Y-98420292D01*
X125439707Y-98531786D01*
X125439711Y-98531789D01*
X125570814Y-98619390D01*
X125570827Y-98619397D01*
X125716498Y-98679735D01*
X125716503Y-98679737D01*
X125871153Y-98710499D01*
X125871156Y-98710500D01*
X125871158Y-98710500D01*
X126028844Y-98710500D01*
X126028845Y-98710499D01*
X126183497Y-98679737D01*
X126329179Y-98619394D01*
X126460289Y-98531789D01*
X126571789Y-98420289D01*
X126659394Y-98289179D01*
X126719737Y-98143497D01*
X126750500Y-97988842D01*
X126750500Y-97831158D01*
X126750500Y-97831155D01*
X126750499Y-97831153D01*
X126719738Y-97676510D01*
X126719737Y-97676503D01*
X126719735Y-97676498D01*
X126659397Y-97530827D01*
X126659390Y-97530814D01*
X126571789Y-97399711D01*
X126571786Y-97399707D01*
X126460292Y-97288213D01*
X126460288Y-97288210D01*
X126329185Y-97200609D01*
X126329172Y-97200602D01*
X126183501Y-97140264D01*
X126183489Y-97140261D01*
X126028845Y-97109500D01*
X126028842Y-97109500D01*
X125871158Y-97109500D01*
X125871155Y-97109500D01*
X125716510Y-97140261D01*
X125716498Y-97140264D01*
X125570827Y-97200602D01*
X125570814Y-97200609D01*
X125439711Y-97288210D01*
X125439707Y-97288213D01*
X125328213Y-97399707D01*
X125328210Y-97399711D01*
X125240609Y-97530814D01*
X125240602Y-97530827D01*
X125180264Y-97676498D01*
X125180261Y-97676510D01*
X125149500Y-97831153D01*
X102700500Y-97831153D01*
X102700500Y-96374984D01*
X161999500Y-96374984D01*
X161999500Y-98375015D01*
X162010000Y-98477795D01*
X162010001Y-98477796D01*
X162065186Y-98644335D01*
X162065187Y-98644337D01*
X162157286Y-98793651D01*
X162157289Y-98793655D01*
X162281344Y-98917710D01*
X162281348Y-98917713D01*
X162430662Y-99009812D01*
X162430664Y-99009813D01*
X162430666Y-99009814D01*
X162597203Y-99064999D01*
X162699992Y-99075500D01*
X162699997Y-99075500D01*
X164700003Y-99075500D01*
X164700008Y-99075500D01*
X164802797Y-99064999D01*
X164969334Y-99009814D01*
X165118655Y-98917711D01*
X165242711Y-98793655D01*
X165334814Y-98644334D01*
X165389999Y-98477797D01*
X165400500Y-98375008D01*
X165400500Y-96374992D01*
X165389999Y-96272203D01*
X165334814Y-96105666D01*
X165242711Y-95956345D01*
X165118655Y-95832289D01*
X165118651Y-95832286D01*
X164969337Y-95740187D01*
X164969335Y-95740186D01*
X164886065Y-95712593D01*
X164802797Y-95685001D01*
X164802795Y-95685000D01*
X164700015Y-95674500D01*
X164700008Y-95674500D01*
X164421326Y-95674500D01*
X164354287Y-95654815D01*
X164308532Y-95602011D01*
X164298588Y-95532853D01*
X164327613Y-95469297D01*
X164373873Y-95435939D01*
X164453502Y-95402954D01*
X164453514Y-95402949D01*
X164646498Y-95291530D01*
X164712403Y-95240957D01*
X164712404Y-95240956D01*
X163911059Y-94439612D01*
X163931591Y-94434111D01*
X164068408Y-94355119D01*
X164180119Y-94243408D01*
X164259111Y-94106591D01*
X164264612Y-94086059D01*
X165065956Y-94887404D01*
X165065957Y-94887403D01*
X165116530Y-94821498D01*
X165227949Y-94628514D01*
X165227954Y-94628502D01*
X165313236Y-94422618D01*
X165370911Y-94207367D01*
X165370914Y-94207354D01*
X165400000Y-93986424D01*
X165400000Y-93763575D01*
X165370914Y-93542645D01*
X165370911Y-93542632D01*
X165313236Y-93327381D01*
X165227954Y-93121497D01*
X165227949Y-93121485D01*
X165116533Y-92928507D01*
X165065956Y-92862595D01*
X165065955Y-92862595D01*
X164264612Y-93663939D01*
X164259111Y-93643409D01*
X164180119Y-93506592D01*
X164068408Y-93394881D01*
X163931591Y-93315889D01*
X163911058Y-93310387D01*
X164712403Y-92509043D01*
X164712403Y-92509040D01*
X164646504Y-92458473D01*
X164646491Y-92458464D01*
X164453520Y-92347054D01*
X164453502Y-92347045D01*
X164247618Y-92261763D01*
X164032367Y-92204088D01*
X164032354Y-92204085D01*
X163811425Y-92175000D01*
X163588575Y-92175000D01*
X163367645Y-92204085D01*
X163367632Y-92204088D01*
X163152381Y-92261763D01*
X162946497Y-92347045D01*
X162946479Y-92347054D01*
X162753511Y-92458462D01*
X162687595Y-92509042D01*
X163488941Y-93310387D01*
X163468409Y-93315889D01*
X163331592Y-93394881D01*
X163219881Y-93506592D01*
X163140889Y-93643409D01*
X163135387Y-93663940D01*
X162334042Y-92862595D01*
X162283462Y-92928511D01*
X162172054Y-93121479D01*
X162172045Y-93121497D01*
X162086763Y-93327381D01*
X162029088Y-93542632D01*
X162029085Y-93542645D01*
X162000000Y-93763575D01*
X162000000Y-93986424D01*
X162029085Y-94207354D01*
X162029088Y-94207367D01*
X162086763Y-94422618D01*
X162172045Y-94628502D01*
X162172054Y-94628520D01*
X162283464Y-94821491D01*
X162283473Y-94821504D01*
X162334040Y-94887403D01*
X162334043Y-94887403D01*
X163135387Y-94086059D01*
X163140889Y-94106591D01*
X163219881Y-94243408D01*
X163331592Y-94355119D01*
X163468409Y-94434111D01*
X163488940Y-94439612D01*
X162687595Y-95240955D01*
X162687595Y-95240956D01*
X162753507Y-95291533D01*
X162946485Y-95402949D01*
X162946497Y-95402954D01*
X163026127Y-95435939D01*
X163080531Y-95479780D01*
X163102595Y-95546075D01*
X163085315Y-95613774D01*
X163034178Y-95661384D01*
X162978674Y-95674500D01*
X162699984Y-95674500D01*
X162597204Y-95685000D01*
X162597203Y-95685001D01*
X162430664Y-95740186D01*
X162430662Y-95740187D01*
X162281348Y-95832286D01*
X162281344Y-95832289D01*
X162157289Y-95956344D01*
X162157286Y-95956348D01*
X162065187Y-96105662D01*
X162065186Y-96105664D01*
X162010001Y-96272203D01*
X162010000Y-96272204D01*
X161999500Y-96374984D01*
X102700500Y-96374984D01*
X102700500Y-94601153D01*
X108509500Y-94601153D01*
X108509500Y-94758846D01*
X108540261Y-94913489D01*
X108540264Y-94913501D01*
X108600602Y-95059172D01*
X108600609Y-95059185D01*
X108688210Y-95190288D01*
X108688213Y-95190292D01*
X108799707Y-95301786D01*
X108799711Y-95301789D01*
X108930814Y-95389390D01*
X108930827Y-95389397D01*
X109043191Y-95435939D01*
X109076503Y-95449737D01*
X109227538Y-95479780D01*
X109231153Y-95480499D01*
X109231156Y-95480500D01*
X109231158Y-95480500D01*
X109388844Y-95480500D01*
X109388845Y-95480499D01*
X109543497Y-95449737D01*
X109689179Y-95389394D01*
X109820289Y-95301789D01*
X109842319Y-95279758D01*
X109903640Y-95246274D01*
X109973331Y-95251257D01*
X110017680Y-95279758D01*
X110029452Y-95291530D01*
X110039712Y-95301790D01*
X110170814Y-95389390D01*
X110170827Y-95389397D01*
X110283191Y-95435939D01*
X110316503Y-95449737D01*
X110467538Y-95479780D01*
X110471153Y-95480499D01*
X110471156Y-95480500D01*
X110471158Y-95480500D01*
X110628844Y-95480500D01*
X110628845Y-95480499D01*
X110783497Y-95449737D01*
X110929179Y-95389394D01*
X111060289Y-95301789D01*
X111171789Y-95190289D01*
X111259394Y-95059179D01*
X111319737Y-94913497D01*
X111350500Y-94758842D01*
X111350500Y-94601158D01*
X111350500Y-94601155D01*
X111350499Y-94601153D01*
X111319738Y-94446510D01*
X111319737Y-94446503D01*
X111281885Y-94355119D01*
X111259397Y-94300827D01*
X111259390Y-94300814D01*
X111171789Y-94169711D01*
X111171786Y-94169707D01*
X111060292Y-94058213D01*
X111060288Y-94058210D01*
X110929185Y-93970609D01*
X110929172Y-93970602D01*
X110783501Y-93910264D01*
X110783489Y-93910261D01*
X110637060Y-93881134D01*
X110628845Y-93879500D01*
X110628842Y-93879500D01*
X110471158Y-93879500D01*
X110471155Y-93879500D01*
X110316510Y-93910261D01*
X110316498Y-93910264D01*
X110170827Y-93970602D01*
X110170814Y-93970609D01*
X110039711Y-94058210D01*
X110039707Y-94058213D01*
X110017681Y-94080240D01*
X109956358Y-94113725D01*
X109886666Y-94108741D01*
X109842319Y-94080240D01*
X109820292Y-94058213D01*
X109820288Y-94058210D01*
X109689185Y-93970609D01*
X109689172Y-93970602D01*
X109543501Y-93910264D01*
X109543489Y-93910261D01*
X109388845Y-93879500D01*
X109388842Y-93879500D01*
X109231158Y-93879500D01*
X109231155Y-93879500D01*
X109076510Y-93910261D01*
X109076498Y-93910264D01*
X108930827Y-93970602D01*
X108930814Y-93970609D01*
X108799711Y-94058210D01*
X108799707Y-94058213D01*
X108688213Y-94169707D01*
X108688210Y-94169711D01*
X108600609Y-94300814D01*
X108600602Y-94300827D01*
X108540264Y-94446498D01*
X108540261Y-94446510D01*
X108509500Y-94601153D01*
X102700500Y-94601153D01*
X102700500Y-87371153D01*
X112159500Y-87371153D01*
X112159500Y-87528846D01*
X112190261Y-87683489D01*
X112190264Y-87683501D01*
X112250602Y-87829172D01*
X112250609Y-87829185D01*
X112338210Y-87960288D01*
X112338213Y-87960292D01*
X112449707Y-88071786D01*
X112449711Y-88071789D01*
X112580814Y-88159390D01*
X112580827Y-88159397D01*
X112726498Y-88219735D01*
X112726503Y-88219737D01*
X112881153Y-88250499D01*
X112881156Y-88250500D01*
X112881158Y-88250500D01*
X113038844Y-88250500D01*
X113038845Y-88250499D01*
X113193497Y-88219737D01*
X113339179Y-88159394D01*
X113470289Y-88071789D01*
X113581789Y-87960289D01*
X113669394Y-87829179D01*
X113729737Y-87683497D01*
X113760500Y-87528842D01*
X113760500Y-87371158D01*
X113760500Y-87371155D01*
X113760499Y-87371153D01*
X113729737Y-87216503D01*
X113729735Y-87216498D01*
X113669397Y-87070827D01*
X113669390Y-87070814D01*
X113608013Y-86978957D01*
X113581789Y-86939711D01*
X113581786Y-86939707D01*
X113558232Y-86916153D01*
X119834500Y-86916153D01*
X119834500Y-87073846D01*
X119865261Y-87228489D01*
X119865264Y-87228501D01*
X119925602Y-87374172D01*
X119925609Y-87374185D01*
X120013210Y-87505288D01*
X120013213Y-87505292D01*
X120124707Y-87616786D01*
X120124711Y-87616789D01*
X120255814Y-87704390D01*
X120255827Y-87704397D01*
X120401498Y-87764735D01*
X120401503Y-87764737D01*
X120556153Y-87795499D01*
X120556156Y-87795500D01*
X120556158Y-87795500D01*
X120713844Y-87795500D01*
X120713845Y-87795499D01*
X120868497Y-87764737D01*
X121014179Y-87704394D01*
X121145289Y-87616789D01*
X121256789Y-87505289D01*
X121344394Y-87374179D01*
X121404737Y-87228497D01*
X121435500Y-87073842D01*
X121435500Y-86916158D01*
X121435500Y-86916155D01*
X121435499Y-86916153D01*
X121404737Y-86761503D01*
X121404735Y-86761498D01*
X121344397Y-86615827D01*
X121344390Y-86615814D01*
X121256789Y-86484711D01*
X121256786Y-86484707D01*
X121145292Y-86373213D01*
X121145288Y-86373210D01*
X121077878Y-86328168D01*
X121014185Y-86285609D01*
X121014172Y-86285602D01*
X120882719Y-86231153D01*
X126939500Y-86231153D01*
X126939500Y-86388846D01*
X126970261Y-86543489D01*
X126970264Y-86543501D01*
X127030602Y-86689172D01*
X127030609Y-86689185D01*
X127118210Y-86820288D01*
X127118213Y-86820292D01*
X127229707Y-86931786D01*
X127229711Y-86931789D01*
X127360814Y-87019390D01*
X127360827Y-87019397D01*
X127506498Y-87079735D01*
X127506503Y-87079737D01*
X127661153Y-87110499D01*
X127661156Y-87110500D01*
X127661158Y-87110500D01*
X127818844Y-87110500D01*
X127818845Y-87110499D01*
X127973497Y-87079737D01*
X128119179Y-87019394D01*
X128250289Y-86931789D01*
X128361789Y-86820289D01*
X128449394Y-86689179D01*
X128509737Y-86543497D01*
X128540500Y-86388842D01*
X128540500Y-86231158D01*
X128540500Y-86231155D01*
X128540499Y-86231153D01*
X128509738Y-86076510D01*
X128509737Y-86076503D01*
X128509735Y-86076498D01*
X128449397Y-85930827D01*
X128449390Y-85930814D01*
X128361789Y-85799711D01*
X128361786Y-85799707D01*
X128250292Y-85688213D01*
X128250288Y-85688210D01*
X128119185Y-85600609D01*
X128119172Y-85600602D01*
X127973501Y-85540264D01*
X127973489Y-85540261D01*
X127818845Y-85509500D01*
X127818842Y-85509500D01*
X127661158Y-85509500D01*
X127661155Y-85509500D01*
X127506510Y-85540261D01*
X127506498Y-85540264D01*
X127360827Y-85600602D01*
X127360814Y-85600609D01*
X127229711Y-85688210D01*
X127229707Y-85688213D01*
X127118213Y-85799707D01*
X127118210Y-85799711D01*
X127030609Y-85930814D01*
X127030602Y-85930827D01*
X126970264Y-86076498D01*
X126970261Y-86076510D01*
X126939500Y-86231153D01*
X120882719Y-86231153D01*
X120868501Y-86225264D01*
X120868489Y-86225261D01*
X120713845Y-86194500D01*
X120713842Y-86194500D01*
X120556158Y-86194500D01*
X120556155Y-86194500D01*
X120401510Y-86225261D01*
X120401498Y-86225264D01*
X120255827Y-86285602D01*
X120255814Y-86285609D01*
X120124711Y-86373210D01*
X120124707Y-86373213D01*
X120013213Y-86484707D01*
X120013210Y-86484711D01*
X119925609Y-86615814D01*
X119925602Y-86615827D01*
X119865264Y-86761498D01*
X119865261Y-86761510D01*
X119834500Y-86916153D01*
X113558232Y-86916153D01*
X113470292Y-86828213D01*
X113470288Y-86828210D01*
X113339185Y-86740609D01*
X113339172Y-86740602D01*
X113193501Y-86680264D01*
X113193489Y-86680261D01*
X113038845Y-86649500D01*
X113038842Y-86649500D01*
X112881158Y-86649500D01*
X112881155Y-86649500D01*
X112726510Y-86680261D01*
X112726498Y-86680264D01*
X112580827Y-86740602D01*
X112580814Y-86740609D01*
X112449711Y-86828210D01*
X112449707Y-86828213D01*
X112338213Y-86939707D01*
X112338210Y-86939711D01*
X112250609Y-87070814D01*
X112250602Y-87070827D01*
X112190264Y-87216498D01*
X112190261Y-87216510D01*
X112159500Y-87371153D01*
X102700500Y-87371153D01*
X102700500Y-83976153D01*
X122774500Y-83976153D01*
X122774500Y-84133846D01*
X122805261Y-84288489D01*
X122805264Y-84288501D01*
X122865602Y-84434172D01*
X122865609Y-84434185D01*
X122953210Y-84565288D01*
X122953213Y-84565292D01*
X123064707Y-84676786D01*
X123064711Y-84676789D01*
X123195814Y-84764390D01*
X123195827Y-84764397D01*
X123341498Y-84824735D01*
X123341503Y-84824737D01*
X123496153Y-84855499D01*
X123496156Y-84855500D01*
X123496158Y-84855500D01*
X123653844Y-84855500D01*
X123653845Y-84855499D01*
X123808497Y-84824737D01*
X123954179Y-84764394D01*
X124085289Y-84676789D01*
X124196789Y-84565289D01*
X124284394Y-84434179D01*
X124344737Y-84288497D01*
X124375500Y-84133842D01*
X124375500Y-83976158D01*
X124375500Y-83976155D01*
X124375499Y-83976153D01*
X124344737Y-83821503D01*
X124307043Y-83730500D01*
X124284397Y-83675827D01*
X124284390Y-83675814D01*
X124196789Y-83544711D01*
X124196786Y-83544707D01*
X124085292Y-83433213D01*
X124085288Y-83433210D01*
X123954185Y-83345609D01*
X123954172Y-83345602D01*
X123808501Y-83285264D01*
X123808489Y-83285261D01*
X123653845Y-83254500D01*
X123653842Y-83254500D01*
X123496158Y-83254500D01*
X123496155Y-83254500D01*
X123341510Y-83285261D01*
X123341498Y-83285264D01*
X123195827Y-83345602D01*
X123195814Y-83345609D01*
X123064711Y-83433210D01*
X123064707Y-83433213D01*
X122953213Y-83544707D01*
X122953210Y-83544711D01*
X122865609Y-83675814D01*
X122865602Y-83675827D01*
X122805264Y-83821498D01*
X122805261Y-83821510D01*
X122774500Y-83976153D01*
X102700500Y-83976153D01*
X102700500Y-77067648D01*
X103199500Y-77067648D01*
X103199500Y-77272351D01*
X103231522Y-77474534D01*
X103294781Y-77669223D01*
X103387715Y-77851613D01*
X103508028Y-78017213D01*
X103652786Y-78161971D01*
X103755463Y-78236569D01*
X103798129Y-78291898D01*
X103804108Y-78361512D01*
X103771503Y-78423307D01*
X103710664Y-78457664D01*
X103695833Y-78460177D01*
X103642516Y-78465909D01*
X103507671Y-78516202D01*
X103507664Y-78516206D01*
X103392455Y-78602452D01*
X103392452Y-78602455D01*
X103306206Y-78717664D01*
X103306202Y-78717671D01*
X103255908Y-78852517D01*
X103249501Y-78912116D01*
X103249501Y-78912123D01*
X103249500Y-78912135D01*
X103249500Y-80507870D01*
X103249501Y-80507876D01*
X103255908Y-80567483D01*
X103306202Y-80702328D01*
X103306206Y-80702335D01*
X103392452Y-80817544D01*
X103392455Y-80817547D01*
X103507664Y-80903793D01*
X103507671Y-80903797D01*
X103552618Y-80920561D01*
X103642517Y-80954091D01*
X103696576Y-80959903D01*
X103761122Y-80986639D01*
X103800971Y-81044030D01*
X103803466Y-81113856D01*
X103774725Y-81162296D01*
X103774077Y-81170524D01*
X104453554Y-81850000D01*
X104447339Y-81850000D01*
X104345606Y-81877259D01*
X104254394Y-81929920D01*
X104179920Y-82004394D01*
X104127259Y-82095606D01*
X104100000Y-82197339D01*
X104100000Y-82203553D01*
X103420524Y-81524077D01*
X103420523Y-81524077D01*
X103388143Y-81568644D01*
X103295244Y-81750968D01*
X103232009Y-81945582D01*
X103200000Y-82147682D01*
X103200000Y-82352317D01*
X103232009Y-82554417D01*
X103295244Y-82749031D01*
X103388141Y-82931350D01*
X103388147Y-82931359D01*
X103420523Y-82975921D01*
X103420524Y-82975922D01*
X104100000Y-82296446D01*
X104100000Y-82302661D01*
X104127259Y-82404394D01*
X104179920Y-82495606D01*
X104254394Y-82570080D01*
X104345606Y-82622741D01*
X104447339Y-82650000D01*
X104453553Y-82650000D01*
X103774076Y-83329474D01*
X103818650Y-83361859D01*
X104000968Y-83454755D01*
X104195582Y-83517990D01*
X104397683Y-83550000D01*
X104602317Y-83550000D01*
X104804417Y-83517990D01*
X104999031Y-83454755D01*
X105181349Y-83361859D01*
X105225921Y-83329474D01*
X104546447Y-82650000D01*
X104552661Y-82650000D01*
X104654394Y-82622741D01*
X104745606Y-82570080D01*
X104820080Y-82495606D01*
X104872741Y-82404394D01*
X104900000Y-82302661D01*
X104900000Y-82296448D01*
X105579474Y-82975922D01*
X105579474Y-82975921D01*
X105611859Y-82931349D01*
X105652721Y-82851153D01*
X114329500Y-82851153D01*
X114329500Y-83008846D01*
X114360261Y-83163489D01*
X114360264Y-83163501D01*
X114420602Y-83309172D01*
X114420609Y-83309185D01*
X114508210Y-83440288D01*
X114508213Y-83440292D01*
X114619707Y-83551786D01*
X114619711Y-83551789D01*
X114750814Y-83639390D01*
X114750827Y-83639397D01*
X114896498Y-83699735D01*
X114896503Y-83699737D01*
X115051153Y-83730499D01*
X115051156Y-83730500D01*
X115051158Y-83730500D01*
X115208844Y-83730500D01*
X115208845Y-83730499D01*
X115363497Y-83699737D01*
X115509179Y-83639394D01*
X115640289Y-83551789D01*
X115751789Y-83440289D01*
X115839394Y-83309179D01*
X115899737Y-83163497D01*
X115930500Y-83008842D01*
X115930500Y-82851158D01*
X115930500Y-82851155D01*
X115930499Y-82851153D01*
X115910186Y-82749034D01*
X115899737Y-82696503D01*
X115885321Y-82661700D01*
X115839397Y-82550827D01*
X115839390Y-82550814D01*
X115751789Y-82419711D01*
X115751786Y-82419707D01*
X115640292Y-82308213D01*
X115640288Y-82308210D01*
X115509185Y-82220609D01*
X115509172Y-82220602D01*
X115363501Y-82160264D01*
X115363489Y-82160261D01*
X115208845Y-82129500D01*
X115208842Y-82129500D01*
X115051158Y-82129500D01*
X115051155Y-82129500D01*
X114896510Y-82160261D01*
X114896498Y-82160264D01*
X114750827Y-82220602D01*
X114750814Y-82220609D01*
X114619711Y-82308210D01*
X114619707Y-82308213D01*
X114508213Y-82419707D01*
X114508210Y-82419711D01*
X114420609Y-82550814D01*
X114420602Y-82550827D01*
X114360264Y-82696498D01*
X114360261Y-82696510D01*
X114329500Y-82851153D01*
X105652721Y-82851153D01*
X105684507Y-82788771D01*
X105684508Y-82788769D01*
X105704754Y-82749034D01*
X105767990Y-82554417D01*
X105800000Y-82352317D01*
X105800000Y-82147682D01*
X105767990Y-81945582D01*
X105704755Y-81750968D01*
X105611859Y-81568650D01*
X105579474Y-81524077D01*
X105579474Y-81524076D01*
X104900000Y-82203551D01*
X104900000Y-82197339D01*
X104872741Y-82095606D01*
X104820080Y-82004394D01*
X104745606Y-81929920D01*
X104654394Y-81877259D01*
X104552661Y-81850000D01*
X104546446Y-81850000D01*
X105225922Y-81170524D01*
X105225028Y-81159171D01*
X105201130Y-81128179D01*
X105195151Y-81058566D01*
X105227757Y-80996771D01*
X105288596Y-80962413D01*
X105303418Y-80959902D01*
X105357483Y-80954091D01*
X105492331Y-80903796D01*
X105607546Y-80817546D01*
X105693796Y-80702331D01*
X105744091Y-80567483D01*
X105750500Y-80507873D01*
X105750500Y-80196153D01*
X117024500Y-80196153D01*
X117024500Y-80353846D01*
X117055261Y-80508489D01*
X117055264Y-80508501D01*
X117115602Y-80654172D01*
X117115609Y-80654185D01*
X117203210Y-80785288D01*
X117203213Y-80785292D01*
X117314707Y-80896786D01*
X117314711Y-80896789D01*
X117445814Y-80984390D01*
X117445827Y-80984397D01*
X117589796Y-81044030D01*
X117591503Y-81044737D01*
X117746153Y-81075499D01*
X117746156Y-81075500D01*
X117746158Y-81075500D01*
X117903844Y-81075500D01*
X117903845Y-81075499D01*
X118058497Y-81044737D01*
X118204179Y-80984394D01*
X118335289Y-80896789D01*
X118446789Y-80785289D01*
X118534394Y-80654179D01*
X118594737Y-80508497D01*
X118625500Y-80353842D01*
X118625500Y-80196158D01*
X118625500Y-80196155D01*
X118625499Y-80196154D01*
X118622516Y-80181158D01*
X118622515Y-80181153D01*
X121574500Y-80181153D01*
X121574500Y-80338846D01*
X121605261Y-80493489D01*
X121605264Y-80493501D01*
X121665602Y-80639172D01*
X121665609Y-80639185D01*
X121753210Y-80770288D01*
X121753213Y-80770292D01*
X121864707Y-80881786D01*
X121864711Y-80881789D01*
X121995814Y-80969390D01*
X121995827Y-80969397D01*
X122061915Y-80996771D01*
X122141503Y-81029737D01*
X122286435Y-81058566D01*
X122296153Y-81060499D01*
X122296156Y-81060500D01*
X122296158Y-81060500D01*
X122453844Y-81060500D01*
X122453845Y-81060499D01*
X122608497Y-81029737D01*
X122754179Y-80969394D01*
X122885289Y-80881789D01*
X122996789Y-80770289D01*
X123084394Y-80639179D01*
X123144737Y-80493497D01*
X123175500Y-80338842D01*
X123175500Y-80181158D01*
X123175500Y-80181155D01*
X123175499Y-80181153D01*
X123147722Y-80041510D01*
X123144737Y-80026503D01*
X123090610Y-79895827D01*
X123084397Y-79880827D01*
X123084390Y-79880814D01*
X122996789Y-79749711D01*
X122996786Y-79749707D01*
X122885292Y-79638213D01*
X122885288Y-79638210D01*
X122754185Y-79550609D01*
X122754172Y-79550602D01*
X122608501Y-79490264D01*
X122608489Y-79490261D01*
X122453845Y-79459500D01*
X122453842Y-79459500D01*
X122296158Y-79459500D01*
X122296155Y-79459500D01*
X122141510Y-79490261D01*
X122141498Y-79490264D01*
X121995827Y-79550602D01*
X121995814Y-79550609D01*
X121864711Y-79638210D01*
X121864707Y-79638213D01*
X121753213Y-79749707D01*
X121753210Y-79749711D01*
X121665609Y-79880814D01*
X121665602Y-79880827D01*
X121605264Y-80026498D01*
X121605261Y-80026510D01*
X121574500Y-80181153D01*
X118622515Y-80181153D01*
X118594737Y-80041503D01*
X118588522Y-80026498D01*
X118534397Y-79895827D01*
X118534390Y-79895814D01*
X118446789Y-79764711D01*
X118446786Y-79764707D01*
X118335292Y-79653213D01*
X118335288Y-79653210D01*
X118204185Y-79565609D01*
X118204172Y-79565602D01*
X118058501Y-79505264D01*
X118058489Y-79505261D01*
X117903845Y-79474500D01*
X117903842Y-79474500D01*
X117746158Y-79474500D01*
X117746155Y-79474500D01*
X117591510Y-79505261D01*
X117591498Y-79505264D01*
X117445827Y-79565602D01*
X117445814Y-79565609D01*
X117314711Y-79653210D01*
X117314707Y-79653213D01*
X117203213Y-79764707D01*
X117203210Y-79764711D01*
X117115609Y-79895814D01*
X117115602Y-79895827D01*
X117055264Y-80041498D01*
X117055261Y-80041510D01*
X117024500Y-80196153D01*
X105750500Y-80196153D01*
X105750499Y-79653213D01*
X105750499Y-78912129D01*
X105750498Y-78912123D01*
X105750497Y-78912116D01*
X105744091Y-78852517D01*
X105693796Y-78717669D01*
X105693795Y-78717668D01*
X105693793Y-78717664D01*
X105607547Y-78602455D01*
X105607544Y-78602452D01*
X105492335Y-78516206D01*
X105492328Y-78516202D01*
X105357482Y-78465908D01*
X105357483Y-78465908D01*
X105304165Y-78460176D01*
X105239614Y-78433438D01*
X105199766Y-78376045D01*
X105197273Y-78306220D01*
X105232926Y-78246131D01*
X105244537Y-78236568D01*
X105347215Y-78161969D01*
X105347215Y-78161968D01*
X105347219Y-78161966D01*
X105491966Y-78017219D01*
X105491968Y-78017215D01*
X105491971Y-78017213D01*
X105544732Y-77944590D01*
X105612287Y-77851610D01*
X105705220Y-77669219D01*
X105768477Y-77474534D01*
X105800500Y-77272352D01*
X105800500Y-77067648D01*
X105768477Y-76865466D01*
X105705220Y-76670781D01*
X105705218Y-76670778D01*
X105705218Y-76670776D01*
X105629797Y-76522756D01*
X105612287Y-76488390D01*
X105604556Y-76477749D01*
X105491971Y-76322786D01*
X105347213Y-76178028D01*
X105181613Y-76057715D01*
X105181612Y-76057714D01*
X105181610Y-76057713D01*
X105124653Y-76028691D01*
X104999223Y-75964781D01*
X104804534Y-75901522D01*
X104629995Y-75873878D01*
X104602352Y-75869500D01*
X104397648Y-75869500D01*
X104373329Y-75873351D01*
X104195465Y-75901522D01*
X104000776Y-75964781D01*
X103818386Y-76057715D01*
X103652786Y-76178028D01*
X103508028Y-76322786D01*
X103387715Y-76488386D01*
X103294781Y-76670776D01*
X103231522Y-76865465D01*
X103199500Y-77067648D01*
X102700500Y-77067648D01*
X102700500Y-71891153D01*
X148699500Y-71891153D01*
X148699500Y-72048846D01*
X148730261Y-72203489D01*
X148730264Y-72203501D01*
X148790602Y-72349172D01*
X148790609Y-72349185D01*
X148878210Y-72480288D01*
X148878213Y-72480292D01*
X148989707Y-72591786D01*
X148989711Y-72591789D01*
X149120814Y-72679390D01*
X149120827Y-72679397D01*
X149266498Y-72739735D01*
X149266503Y-72739737D01*
X149421153Y-72770499D01*
X149421156Y-72770500D01*
X149421158Y-72770500D01*
X149578844Y-72770500D01*
X149578845Y-72770499D01*
X149733497Y-72739737D01*
X149879179Y-72679394D01*
X150010289Y-72591789D01*
X150121789Y-72480289D01*
X150209394Y-72349179D01*
X150269737Y-72203497D01*
X150300500Y-72048842D01*
X150300500Y-71891158D01*
X150300500Y-71891155D01*
X150300499Y-71891153D01*
X150269738Y-71736510D01*
X150269737Y-71736503D01*
X150269735Y-71736498D01*
X150209397Y-71590827D01*
X150209390Y-71590814D01*
X150121789Y-71459711D01*
X150121786Y-71459707D01*
X150010292Y-71348213D01*
X150010288Y-71348210D01*
X149879185Y-71260609D01*
X149879172Y-71260602D01*
X149733501Y-71200264D01*
X149733489Y-71200261D01*
X149578845Y-71169500D01*
X149578842Y-71169500D01*
X149421158Y-71169500D01*
X149421155Y-71169500D01*
X149266510Y-71200261D01*
X149266498Y-71200264D01*
X149120827Y-71260602D01*
X149120814Y-71260609D01*
X148989711Y-71348210D01*
X148989707Y-71348213D01*
X148878213Y-71459707D01*
X148878210Y-71459711D01*
X148790609Y-71590814D01*
X148790602Y-71590827D01*
X148730264Y-71736498D01*
X148730261Y-71736510D01*
X148699500Y-71891153D01*
X102700500Y-71891153D01*
X102700500Y-69531153D01*
X134019500Y-69531153D01*
X134019500Y-69688846D01*
X134050261Y-69843489D01*
X134050264Y-69843501D01*
X134110602Y-69989172D01*
X134110609Y-69989185D01*
X134198210Y-70120288D01*
X134198213Y-70120292D01*
X134309707Y-70231786D01*
X134309711Y-70231789D01*
X134440814Y-70319390D01*
X134440827Y-70319397D01*
X134586498Y-70379735D01*
X134586503Y-70379737D01*
X134741153Y-70410499D01*
X134741156Y-70410500D01*
X134741158Y-70410500D01*
X134898844Y-70410500D01*
X134898845Y-70410499D01*
X135053497Y-70379737D01*
X135199179Y-70319394D01*
X135330289Y-70231789D01*
X135441789Y-70120289D01*
X135529394Y-69989179D01*
X135589737Y-69843497D01*
X135620500Y-69688842D01*
X135620500Y-69531158D01*
X135620500Y-69531155D01*
X135620499Y-69531153D01*
X135589738Y-69376510D01*
X135589737Y-69376503D01*
X135589735Y-69376498D01*
X135529397Y-69230827D01*
X135529390Y-69230814D01*
X135441789Y-69099711D01*
X135441786Y-69099707D01*
X135330292Y-68988213D01*
X135330288Y-68988210D01*
X135199185Y-68900609D01*
X135199172Y-68900602D01*
X135053501Y-68840264D01*
X135053489Y-68840261D01*
X134898845Y-68809500D01*
X134898842Y-68809500D01*
X134741158Y-68809500D01*
X134741155Y-68809500D01*
X134586510Y-68840261D01*
X134586498Y-68840264D01*
X134440827Y-68900602D01*
X134440814Y-68900609D01*
X134309711Y-68988210D01*
X134309707Y-68988213D01*
X134198213Y-69099707D01*
X134198210Y-69099711D01*
X134110609Y-69230814D01*
X134110602Y-69230827D01*
X134050264Y-69376498D01*
X134050261Y-69376510D01*
X134019500Y-69531153D01*
X102700500Y-69531153D01*
X102700500Y-66002561D01*
X102700606Y-65997437D01*
X102705104Y-65888691D01*
X102705106Y-65888646D01*
X117375000Y-65888646D01*
X117409584Y-66062512D01*
X117409586Y-66062520D01*
X117477428Y-66226307D01*
X117477433Y-66226316D01*
X117575923Y-66373716D01*
X117575926Y-66373720D01*
X117701279Y-66499073D01*
X117701283Y-66499076D01*
X117848683Y-66597566D01*
X117848693Y-66597571D01*
X118012476Y-66665412D01*
X118012483Y-66665415D01*
X118025000Y-66667904D01*
X118025000Y-65800000D01*
X117375000Y-65800000D01*
X117375000Y-65888646D01*
X102705106Y-65888646D01*
X102717705Y-65583993D01*
X102718548Y-65573824D01*
X102727716Y-65500272D01*
X118025000Y-65500272D01*
X118025000Y-65599728D01*
X118063060Y-65691614D01*
X118133386Y-65761940D01*
X118225272Y-65800000D01*
X118324728Y-65800000D01*
X118416614Y-65761940D01*
X118486940Y-65691614D01*
X118525000Y-65599728D01*
X118525000Y-66667903D01*
X118537516Y-66665415D01*
X118537523Y-66665412D01*
X118701306Y-66597571D01*
X118701315Y-66597566D01*
X118830659Y-66511141D01*
X118897336Y-66490263D01*
X118964716Y-66508747D01*
X118968441Y-66511141D01*
X119097791Y-66597571D01*
X119098453Y-66598013D01*
X119098455Y-66598014D01*
X119098459Y-66598016D01*
X119208214Y-66643477D01*
X119262334Y-66665894D01*
X119262336Y-66665894D01*
X119262341Y-66665896D01*
X119436304Y-66700499D01*
X119436307Y-66700500D01*
X119436309Y-66700500D01*
X119613693Y-66700500D01*
X119613694Y-66700499D01*
X119671682Y-66688964D01*
X119787658Y-66665896D01*
X119787661Y-66665894D01*
X119787666Y-66665894D01*
X119951547Y-66598013D01*
X120081109Y-66511442D01*
X120147786Y-66490564D01*
X120215166Y-66509048D01*
X120218891Y-66511442D01*
X120348447Y-66598009D01*
X120348453Y-66598013D01*
X120348455Y-66598014D01*
X120348459Y-66598016D01*
X120458214Y-66643477D01*
X120512334Y-66665894D01*
X120512336Y-66665894D01*
X120512341Y-66665896D01*
X120686304Y-66700499D01*
X120686307Y-66700500D01*
X120686309Y-66700500D01*
X120863693Y-66700500D01*
X120863694Y-66700499D01*
X120921682Y-66688964D01*
X121037658Y-66665896D01*
X121037661Y-66665894D01*
X121037666Y-66665894D01*
X121201547Y-66598013D01*
X121258838Y-66559731D01*
X121325510Y-66538854D01*
X121391873Y-66556716D01*
X121535394Y-66643478D01*
X121697804Y-66694086D01*
X121768384Y-66700500D01*
X121768387Y-66700500D01*
X122281613Y-66700500D01*
X122281616Y-66700500D01*
X122352196Y-66694086D01*
X122514606Y-66643478D01*
X122660185Y-66555472D01*
X122780472Y-66435185D01*
X122868478Y-66289606D01*
X122919086Y-66127196D01*
X122925500Y-66056616D01*
X122925500Y-65043384D01*
X122919086Y-64972804D01*
X122868478Y-64810394D01*
X122780472Y-64664815D01*
X122780470Y-64664813D01*
X122780469Y-64664811D01*
X122660188Y-64544530D01*
X122589820Y-64501991D01*
X122514606Y-64456522D01*
X122352196Y-64405914D01*
X122352194Y-64405913D01*
X122352192Y-64405913D01*
X122302778Y-64401423D01*
X122281616Y-64399500D01*
X121768384Y-64399500D01*
X121749145Y-64401248D01*
X121697807Y-64405913D01*
X121535391Y-64456523D01*
X121391875Y-64543281D01*
X121324321Y-64561117D01*
X121258834Y-64540265D01*
X121201555Y-64501991D01*
X121201540Y-64501983D01*
X121037667Y-64434106D01*
X121037658Y-64434103D01*
X120863694Y-64399500D01*
X120863691Y-64399500D01*
X120686309Y-64399500D01*
X120686306Y-64399500D01*
X120512341Y-64434103D01*
X120512332Y-64434106D01*
X120348459Y-64501983D01*
X120348446Y-64501990D01*
X120218891Y-64588557D01*
X120152213Y-64609435D01*
X120084833Y-64590950D01*
X120081109Y-64588557D01*
X119951553Y-64501990D01*
X119951540Y-64501983D01*
X119787667Y-64434106D01*
X119787658Y-64434103D01*
X119613694Y-64399500D01*
X119613691Y-64399500D01*
X119436309Y-64399500D01*
X119436306Y-64399500D01*
X119262341Y-64434103D01*
X119262332Y-64434106D01*
X119098459Y-64501983D01*
X119098446Y-64501990D01*
X118968441Y-64588858D01*
X118901764Y-64609736D01*
X118834383Y-64591252D01*
X118830659Y-64588858D01*
X118701316Y-64502433D01*
X118701307Y-64502428D01*
X118537519Y-64434585D01*
X118525000Y-64432094D01*
X118525000Y-65500272D01*
X118486940Y-65408386D01*
X118416614Y-65338060D01*
X118324728Y-65300000D01*
X118225272Y-65300000D01*
X118133386Y-65338060D01*
X118063060Y-65408386D01*
X118025000Y-65500272D01*
X102727716Y-65500272D01*
X102763730Y-65211353D01*
X117375000Y-65211353D01*
X117375000Y-65300000D01*
X118025000Y-65300000D01*
X118025000Y-64432095D01*
X118024999Y-64432094D01*
X118012480Y-64434585D01*
X117848692Y-64502428D01*
X117848683Y-64502433D01*
X117701283Y-64600923D01*
X117701279Y-64600926D01*
X117575926Y-64726279D01*
X117575923Y-64726283D01*
X117477433Y-64873683D01*
X117477428Y-64873692D01*
X117409586Y-65037479D01*
X117409584Y-65037487D01*
X117375000Y-65211353D01*
X102763730Y-65211353D01*
X102769418Y-65165723D01*
X102771104Y-65155627D01*
X102843491Y-64810394D01*
X102855491Y-64753163D01*
X102858006Y-64743232D01*
X102881353Y-64664811D01*
X102975348Y-64349085D01*
X102978663Y-64339433D01*
X103128152Y-63956324D01*
X103132268Y-63946943D01*
X103312866Y-63577524D01*
X103317743Y-63568510D01*
X103528256Y-63215224D01*
X103533849Y-63206664D01*
X103772809Y-62871979D01*
X103779077Y-62863925D01*
X104044871Y-62550104D01*
X104051790Y-62542588D01*
X104342588Y-62251790D01*
X104350104Y-62244871D01*
X104663925Y-61979077D01*
X104671979Y-61972809D01*
X105006664Y-61733849D01*
X105015224Y-61728256D01*
X105368518Y-61517738D01*
X105377516Y-61512870D01*
X105746946Y-61332266D01*
X105756328Y-61328151D01*
X106139433Y-61178663D01*
X106149085Y-61175348D01*
X106543237Y-61058004D01*
X106553163Y-61055491D01*
X106955631Y-60971103D01*
X106965731Y-60969417D01*
X107373824Y-60918548D01*
X107383993Y-60917705D01*
X107797437Y-60900605D01*
X107802561Y-60900500D01*
X107865892Y-60900500D01*
X164534108Y-60900500D01*
X164597439Y-60900500D01*
X164602562Y-60900605D01*
G37*
%TD.AperFunction*%
%TD*%
M02*
