%TF.GenerationSoftware,KiCad,Pcbnew,10.0.6*%
%TF.CreationDate,2026-09-21T01:43:10+02:00*%
%TF.ProjectId,Phil's_Lab#11,5068696c-2773-45f4-9c61-622331312e6b,rev?*%
%TF.SameCoordinates,Original*%
%TF.FileFunction,Copper,L4,Bot*%
%TF.FilePolarity,Positive*%
%FSLAX46Y46*%
G04 Gerber Fmt 4.6, Leading zero omitted, Abs format (unit mm)*
G04 Created by KiCad (PCBNEW 10.0.6) date 2026-09-21 01:43:10*
%MOMM*%
%LPD*%
G01*
G04 APERTURE LIST*
G04 Aperture macros list*
%AMRoundRect*
0 Rectangle with rounded corners*
0 $1 Rounding radius*
0 $2 $3 $4 $5 $6 $7 $8 $9 X,Y pos of 4 corners*
0 Add a 4 corners polygon primitive as box body*
4,1,4,$2,$3,$4,$5,$6,$7,$8,$9,$2,$3,0*
0 Add four circle primitives for the rounded corners*
1,1,$1+$1,$2,$3*
1,1,$1+$1,$4,$5*
1,1,$1+$1,$6,$7*
1,1,$1+$1,$8,$9*
0 Add four rect primitives between the rounded corners*
20,1,$1+$1,$2,$3,$4,$5,0*
20,1,$1+$1,$4,$5,$6,$7,0*
20,1,$1+$1,$6,$7,$8,$9,0*
20,1,$1+$1,$8,$9,$2,$3,0*%
G04 Aperture macros list end*
%TA.AperFunction,ComponentPad*%
%ADD10C,0.900000*%
%TD*%
%TA.AperFunction,ComponentPad*%
%ADD11C,8.600000*%
%TD*%
%TA.AperFunction,ComponentPad*%
%ADD12RoundRect,0.200000X0.200000X0.450000X-0.200000X0.450000X-0.200000X-0.450000X0.200000X-0.450000X0*%
%TD*%
%TA.AperFunction,ComponentPad*%
%ADD13O,0.800000X1.300000*%
%TD*%
%TA.AperFunction,ComponentPad*%
%ADD14RoundRect,0.200000X-0.200000X-0.450000X0.200000X-0.450000X0.200000X0.450000X-0.200000X0.450000X0*%
%TD*%
%TA.AperFunction,ComponentPad*%
%ADD15RoundRect,0.250001X0.949999X-0.949999X0.949999X0.949999X-0.949999X0.949999X-0.949999X-0.949999X0*%
%TD*%
%TA.AperFunction,ComponentPad*%
%ADD16C,2.400000*%
%TD*%
%TA.AperFunction,ComponentPad*%
%ADD17O,1.600000X0.900000*%
%TD*%
%TA.AperFunction,ComponentPad*%
%ADD18R,1.500000X1.500000*%
%TD*%
%TA.AperFunction,ComponentPad*%
%ADD19C,1.600000*%
%TD*%
%TA.AperFunction,ViaPad*%
%ADD20C,0.600000*%
%TD*%
%TA.AperFunction,Conductor*%
%ADD21C,0.400000*%
%TD*%
%TA.AperFunction,Conductor*%
%ADD22C,0.300000*%
%TD*%
G04 APERTURE END LIST*
D10*
%TO.P,H3,1,1_1*%
%TO.N,GND*%
X104550000Y-112000000D03*
X105494581Y-109719581D03*
X105494581Y-114280419D03*
X107775000Y-108775000D03*
D11*
X107775000Y-112000000D03*
D10*
X107775000Y-115225000D03*
X110055419Y-109719581D03*
X110055419Y-114280419D03*
X111000000Y-112000000D03*
%TD*%
D12*
%TO.P,J3,1,Pin_1_1*%
%TO.N,+3.3V*%
X122025000Y-65550000D03*
D13*
%TO.P,J3,2,Pin_2_2*%
%TO.N,I2C1_SCL*%
X120775000Y-65550000D03*
%TO.P,J3,3,Pin_3_3*%
%TO.N,I2C1_SDA*%
X119525000Y-65550000D03*
%TO.P,J3,4,Pin_4_4*%
%TO.N,GND*%
X118275000Y-65550000D03*
%TD*%
D14*
%TO.P,J4,1,Pin_1_1*%
%TO.N,+3.3V*%
X118250000Y-112500000D03*
D13*
%TO.P,J4,2,Pin_2_2*%
%TO.N,USART3_TX*%
X119500000Y-112500000D03*
%TO.P,J4,3,Pin_3_3*%
%TO.N,USART3_RX*%
X120750000Y-112500000D03*
%TO.P,J4,4,Pin_4_4*%
%TO.N,GND*%
X122000000Y-112500000D03*
%TD*%
D10*
%TO.P,H4,1,1_1*%
%TO.N,GND*%
X104575000Y-66000000D03*
X105519581Y-63719581D03*
X105519581Y-68280419D03*
X107800000Y-62775000D03*
D11*
X107800000Y-66000000D03*
D10*
X107800000Y-69225000D03*
X110080419Y-63719581D03*
X110080419Y-68280419D03*
X111025000Y-66000000D03*
%TD*%
%TO.P,H2,1,1_1*%
%TO.N,GND*%
X161375000Y-112000000D03*
X162319581Y-109719581D03*
X162319581Y-114280419D03*
X164600000Y-108775000D03*
D11*
X164600000Y-112000000D03*
D10*
X164600000Y-115225000D03*
X166880419Y-109719581D03*
X166880419Y-114280419D03*
X167825000Y-112000000D03*
%TD*%
D15*
%TO.P,J1,1,Pin_1_1*%
%TO.N,+12V*%
X163700000Y-97375000D03*
D16*
%TO.P,J1,2,Pin_2_2*%
%TO.N,GND*%
X163700000Y-93875000D03*
%TD*%
D10*
%TO.P,H1,1,1_1*%
%TO.N,GND*%
X161375000Y-66000000D03*
X162319581Y-63719581D03*
X162319581Y-68280419D03*
X164600000Y-62775000D03*
D11*
X164600000Y-66000000D03*
D10*
X164600000Y-69225000D03*
X166880419Y-63719581D03*
X166880419Y-68280419D03*
X167825000Y-66000000D03*
%TD*%
D17*
%TO.P,J5,SH*%
%TO.N,N/C*%
X168700000Y-83400000D03*
X168700000Y-76800000D03*
%TD*%
D18*
%TO.P,SW1,1,A_1*%
%TO.N,+3.3V*%
X104500000Y-79710000D03*
D19*
%TO.P,SW1,2,B_2*%
%TO.N,Net-(SW1-B)*%
X104500000Y-77170000D03*
%TO.P,SW1,3,C_3*%
%TO.N,GND*%
X104500000Y-82250000D03*
%TD*%
D20*
%TO.N,GND*%
X134150000Y-94320000D03*
X157610000Y-90910000D03*
X118040000Y-83100000D03*
X127490000Y-97300000D03*
X160620000Y-78330000D03*
X112970000Y-86490000D03*
X141830000Y-112630000D03*
X127620000Y-84910000D03*
X157600000Y-92980000D03*
X128800000Y-85170000D03*
X158030000Y-100120000D03*
X157250000Y-99420000D03*
X147240000Y-94000000D03*
X164220000Y-78010000D03*
X129740000Y-69620000D03*
X154570000Y-96230000D03*
X163410000Y-78800000D03*
X112830000Y-83710000D03*
X147240000Y-96400000D03*
X164220000Y-78800000D03*
X112470000Y-92150000D03*
X106070000Y-90600000D03*
X107450000Y-93310000D03*
X112400000Y-97130000D03*
X156130000Y-96230000D03*
X113560000Y-92140000D03*
X108410000Y-85690000D03*
X150180000Y-99190000D03*
X140070000Y-112620000D03*
X163410000Y-78010000D03*
X132280000Y-69630000D03*
X117000000Y-98690000D03*
X141830000Y-115310000D03*
X124900000Y-101230000D03*
X133560000Y-69630000D03*
X134150000Y-92780000D03*
X110540000Y-88400000D03*
X150180000Y-101110000D03*
X140080000Y-115310000D03*
X147500000Y-73090000D03*
%TO.N,+3.3V*%
X134950000Y-107570000D03*
X110550000Y-94680000D03*
X115130000Y-82930000D03*
X112960000Y-87450000D03*
X134950000Y-109620000D03*
X117825000Y-80275000D03*
X141050000Y-109630000D03*
X153300000Y-102480000D03*
X125950000Y-97910000D03*
X141050000Y-107580000D03*
X119120000Y-98690000D03*
X122375000Y-80260000D03*
X152520000Y-101780000D03*
X137120000Y-115300000D03*
X149500000Y-71970000D03*
X138880000Y-112630000D03*
X127740000Y-86310000D03*
X137120000Y-112630000D03*
X134950000Y-108600000D03*
X109310000Y-94680000D03*
X134820000Y-69610000D03*
X141050000Y-108610000D03*
X138880000Y-115300000D03*
%TO.N,NRST*%
X123575000Y-84055000D03*
X120635000Y-86995000D03*
%TD*%
%TO.N,GND*%
D21*
X160620000Y-78330000D02*
X160620000Y-78240000D01*
%TO.N,NRST*%
D22*
X120635000Y-86995000D02*
X123575000Y-84055000D01*
%TD*%
M02*
