M48
; DRILL file KiCad 10.0.6 date 2026-09-21T01:42:40
; FORMAT={-:-/ absolute / metric / decimal}
; #@! TF.CreationDate,2026-09-21T01:42:40+02:00
; #@! TF.GenerationSoftware,Kicad,Pcbnew,10.0.6
; #@! TF.FileFunction,Plated,1,4,PTH
FMAT,2
METRIC
; #@! TA.AperFunction,Plated,PTH,ViaDrill
T1C0.300
; #@! TA.AperFunction,Plated,PTH,ComponentDrill
T2C0.500
; #@! TA.AperFunction,Plated,PTH,ComponentDrill
T3C0.600
; #@! TA.AperFunction,Plated,PTH,ComponentDrill
T4C0.800
; #@! TA.AperFunction,Plated,PTH,ComponentDrill
T5C1.200
; #@! TA.AperFunction,Plated,PTH,ComponentDrill
T6C4.300
%
G90
G05
T1
X106.07Y-90.6
X107.45Y-93.31
X108.41Y-85.69
X109.31Y-94.68
X110.54Y-88.4
X110.55Y-94.68
X112.4Y-97.13
X112.47Y-92.15
X112.83Y-83.71
X112.96Y-87.45
X112.97Y-86.49
X113.56Y-92.14
X115.13Y-82.93
X117.0Y-98.69
X117.825Y-80.275
X118.04Y-83.1
X119.12Y-98.69
X120.635Y-86.995
X122.375Y-80.26
X123.575Y-84.055
X124.9Y-101.23
X125.95Y-97.91
X127.49Y-97.3
X127.62Y-84.91
X127.74Y-86.31
X128.8Y-85.17
X129.74Y-69.62
X132.28Y-69.63
X133.56Y-69.63
X134.15Y-92.78
X134.15Y-94.32
X134.82Y-69.61
X134.95Y-107.57
X134.95Y-108.6
X134.95Y-109.62
X137.12Y-112.63
X137.12Y-115.3
X138.88Y-112.63
X138.88Y-115.3
X140.07Y-112.62
X140.08Y-115.31
X141.05Y-107.58
X141.05Y-108.61
X141.05Y-109.63
X141.83Y-112.63
X141.83Y-115.31
X147.24Y-94.0
X147.24Y-96.4
X147.5Y-73.09
X149.5Y-71.97
X150.18Y-99.19
X150.18Y-101.11
X152.52Y-101.78
X153.3Y-102.48
X154.57Y-96.23
X156.13Y-96.23
X157.25Y-99.42
X157.6Y-92.98
X157.61Y-90.91
X158.03Y-100.12
X160.62Y-78.33
X163.41Y-78.01
X163.41Y-78.8
X164.22Y-78.01
X164.22Y-78.8
T2
X118.25Y-112.5
X118.275Y-65.55
X119.5Y-112.5
X119.525Y-65.55
X120.75Y-112.5
X120.775Y-65.55
X122.0Y-112.5
X122.025Y-65.55
T3
X104.55Y-112.0
X104.575Y-66.0
X105.495Y-109.72
X105.495Y-114.28
X105.52Y-63.72
X105.52Y-68.28
X107.775Y-108.775
X107.775Y-115.225
X107.8Y-62.775
X107.8Y-69.225
X110.055Y-109.72
X110.055Y-114.28
X110.08Y-63.72
X110.08Y-68.28
X111.0Y-112.0
X111.025Y-66.0
X161.375Y-66.0
X161.375Y-112.0
X162.32Y-63.72
X162.32Y-68.28
X162.32Y-109.72
X162.32Y-114.28
X164.6Y-62.775
X164.6Y-69.225
X164.6Y-108.775
X164.6Y-115.225
X166.88Y-63.72
X166.88Y-68.28
X166.88Y-109.72
X166.88Y-114.28
X167.825Y-66.0
X167.825Y-112.0
T4
X104.5Y-77.17
X104.5Y-79.71
X104.5Y-82.25
T5
X163.7Y-93.875
X163.7Y-97.375
T6
X107.775Y-112.0
X107.8Y-66.0
X164.6Y-66.0
X164.6Y-112.0
T2
G00X169.05Y-76.8
M15
G01X168.35Y-76.8
M16
G05
G00X169.05Y-83.4
M15
G01X168.35Y-83.4
M16
G05
M30
