%TF.GenerationSoftware,KiCad,Pcbnew,10.0.6*%
%TF.CreationDate,2026-09-21T01:43:10+02:00*%
%TF.ProjectId,Phil's_Lab#11,5068696c-2773-45f4-9c61-622331312e6b,rev?*%
%TF.SameCoordinates,Original*%
%TF.FileFunction,Legend,Top*%
%TF.FilePolarity,Positive*%
%FSLAX46Y46*%
G04 Gerber Fmt 4.6, Leading zero omitted, Abs format (unit mm)*
G04 Created by KiCad (PCBNEW 10.0.6) date 2026-09-21 01:43:10*
%MOMM*%
%LPD*%
G01*
G04 APERTURE LIST*
%ADD10C,0.100000*%
%ADD11C,0.150000*%
%ADD12C,0.120000*%
G04 APERTURE END LIST*
D10*
X136450000Y-71070000D02*
X136690000Y-70860000D01*
X136690000Y-70980000D01*
X136990000Y-70980000D01*
X136990000Y-71130000D01*
X136690000Y-71130000D01*
X136690000Y-71260000D01*
X136450000Y-71070000D01*
G36*
X136690000Y-70980000D02*
G01*
X136990000Y-70980000D01*
X136990000Y-71130000D01*
X136690000Y-71130000D01*
X136690000Y-71260000D01*
X136450000Y-71070000D01*
X136690000Y-70860000D01*
X136690000Y-70980000D01*
G37*
D11*
X113822969Y-100479819D02*
X113346779Y-100479819D01*
X113346779Y-100479819D02*
X113346779Y-99479819D01*
X114156303Y-99956009D02*
X114489636Y-99956009D01*
X114632493Y-100479819D02*
X114156303Y-100479819D01*
X114156303Y-100479819D02*
X114156303Y-99479819D01*
X114156303Y-99479819D02*
X114632493Y-99479819D01*
X115061065Y-100479819D02*
X115061065Y-99479819D01*
X115061065Y-99479819D02*
X115299160Y-99479819D01*
X115299160Y-99479819D02*
X115442017Y-99527438D01*
X115442017Y-99527438D02*
X115537255Y-99622676D01*
X115537255Y-99622676D02*
X115584874Y-99717914D01*
X115584874Y-99717914D02*
X115632493Y-99908390D01*
X115632493Y-99908390D02*
X115632493Y-100051247D01*
X115632493Y-100051247D02*
X115584874Y-100241723D01*
X115584874Y-100241723D02*
X115537255Y-100336961D01*
X115537255Y-100336961D02*
X115442017Y-100432200D01*
X115442017Y-100432200D02*
X115299160Y-100479819D01*
X115299160Y-100479819D02*
X115061065Y-100479819D01*
X115366779Y-98468866D02*
X116128684Y-98468866D01*
X115747731Y-98849819D02*
X115747731Y-98087914D01*
X130116779Y-68499819D02*
X130116779Y-67499819D01*
X130116779Y-67499819D02*
X130354874Y-67499819D01*
X130354874Y-67499819D02*
X130497731Y-67547438D01*
X130497731Y-67547438D02*
X130592969Y-67642676D01*
X130592969Y-67642676D02*
X130640588Y-67737914D01*
X130640588Y-67737914D02*
X130688207Y-67928390D01*
X130688207Y-67928390D02*
X130688207Y-68071247D01*
X130688207Y-68071247D02*
X130640588Y-68261723D01*
X130640588Y-68261723D02*
X130592969Y-68356961D01*
X130592969Y-68356961D02*
X130497731Y-68452200D01*
X130497731Y-68452200D02*
X130354874Y-68499819D01*
X130354874Y-68499819D02*
X130116779Y-68499819D01*
X131116779Y-67976009D02*
X131450112Y-67976009D01*
X131592969Y-68499819D02*
X131116779Y-68499819D01*
X131116779Y-68499819D02*
X131116779Y-67499819D01*
X131116779Y-67499819D02*
X131592969Y-67499819D01*
X132354874Y-67976009D02*
X132497731Y-68023628D01*
X132497731Y-68023628D02*
X132545350Y-68071247D01*
X132545350Y-68071247D02*
X132592969Y-68166485D01*
X132592969Y-68166485D02*
X132592969Y-68309342D01*
X132592969Y-68309342D02*
X132545350Y-68404580D01*
X132545350Y-68404580D02*
X132497731Y-68452200D01*
X132497731Y-68452200D02*
X132402493Y-68499819D01*
X132402493Y-68499819D02*
X132021541Y-68499819D01*
X132021541Y-68499819D02*
X132021541Y-67499819D01*
X132021541Y-67499819D02*
X132354874Y-67499819D01*
X132354874Y-67499819D02*
X132450112Y-67547438D01*
X132450112Y-67547438D02*
X132497731Y-67595057D01*
X132497731Y-67595057D02*
X132545350Y-67690295D01*
X132545350Y-67690295D02*
X132545350Y-67785533D01*
X132545350Y-67785533D02*
X132497731Y-67880771D01*
X132497731Y-67880771D02*
X132450112Y-67928390D01*
X132450112Y-67928390D02*
X132354874Y-67976009D01*
X132354874Y-67976009D02*
X132021541Y-67976009D01*
X133021541Y-67499819D02*
X133021541Y-68309342D01*
X133021541Y-68309342D02*
X133069160Y-68404580D01*
X133069160Y-68404580D02*
X133116779Y-68452200D01*
X133116779Y-68452200D02*
X133212017Y-68499819D01*
X133212017Y-68499819D02*
X133402493Y-68499819D01*
X133402493Y-68499819D02*
X133497731Y-68452200D01*
X133497731Y-68452200D02*
X133545350Y-68404580D01*
X133545350Y-68404580D02*
X133592969Y-68309342D01*
X133592969Y-68309342D02*
X133592969Y-67499819D01*
X134592969Y-67547438D02*
X134497731Y-67499819D01*
X134497731Y-67499819D02*
X134354874Y-67499819D01*
X134354874Y-67499819D02*
X134212017Y-67547438D01*
X134212017Y-67547438D02*
X134116779Y-67642676D01*
X134116779Y-67642676D02*
X134069160Y-67737914D01*
X134069160Y-67737914D02*
X134021541Y-67928390D01*
X134021541Y-67928390D02*
X134021541Y-68071247D01*
X134021541Y-68071247D02*
X134069160Y-68261723D01*
X134069160Y-68261723D02*
X134116779Y-68356961D01*
X134116779Y-68356961D02*
X134212017Y-68452200D01*
X134212017Y-68452200D02*
X134354874Y-68499819D01*
X134354874Y-68499819D02*
X134450112Y-68499819D01*
X134450112Y-68499819D02*
X134592969Y-68452200D01*
X134592969Y-68452200D02*
X134640588Y-68404580D01*
X134640588Y-68404580D02*
X134640588Y-68071247D01*
X134640588Y-68071247D02*
X134450112Y-68071247D01*
X148942493Y-115899819D02*
X148942493Y-116614104D01*
X148942493Y-116614104D02*
X148894874Y-116756961D01*
X148894874Y-116756961D02*
X148799636Y-116852200D01*
X148799636Y-116852200D02*
X148656779Y-116899819D01*
X148656779Y-116899819D02*
X148561541Y-116899819D01*
X149894874Y-116899819D02*
X149418684Y-116899819D01*
X149418684Y-116899819D02*
X149418684Y-115899819D01*
X150799636Y-116804580D02*
X150752017Y-116852200D01*
X150752017Y-116852200D02*
X150609160Y-116899819D01*
X150609160Y-116899819D02*
X150513922Y-116899819D01*
X150513922Y-116899819D02*
X150371065Y-116852200D01*
X150371065Y-116852200D02*
X150275827Y-116756961D01*
X150275827Y-116756961D02*
X150228208Y-116661723D01*
X150228208Y-116661723D02*
X150180589Y-116471247D01*
X150180589Y-116471247D02*
X150180589Y-116328390D01*
X150180589Y-116328390D02*
X150228208Y-116137914D01*
X150228208Y-116137914D02*
X150275827Y-116042676D01*
X150275827Y-116042676D02*
X150371065Y-115947438D01*
X150371065Y-115947438D02*
X150513922Y-115899819D01*
X150513922Y-115899819D02*
X150609160Y-115899819D01*
X150609160Y-115899819D02*
X150752017Y-115947438D01*
X150752017Y-115947438D02*
X150799636Y-115995057D01*
X151513922Y-115899819D02*
X151513922Y-116614104D01*
X151513922Y-116614104D02*
X151466303Y-116756961D01*
X151466303Y-116756961D02*
X151371065Y-116852200D01*
X151371065Y-116852200D02*
X151228208Y-116899819D01*
X151228208Y-116899819D02*
X151132970Y-116899819D01*
X152466303Y-116899819D02*
X151990113Y-116899819D01*
X151990113Y-116899819D02*
X151990113Y-115899819D01*
X153371065Y-116804580D02*
X153323446Y-116852200D01*
X153323446Y-116852200D02*
X153180589Y-116899819D01*
X153180589Y-116899819D02*
X153085351Y-116899819D01*
X153085351Y-116899819D02*
X152942494Y-116852200D01*
X152942494Y-116852200D02*
X152847256Y-116756961D01*
X152847256Y-116756961D02*
X152799637Y-116661723D01*
X152799637Y-116661723D02*
X152752018Y-116471247D01*
X152752018Y-116471247D02*
X152752018Y-116328390D01*
X152752018Y-116328390D02*
X152799637Y-116137914D01*
X152799637Y-116137914D02*
X152847256Y-116042676D01*
X152847256Y-116042676D02*
X152942494Y-115947438D01*
X152942494Y-115947438D02*
X153085351Y-115899819D01*
X153085351Y-115899819D02*
X153180589Y-115899819D01*
X153180589Y-115899819D02*
X153323446Y-115947438D01*
X153323446Y-115947438D02*
X153371065Y-115995057D01*
X154085351Y-115899819D02*
X154085351Y-116614104D01*
X154085351Y-116614104D02*
X154037732Y-116756961D01*
X154037732Y-116756961D02*
X153942494Y-116852200D01*
X153942494Y-116852200D02*
X153799637Y-116899819D01*
X153799637Y-116899819D02*
X153704399Y-116899819D01*
X155037732Y-116899819D02*
X154561542Y-116899819D01*
X154561542Y-116899819D02*
X154561542Y-115899819D01*
X155942494Y-116804580D02*
X155894875Y-116852200D01*
X155894875Y-116852200D02*
X155752018Y-116899819D01*
X155752018Y-116899819D02*
X155656780Y-116899819D01*
X155656780Y-116899819D02*
X155513923Y-116852200D01*
X155513923Y-116852200D02*
X155418685Y-116756961D01*
X155418685Y-116756961D02*
X155371066Y-116661723D01*
X155371066Y-116661723D02*
X155323447Y-116471247D01*
X155323447Y-116471247D02*
X155323447Y-116328390D01*
X155323447Y-116328390D02*
X155371066Y-116137914D01*
X155371066Y-116137914D02*
X155418685Y-116042676D01*
X155418685Y-116042676D02*
X155513923Y-115947438D01*
X155513923Y-115947438D02*
X155656780Y-115899819D01*
X155656780Y-115899819D02*
X155752018Y-115899819D01*
X155752018Y-115899819D02*
X155894875Y-115947438D01*
X155894875Y-115947438D02*
X155942494Y-115995057D01*
X156656780Y-115899819D02*
X156656780Y-116614104D01*
X156656780Y-116614104D02*
X156609161Y-116756961D01*
X156609161Y-116756961D02*
X156513923Y-116852200D01*
X156513923Y-116852200D02*
X156371066Y-116899819D01*
X156371066Y-116899819D02*
X156275828Y-116899819D01*
X157609161Y-116899819D02*
X157132971Y-116899819D01*
X157132971Y-116899819D02*
X157132971Y-115899819D01*
X158513923Y-116804580D02*
X158466304Y-116852200D01*
X158466304Y-116852200D02*
X158323447Y-116899819D01*
X158323447Y-116899819D02*
X158228209Y-116899819D01*
X158228209Y-116899819D02*
X158085352Y-116852200D01*
X158085352Y-116852200D02*
X157990114Y-116756961D01*
X157990114Y-116756961D02*
X157942495Y-116661723D01*
X157942495Y-116661723D02*
X157894876Y-116471247D01*
X157894876Y-116471247D02*
X157894876Y-116328390D01*
X157894876Y-116328390D02*
X157942495Y-116137914D01*
X157942495Y-116137914D02*
X157990114Y-116042676D01*
X157990114Y-116042676D02*
X158085352Y-115947438D01*
X158085352Y-115947438D02*
X158228209Y-115899819D01*
X158228209Y-115899819D02*
X158323447Y-115899819D01*
X158323447Y-115899819D02*
X158466304Y-115947438D01*
X158466304Y-115947438D02*
X158513923Y-115995057D01*
X149176779Y-75568866D02*
X149938684Y-75568866D01*
X149557731Y-75949819D02*
X149557731Y-75187914D01*
X161976779Y-91409819D02*
X161976779Y-90409819D01*
X161976779Y-90409819D02*
X162357731Y-90409819D01*
X162357731Y-90409819D02*
X162452969Y-90457438D01*
X162452969Y-90457438D02*
X162500588Y-90505057D01*
X162500588Y-90505057D02*
X162548207Y-90600295D01*
X162548207Y-90600295D02*
X162548207Y-90743152D01*
X162548207Y-90743152D02*
X162500588Y-90838390D01*
X162500588Y-90838390D02*
X162452969Y-90886009D01*
X162452969Y-90886009D02*
X162357731Y-90933628D01*
X162357731Y-90933628D02*
X161976779Y-90933628D01*
X163167255Y-90409819D02*
X163357731Y-90409819D01*
X163357731Y-90409819D02*
X163452969Y-90457438D01*
X163452969Y-90457438D02*
X163548207Y-90552676D01*
X163548207Y-90552676D02*
X163595826Y-90743152D01*
X163595826Y-90743152D02*
X163595826Y-91076485D01*
X163595826Y-91076485D02*
X163548207Y-91266961D01*
X163548207Y-91266961D02*
X163452969Y-91362200D01*
X163452969Y-91362200D02*
X163357731Y-91409819D01*
X163357731Y-91409819D02*
X163167255Y-91409819D01*
X163167255Y-91409819D02*
X163072017Y-91362200D01*
X163072017Y-91362200D02*
X162976779Y-91266961D01*
X162976779Y-91266961D02*
X162929160Y-91076485D01*
X162929160Y-91076485D02*
X162929160Y-90743152D01*
X162929160Y-90743152D02*
X162976779Y-90552676D01*
X162976779Y-90552676D02*
X163072017Y-90457438D01*
X163072017Y-90457438D02*
X163167255Y-90409819D01*
X163929160Y-90409819D02*
X164167255Y-91409819D01*
X164167255Y-91409819D02*
X164357731Y-90695533D01*
X164357731Y-90695533D02*
X164548207Y-91409819D01*
X164548207Y-91409819D02*
X164786303Y-90409819D01*
X165167255Y-90886009D02*
X165500588Y-90886009D01*
X165643445Y-91409819D02*
X165167255Y-91409819D01*
X165167255Y-91409819D02*
X165167255Y-90409819D01*
X165167255Y-90409819D02*
X165643445Y-90409819D01*
X166643445Y-91409819D02*
X166310112Y-90933628D01*
X166072017Y-91409819D02*
X166072017Y-90409819D01*
X166072017Y-90409819D02*
X166452969Y-90409819D01*
X166452969Y-90409819D02*
X166548207Y-90457438D01*
X166548207Y-90457438D02*
X166595826Y-90505057D01*
X166595826Y-90505057D02*
X166643445Y-90600295D01*
X166643445Y-90600295D02*
X166643445Y-90743152D01*
X166643445Y-90743152D02*
X166595826Y-90838390D01*
X166595826Y-90838390D02*
X166548207Y-90886009D01*
X166548207Y-90886009D02*
X166452969Y-90933628D01*
X166452969Y-90933628D02*
X166072017Y-90933628D01*
X162256779Y-88908866D02*
X163018684Y-88908866D01*
X162637731Y-89289819D02*
X162637731Y-88527914D01*
X164086779Y-100138866D02*
X164848684Y-100138866D01*
X164467731Y-100519819D02*
X164467731Y-99757914D01*
X166376779Y-84969819D02*
X166376779Y-85779342D01*
X166376779Y-85779342D02*
X166424398Y-85874580D01*
X166424398Y-85874580D02*
X166472017Y-85922200D01*
X166472017Y-85922200D02*
X166567255Y-85969819D01*
X166567255Y-85969819D02*
X166757731Y-85969819D01*
X166757731Y-85969819D02*
X166852969Y-85922200D01*
X166852969Y-85922200D02*
X166900588Y-85874580D01*
X166900588Y-85874580D02*
X166948207Y-85779342D01*
X166948207Y-85779342D02*
X166948207Y-84969819D01*
X167376779Y-85922200D02*
X167519636Y-85969819D01*
X167519636Y-85969819D02*
X167757731Y-85969819D01*
X167757731Y-85969819D02*
X167852969Y-85922200D01*
X167852969Y-85922200D02*
X167900588Y-85874580D01*
X167900588Y-85874580D02*
X167948207Y-85779342D01*
X167948207Y-85779342D02*
X167948207Y-85684104D01*
X167948207Y-85684104D02*
X167900588Y-85588866D01*
X167900588Y-85588866D02*
X167852969Y-85541247D01*
X167852969Y-85541247D02*
X167757731Y-85493628D01*
X167757731Y-85493628D02*
X167567255Y-85446009D01*
X167567255Y-85446009D02*
X167472017Y-85398390D01*
X167472017Y-85398390D02*
X167424398Y-85350771D01*
X167424398Y-85350771D02*
X167376779Y-85255533D01*
X167376779Y-85255533D02*
X167376779Y-85160295D01*
X167376779Y-85160295D02*
X167424398Y-85065057D01*
X167424398Y-85065057D02*
X167472017Y-85017438D01*
X167472017Y-85017438D02*
X167567255Y-84969819D01*
X167567255Y-84969819D02*
X167805350Y-84969819D01*
X167805350Y-84969819D02*
X167948207Y-85017438D01*
X168710112Y-85446009D02*
X168852969Y-85493628D01*
X168852969Y-85493628D02*
X168900588Y-85541247D01*
X168900588Y-85541247D02*
X168948207Y-85636485D01*
X168948207Y-85636485D02*
X168948207Y-85779342D01*
X168948207Y-85779342D02*
X168900588Y-85874580D01*
X168900588Y-85874580D02*
X168852969Y-85922200D01*
X168852969Y-85922200D02*
X168757731Y-85969819D01*
X168757731Y-85969819D02*
X168376779Y-85969819D01*
X168376779Y-85969819D02*
X168376779Y-84969819D01*
X168376779Y-84969819D02*
X168710112Y-84969819D01*
X168710112Y-84969819D02*
X168805350Y-85017438D01*
X168805350Y-85017438D02*
X168852969Y-85065057D01*
X168852969Y-85065057D02*
X168900588Y-85160295D01*
X168900588Y-85160295D02*
X168900588Y-85255533D01*
X168900588Y-85255533D02*
X168852969Y-85350771D01*
X168852969Y-85350771D02*
X168805350Y-85398390D01*
X168805350Y-85398390D02*
X168710112Y-85446009D01*
X168710112Y-85446009D02*
X168376779Y-85446009D01*
X115947819Y-64941220D02*
X114947819Y-64941220D01*
X115043057Y-64512649D02*
X114995438Y-64465030D01*
X114995438Y-64465030D02*
X114947819Y-64369792D01*
X114947819Y-64369792D02*
X114947819Y-64131697D01*
X114947819Y-64131697D02*
X114995438Y-64036459D01*
X114995438Y-64036459D02*
X115043057Y-63988840D01*
X115043057Y-63988840D02*
X115138295Y-63941221D01*
X115138295Y-63941221D02*
X115233533Y-63941221D01*
X115233533Y-63941221D02*
X115376390Y-63988840D01*
X115376390Y-63988840D02*
X115947819Y-64560268D01*
X115947819Y-64560268D02*
X115947819Y-63941221D01*
X115852580Y-62941221D02*
X115900200Y-62988840D01*
X115900200Y-62988840D02*
X115947819Y-63131697D01*
X115947819Y-63131697D02*
X115947819Y-63226935D01*
X115947819Y-63226935D02*
X115900200Y-63369792D01*
X115900200Y-63369792D02*
X115804961Y-63465030D01*
X115804961Y-63465030D02*
X115709723Y-63512649D01*
X115709723Y-63512649D02*
X115519247Y-63560268D01*
X115519247Y-63560268D02*
X115376390Y-63560268D01*
X115376390Y-63560268D02*
X115185914Y-63512649D01*
X115185914Y-63512649D02*
X115090676Y-63465030D01*
X115090676Y-63465030D02*
X114995438Y-63369792D01*
X114995438Y-63369792D02*
X114947819Y-63226935D01*
X114947819Y-63226935D02*
X114947819Y-63131697D01*
X114947819Y-63131697D02*
X114995438Y-62988840D01*
X114995438Y-62988840D02*
X115043057Y-62941221D01*
X114947819Y-115868220D02*
X115757342Y-115868220D01*
X115757342Y-115868220D02*
X115852580Y-115820601D01*
X115852580Y-115820601D02*
X115900200Y-115772982D01*
X115900200Y-115772982D02*
X115947819Y-115677744D01*
X115947819Y-115677744D02*
X115947819Y-115487268D01*
X115947819Y-115487268D02*
X115900200Y-115392030D01*
X115900200Y-115392030D02*
X115852580Y-115344411D01*
X115852580Y-115344411D02*
X115757342Y-115296792D01*
X115757342Y-115296792D02*
X114947819Y-115296792D01*
X115662104Y-114868220D02*
X115662104Y-114392030D01*
X115947819Y-114963458D02*
X114947819Y-114630125D01*
X114947819Y-114630125D02*
X115947819Y-114296792D01*
X115947819Y-113392030D02*
X115471628Y-113725363D01*
X115947819Y-113963458D02*
X114947819Y-113963458D01*
X114947819Y-113963458D02*
X114947819Y-113582506D01*
X114947819Y-113582506D02*
X114995438Y-113487268D01*
X114995438Y-113487268D02*
X115043057Y-113439649D01*
X115043057Y-113439649D02*
X115138295Y-113392030D01*
X115138295Y-113392030D02*
X115281152Y-113392030D01*
X115281152Y-113392030D02*
X115376390Y-113439649D01*
X115376390Y-113439649D02*
X115424009Y-113487268D01*
X115424009Y-113487268D02*
X115471628Y-113582506D01*
X115471628Y-113582506D02*
X115471628Y-113963458D01*
X114947819Y-113106315D02*
X114947819Y-112534887D01*
X115947819Y-112820601D02*
X114947819Y-112820601D01*
X150761819Y-74942458D02*
X150761819Y-74323411D01*
X150761819Y-74323411D02*
X151142771Y-74656744D01*
X151142771Y-74656744D02*
X151142771Y-74513887D01*
X151142771Y-74513887D02*
X151190390Y-74418649D01*
X151190390Y-74418649D02*
X151238009Y-74371030D01*
X151238009Y-74371030D02*
X151333247Y-74323411D01*
X151333247Y-74323411D02*
X151571342Y-74323411D01*
X151571342Y-74323411D02*
X151666580Y-74371030D01*
X151666580Y-74371030D02*
X151714200Y-74418649D01*
X151714200Y-74418649D02*
X151761819Y-74513887D01*
X151761819Y-74513887D02*
X151761819Y-74799601D01*
X151761819Y-74799601D02*
X151714200Y-74894839D01*
X151714200Y-74894839D02*
X151666580Y-74942458D01*
X151666580Y-73894839D02*
X151714200Y-73847220D01*
X151714200Y-73847220D02*
X151761819Y-73894839D01*
X151761819Y-73894839D02*
X151714200Y-73942458D01*
X151714200Y-73942458D02*
X151666580Y-73894839D01*
X151666580Y-73894839D02*
X151761819Y-73894839D01*
X150761819Y-73513887D02*
X150761819Y-72894840D01*
X150761819Y-72894840D02*
X151142771Y-73228173D01*
X151142771Y-73228173D02*
X151142771Y-73085316D01*
X151142771Y-73085316D02*
X151190390Y-72990078D01*
X151190390Y-72990078D02*
X151238009Y-72942459D01*
X151238009Y-72942459D02*
X151333247Y-72894840D01*
X151333247Y-72894840D02*
X151571342Y-72894840D01*
X151571342Y-72894840D02*
X151666580Y-72942459D01*
X151666580Y-72942459D02*
X151714200Y-72990078D01*
X151714200Y-72990078D02*
X151761819Y-73085316D01*
X151761819Y-73085316D02*
X151761819Y-73371030D01*
X151761819Y-73371030D02*
X151714200Y-73466268D01*
X151714200Y-73466268D02*
X151666580Y-73513887D01*
X150761819Y-72609125D02*
X151761819Y-72275792D01*
X151761819Y-72275792D02*
X150761819Y-71942459D01*
X106913990Y-78580112D02*
X106866371Y-78722969D01*
X106866371Y-78722969D02*
X106818752Y-78770588D01*
X106818752Y-78770588D02*
X106723514Y-78818207D01*
X106723514Y-78818207D02*
X106580657Y-78818207D01*
X106580657Y-78818207D02*
X106485419Y-78770588D01*
X106485419Y-78770588D02*
X106437800Y-78722969D01*
X106437800Y-78722969D02*
X106390180Y-78627731D01*
X106390180Y-78627731D02*
X106390180Y-78246779D01*
X106390180Y-78246779D02*
X107390180Y-78246779D01*
X107390180Y-78246779D02*
X107390180Y-78580112D01*
X107390180Y-78580112D02*
X107342561Y-78675350D01*
X107342561Y-78675350D02*
X107294942Y-78722969D01*
X107294942Y-78722969D02*
X107199704Y-78770588D01*
X107199704Y-78770588D02*
X107104466Y-78770588D01*
X107104466Y-78770588D02*
X107009228Y-78722969D01*
X107009228Y-78722969D02*
X106961609Y-78675350D01*
X106961609Y-78675350D02*
X106913990Y-78580112D01*
X106913990Y-78580112D02*
X106913990Y-78246779D01*
X107390180Y-79437255D02*
X107390180Y-79627731D01*
X107390180Y-79627731D02*
X107342561Y-79722969D01*
X107342561Y-79722969D02*
X107247323Y-79818207D01*
X107247323Y-79818207D02*
X107056847Y-79865826D01*
X107056847Y-79865826D02*
X106723514Y-79865826D01*
X106723514Y-79865826D02*
X106533038Y-79818207D01*
X106533038Y-79818207D02*
X106437800Y-79722969D01*
X106437800Y-79722969D02*
X106390180Y-79627731D01*
X106390180Y-79627731D02*
X106390180Y-79437255D01*
X106390180Y-79437255D02*
X106437800Y-79342017D01*
X106437800Y-79342017D02*
X106533038Y-79246779D01*
X106533038Y-79246779D02*
X106723514Y-79199160D01*
X106723514Y-79199160D02*
X107056847Y-79199160D01*
X107056847Y-79199160D02*
X107247323Y-79246779D01*
X107247323Y-79246779D02*
X107342561Y-79342017D01*
X107342561Y-79342017D02*
X107390180Y-79437255D01*
X107390180Y-80484874D02*
X107390180Y-80675350D01*
X107390180Y-80675350D02*
X107342561Y-80770588D01*
X107342561Y-80770588D02*
X107247323Y-80865826D01*
X107247323Y-80865826D02*
X107056847Y-80913445D01*
X107056847Y-80913445D02*
X106723514Y-80913445D01*
X106723514Y-80913445D02*
X106533038Y-80865826D01*
X106533038Y-80865826D02*
X106437800Y-80770588D01*
X106437800Y-80770588D02*
X106390180Y-80675350D01*
X106390180Y-80675350D02*
X106390180Y-80484874D01*
X106390180Y-80484874D02*
X106437800Y-80389636D01*
X106437800Y-80389636D02*
X106533038Y-80294398D01*
X106533038Y-80294398D02*
X106723514Y-80246779D01*
X106723514Y-80246779D02*
X107056847Y-80246779D01*
X107056847Y-80246779D02*
X107247323Y-80294398D01*
X107247323Y-80294398D02*
X107342561Y-80389636D01*
X107342561Y-80389636D02*
X107390180Y-80484874D01*
X107390180Y-81199160D02*
X107390180Y-81770588D01*
X106390180Y-81484874D02*
X107390180Y-81484874D01*
%TO.C,C13*%
D12*
X149418752Y-94290000D02*
X147996248Y-94290000D01*
X149418752Y-96110000D02*
X147996248Y-96110000D01*
%TO.C,C9*%
X112100000Y-93327836D02*
X112100000Y-93112164D01*
X112820000Y-93327836D02*
X112820000Y-93112164D01*
%TO.C,C4*%
X118167836Y-98330000D02*
X117952164Y-98330000D01*
X118167836Y-99050000D02*
X117952164Y-99050000D01*
%TO.C,D4*%
X113605000Y-96867500D02*
X113605000Y-99152500D01*
X113605000Y-99152500D02*
X115075000Y-99152500D01*
X115075000Y-99152500D02*
X115075000Y-96867500D01*
%TO.C,FB1*%
X152372500Y-92237878D02*
X152372500Y-93037122D01*
X153492500Y-92237878D02*
X153492500Y-93037122D01*
%TO.C,U2*%
X148622500Y-98102500D02*
X148672500Y-98102500D01*
X148622500Y-99922500D02*
X148622500Y-98102500D01*
X148672500Y-99922500D02*
X148622500Y-99922500D01*
X151692500Y-98102500D02*
X151742500Y-98102500D01*
X151742500Y-98102500D02*
X151742500Y-99922500D01*
X151742500Y-99922500D02*
X151692500Y-99922500D01*
X148672500Y-100462500D02*
X148342500Y-100702500D01*
X148342500Y-100222500D01*
X148672500Y-100462500D01*
G36*
X148672500Y-100462500D02*
G01*
X148342500Y-100702500D01*
X148342500Y-100222500D01*
X148672500Y-100462500D01*
G37*
%TO.C,R8*%
X152777500Y-101187258D02*
X152777500Y-100712742D01*
X153822500Y-101187258D02*
X153822500Y-100712742D01*
%TO.C,R7*%
X156727500Y-101187258D02*
X156727500Y-100712742D01*
X157772500Y-101187258D02*
X157772500Y-100712742D01*
%TO.C,R4*%
X154827500Y-97287258D02*
X154827500Y-96812742D01*
X155872500Y-97287258D02*
X155872500Y-96812742D01*
%TO.C,R1*%
X108538641Y-76795000D02*
X108231359Y-76795000D01*
X108538641Y-77555000D02*
X108231359Y-77555000D01*
%TO.C,C11*%
X107822164Y-86250000D02*
X108037836Y-86250000D01*
X107822164Y-86970000D02*
X108037836Y-86970000D01*
%TO.C,D5*%
X148765000Y-72700000D02*
X148765000Y-74985000D01*
X148765000Y-74985000D02*
X150235000Y-74985000D01*
X150235000Y-74985000D02*
X150235000Y-72700000D01*
%TO.C,J3*%
X116665000Y-60990000D02*
X120150000Y-60990000D01*
X116665000Y-66710000D02*
X116665000Y-60990000D01*
X117735000Y-66410000D02*
X117735000Y-66710000D01*
X117735000Y-66710000D02*
X116665000Y-66710000D01*
X120150000Y-66410000D02*
X117735000Y-66410000D01*
X120150000Y-66410000D02*
X122565000Y-66410000D01*
X122275000Y-66700000D02*
X122275000Y-67000000D01*
X122275000Y-67000000D02*
X122775000Y-67000000D01*
X122565000Y-66410000D02*
X122565000Y-66710000D01*
X122565000Y-66710000D02*
X123635000Y-66710000D01*
X123635000Y-60990000D02*
X120150000Y-60990000D01*
X123635000Y-66710000D02*
X123635000Y-60990000D01*
%TO.C,Y1*%
X106590000Y-87440000D02*
X106590000Y-91560000D01*
X110010000Y-87440000D02*
X106590000Y-87440000D01*
%TO.C,J4*%
X116640000Y-111340000D02*
X116640000Y-117060000D01*
X116640000Y-117060000D02*
X120125000Y-117060000D01*
X117710000Y-111340000D02*
X116640000Y-111340000D01*
X117710000Y-111640000D02*
X117710000Y-111340000D01*
X118000000Y-111050000D02*
X117500000Y-111050000D01*
X118000000Y-111350000D02*
X118000000Y-111050000D01*
X120125000Y-111640000D02*
X117710000Y-111640000D01*
X120125000Y-111640000D02*
X122540000Y-111640000D01*
X122540000Y-111340000D02*
X123610000Y-111340000D01*
X122540000Y-111640000D02*
X122540000Y-111340000D01*
X123610000Y-111340000D02*
X123610000Y-117060000D01*
X123610000Y-117060000D02*
X120125000Y-117060000D01*
%TO.C,R2*%
X111613641Y-90220000D02*
X111306359Y-90220000D01*
X111613641Y-90980000D02*
X111306359Y-90980000D01*
%TO.C,F1*%
X154934564Y-88002500D02*
X153730436Y-88002500D01*
X154934564Y-89822500D02*
X153730436Y-89822500D01*
%TO.C,Q1*%
X155097500Y-92127500D02*
X155147500Y-92127500D01*
X155097500Y-93647500D02*
X155097500Y-92127500D01*
X156097500Y-93647500D02*
X155097500Y-93647500D01*
X156267500Y-92127500D02*
X157047500Y-92127500D01*
X158167500Y-92127500D02*
X158217500Y-92127500D01*
X158217500Y-92127500D02*
X158217500Y-93647500D01*
X158217500Y-93647500D02*
X157217500Y-93647500D01*
X157037500Y-91587500D02*
X156707500Y-91827500D01*
X156707500Y-91347500D01*
X157037500Y-91587500D01*
G36*
X157037500Y-91587500D02*
G01*
X156707500Y-91827500D01*
X156707500Y-91347500D01*
X157037500Y-91587500D01*
G37*
%TO.C,C10*%
X113200000Y-93317836D02*
X113200000Y-93102164D01*
X113920000Y-93317836D02*
X113920000Y-93102164D01*
%TO.C,C7*%
X126770000Y-85937836D02*
X126770000Y-85722164D01*
X127490000Y-85937836D02*
X127490000Y-85722164D01*
%TO.C,D3*%
X157372500Y-87912500D02*
X157372500Y-89912500D01*
X157372500Y-87912500D02*
X161382500Y-87912500D01*
X157372500Y-89912500D02*
X161382500Y-89912500D01*
%TO.C,D2*%
X138735000Y-92550000D02*
X134725000Y-92550000D01*
X138735000Y-94550000D02*
X134725000Y-94550000D01*
X138735000Y-94550000D02*
X138735000Y-92550000D01*
%TO.C,C15*%
X138763748Y-111715000D02*
X140186252Y-111715000D01*
X138763748Y-113535000D02*
X140186252Y-113535000D01*
%TO.C,C5*%
X126322164Y-96940000D02*
X126537836Y-96940000D01*
X126322164Y-97660000D02*
X126537836Y-97660000D01*
%TO.C,R10*%
X121443641Y-79880000D02*
X121136359Y-79880000D01*
X121443641Y-80640000D02*
X121136359Y-80640000D01*
%TO.C,R6*%
X154727500Y-100712742D02*
X154727500Y-101187258D01*
X155772500Y-100712742D02*
X155772500Y-101187258D01*
%TO.C,J1*%
X160480000Y-92005000D02*
X168320000Y-92005000D01*
X160480000Y-99245000D02*
X160480000Y-92005000D01*
X166700000Y-99245000D02*
X166700000Y-92005000D01*
X167800000Y-99245000D02*
X167800000Y-92005000D01*
X168320000Y-92005000D02*
X168320000Y-97075000D01*
X168320000Y-97675000D02*
X168320000Y-99245000D01*
X168320000Y-99245000D02*
X160480000Y-99245000D01*
X168320000Y-97375000D02*
X168930000Y-96935000D01*
X168930000Y-97815000D01*
X168320000Y-97375000D01*
G36*
X168930000Y-97815000D02*
G01*
X168320000Y-97375000D01*
X168930000Y-96935000D01*
X168930000Y-97815000D01*
G37*
%TO.C,C1*%
X128290000Y-86840580D02*
X128290000Y-86559420D01*
X129310000Y-86840580D02*
X129310000Y-86559420D01*
%TO.C,R9*%
X118756359Y-79900000D02*
X119063641Y-79900000D01*
X118756359Y-80660000D02*
X119063641Y-80660000D01*
%TO.C,C2*%
X124390000Y-99559420D02*
X124390000Y-99840580D01*
X125410000Y-99559420D02*
X125410000Y-99840580D01*
%TO.C,R5*%
X152777500Y-96812742D02*
X152777500Y-97287258D01*
X153822500Y-96812742D02*
X153822500Y-97287258D01*
%TO.C,J5*%
X165090000Y-81200000D02*
X165090000Y-81860000D01*
X165290000Y-75840000D02*
X169650000Y-75840000D01*
X165290000Y-78340000D02*
X165290000Y-75840000D01*
X165290000Y-81860000D02*
X165090000Y-81860000D01*
X165290000Y-84360000D02*
X165290000Y-81860000D01*
X165290000Y-84360000D02*
X169650000Y-84360000D01*
%TO.C,U1*%
X115965000Y-86090000D02*
X116915000Y-86090000D01*
X115965000Y-87040000D02*
X115965000Y-86090000D01*
X115965000Y-96310000D02*
X115965000Y-95360000D01*
X116915000Y-96310000D02*
X115965000Y-96310000D01*
X125235000Y-86090000D02*
X126185000Y-86090000D01*
X126185000Y-86090000D02*
X126185000Y-87040000D01*
X126185000Y-95360000D02*
X126185000Y-96310000D01*
X126185000Y-96310000D02*
X125235000Y-96310000D01*
X115325000Y-87040000D02*
X114985000Y-86570000D01*
X115665000Y-86570000D01*
X115325000Y-87040000D01*
G36*
X115325000Y-87040000D02*
G01*
X114985000Y-86570000D01*
X115665000Y-86570000D01*
X115325000Y-87040000D01*
G37*
%TO.C,C8*%
X113220000Y-87077836D02*
X113220000Y-86862164D01*
X113940000Y-87077836D02*
X113940000Y-86862164D01*
%TO.C,C16*%
X138763748Y-114390000D02*
X140186252Y-114390000D01*
X138763748Y-116210000D02*
X140186252Y-116210000D01*
%TO.C,U3*%
X159715000Y-78865000D02*
X161535000Y-78865000D01*
X159715000Y-78915000D02*
X159715000Y-78865000D01*
X159715000Y-81985000D02*
X159715000Y-81935000D01*
X161535000Y-78865000D02*
X161535000Y-78915000D01*
X161535000Y-81935000D02*
X161535000Y-81985000D01*
X161535000Y-81985000D02*
X159715000Y-81985000D01*
X162075000Y-81935000D02*
X162315000Y-82265000D01*
X161835000Y-82265000D01*
X162075000Y-81935000D01*
G36*
X162315000Y-82265000D02*
G01*
X161835000Y-82265000D01*
X162075000Y-81935000D01*
X162315000Y-82265000D01*
G37*
%TO.C,C6*%
X117452164Y-83350000D02*
X117667836Y-83350000D01*
X117452164Y-84070000D02*
X117667836Y-84070000D01*
%TO.C,J2*%
X128995000Y-71285000D02*
X128995000Y-74915000D01*
X129060000Y-71285000D02*
X128995000Y-71285000D01*
X129060000Y-74915000D02*
X128995000Y-74915000D01*
X135500000Y-70010000D02*
X135500000Y-71285000D01*
X135565000Y-71285000D02*
X135500000Y-71285000D01*
X135565000Y-71285000D02*
X135565000Y-74915000D01*
X135565000Y-74915000D02*
X135500000Y-74915000D01*
%TO.C,C14*%
X145735000Y-99823752D02*
X145735000Y-98401248D01*
X147555000Y-99823752D02*
X147555000Y-98401248D01*
%TO.C,C12*%
X108037836Y-92030000D02*
X107822164Y-92030000D01*
X108037836Y-92750000D02*
X107822164Y-92750000D01*
%TO.C,SW1*%
X103140000Y-74600000D02*
X105860000Y-74600000D01*
X105860000Y-84820000D01*
X103140000Y-84820000D01*
X103140000Y-74600000D01*
%TO.C,C3*%
X114495580Y-83200000D02*
X114214420Y-83200000D01*
X114495580Y-84220000D02*
X114214420Y-84220000D01*
%TO.C,L2*%
X131490000Y-96365000D02*
X134990000Y-96365000D01*
X131490000Y-110035000D02*
X131490000Y-96365000D01*
X134990000Y-110035000D02*
X131490000Y-110035000D01*
X141010000Y-96365000D02*
X144510000Y-96365000D01*
X144510000Y-96365000D02*
X144510000Y-110035000D01*
X144510000Y-110035000D02*
X141010000Y-110035000D01*
%TD*%
M02*
