%TF.GenerationSoftware,KiCad,Pcbnew,10.0.6*%
%TF.CreationDate,2026-09-21T01:43:10+02:00*%
%TF.ProjectId,Phil's_Lab#11,5068696c-2773-45f4-9c61-622331312e6b,rev?*%
%TF.SameCoordinates,Original*%
%TF.FileFunction,Soldermask,Top*%
%TF.FilePolarity,Negative*%
%FSLAX46Y46*%
G04 Gerber Fmt 4.6, Leading zero omitted, Abs format (unit mm)*
G04 Created by KiCad (PCBNEW 10.0.6) date 2026-09-21 01:43:10*
%MOMM*%
%LPD*%
G01*
G04 APERTURE LIST*
G04 Aperture macros list*
%AMRoundRect*
0 Rectangle with rounded corners*
0 $1 Rounding radius*
0 $2 $3 $4 $5 $6 $7 $8 $9 X,Y pos of 4 corners*
0 Add a 4 corners polygon primitive as box body*
4,1,4,$2,$3,$4,$5,$6,$7,$8,$9,$2,$3,0*
0 Add four circle primitives for the rounded corners*
1,1,$1+$1,$2,$3*
1,1,$1+$1,$4,$5*
1,1,$1+$1,$6,$7*
1,1,$1+$1,$8,$9*
0 Add four rect primitives between the rounded corners*
20,1,$1+$1,$2,$3,$4,$5,0*
20,1,$1+$1,$4,$5,$6,$7,0*
20,1,$1+$1,$6,$7,$8,$9,0*
20,1,$1+$1,$8,$9,$2,$3,0*%
G04 Aperture macros list end*
%ADD10RoundRect,0.250000X0.325000X0.650000X-0.325000X0.650000X-0.325000X-0.650000X0.325000X-0.650000X0*%
%ADD11RoundRect,0.140000X0.170000X-0.140000X0.170000X0.140000X-0.170000X0.140000X-0.170000X-0.140000X0*%
%ADD12C,0.900000*%
%ADD13C,8.600000*%
%ADD14RoundRect,0.140000X0.140000X0.170000X-0.140000X0.170000X-0.140000X-0.170000X0.140000X-0.170000X0*%
%ADD15RoundRect,0.218750X0.256250X-0.218750X0.256250X0.218750X-0.256250X0.218750X-0.256250X-0.218750X0*%
%ADD16RoundRect,0.218750X-0.381250X0.218750X-0.381250X-0.218750X0.381250X-0.218750X0.381250X0.218750X0*%
%ADD17RoundRect,0.150000X0.150000X-0.512500X0.150000X0.512500X-0.150000X0.512500X-0.150000X-0.512500X0*%
%ADD18RoundRect,0.200000X0.275000X-0.200000X0.275000X0.200000X-0.275000X0.200000X-0.275000X-0.200000X0*%
%ADD19RoundRect,0.135000X0.135000X0.185000X-0.135000X0.185000X-0.135000X-0.185000X0.135000X-0.185000X0*%
%ADD20RoundRect,0.100000X0.100000X-0.130000X0.100000X0.130000X-0.100000X0.130000X-0.100000X-0.130000X0*%
%ADD21RoundRect,0.147500X0.172500X-0.147500X0.172500X0.147500X-0.172500X0.147500X-0.172500X-0.147500X0*%
%ADD22RoundRect,0.140000X-0.140000X-0.170000X0.140000X-0.170000X0.140000X0.170000X-0.140000X0.170000X0*%
%ADD23RoundRect,0.200000X0.200000X0.450000X-0.200000X0.450000X-0.200000X-0.450000X0.200000X-0.450000X0*%
%ADD24O,0.800000X1.300000*%
%ADD25RoundRect,0.250000X-0.350000X0.450000X-0.350000X-0.450000X0.350000X-0.450000X0.350000X0.450000X0*%
%ADD26RoundRect,0.200000X-0.200000X-0.450000X0.200000X-0.450000X0.200000X0.450000X-0.200000X0.450000X0*%
%ADD27RoundRect,0.250000X0.375000X0.625000X-0.375000X0.625000X-0.375000X-0.625000X0.375000X-0.625000X0*%
%ADD28RoundRect,0.150000X-0.150000X0.587500X-0.150000X-0.587500X0.150000X-0.587500X0.150000X0.587500X0*%
%ADD29RoundRect,0.225000X-0.225000X-0.375000X0.225000X-0.375000X0.225000X0.375000X-0.225000X0.375000X0*%
%ADD30RoundRect,0.225000X0.225000X0.375000X-0.225000X0.375000X-0.225000X-0.375000X0.225000X-0.375000X0*%
%ADD31RoundRect,0.250000X-0.325000X-0.650000X0.325000X-0.650000X0.325000X0.650000X-0.325000X0.650000X0*%
%ADD32RoundRect,0.200000X-0.275000X0.200000X-0.275000X-0.200000X0.275000X-0.200000X0.275000X0.200000X0*%
%ADD33RoundRect,0.250001X0.949999X-0.949999X0.949999X0.949999X-0.949999X0.949999X-0.949999X-0.949999X0*%
%ADD34C,2.400000*%
%ADD35RoundRect,0.225000X0.250000X-0.225000X0.250000X0.225000X-0.250000X0.225000X-0.250000X-0.225000X0*%
%ADD36RoundRect,0.135000X-0.135000X-0.185000X0.135000X-0.185000X0.135000X0.185000X-0.135000X0.185000X0*%
%ADD37RoundRect,0.225000X-0.250000X0.225000X-0.250000X-0.225000X0.250000X-0.225000X0.250000X0.225000X0*%
%ADD38RoundRect,0.100000X0.575000X-0.100000X0.575000X0.100000X-0.575000X0.100000X-0.575000X-0.100000X0*%
%ADD39O,1.600000X0.900000*%
%ADD40RoundRect,0.250000X0.450000X-0.550000X0.450000X0.550000X-0.450000X0.550000X-0.450000X-0.550000X0*%
%ADD41RoundRect,0.250000X0.700000X-0.700000X0.700000X0.700000X-0.700000X0.700000X-0.700000X-0.700000X0*%
%ADD42RoundRect,0.075000X-0.700000X-0.075000X0.700000X-0.075000X0.700000X0.075000X-0.700000X0.075000X0*%
%ADD43RoundRect,0.075000X-0.075000X-0.700000X0.075000X-0.700000X0.075000X0.700000X-0.075000X0.700000X0*%
%ADD44RoundRect,0.150000X0.512500X0.150000X-0.512500X0.150000X-0.512500X-0.150000X0.512500X-0.150000X0*%
%ADD45R,0.740000X2.400000*%
%ADD46RoundRect,0.250000X0.650000X-0.325000X0.650000X0.325000X-0.650000X0.325000X-0.650000X-0.325000X0*%
%ADD47R,1.500000X1.500000*%
%ADD48C,1.600000*%
%ADD49RoundRect,0.225000X0.225000X0.250000X-0.225000X0.250000X-0.225000X-0.250000X0.225000X-0.250000X0*%
%ADD50RoundRect,0.250000X-2.500000X1.375000X-2.500000X-1.375000X2.500000X-1.375000X2.500000X1.375000X0*%
G04 APERTURE END LIST*
D10*
%TO.C,C13*%
X150182500Y-95200000D03*
X147232500Y-95200000D03*
%TD*%
D11*
%TO.C,C9*%
X112460000Y-93700000D03*
X112460000Y-92740000D03*
%TD*%
D12*
%TO.C,H3*%
X104550000Y-112000000D03*
X105494581Y-109719581D03*
X105494581Y-114280419D03*
X107775000Y-108775000D03*
D13*
X107775000Y-112000000D03*
D12*
X107775000Y-115225000D03*
X110055419Y-109719581D03*
X110055419Y-114280419D03*
X111000000Y-112000000D03*
%TD*%
D14*
%TO.C,C4*%
X118540000Y-98690000D03*
X117580000Y-98690000D03*
%TD*%
D15*
%TO.C,D4*%
X114340000Y-98455000D03*
X114340000Y-96880000D03*
%TD*%
D16*
%TO.C,FB1*%
X152932500Y-91575000D03*
X152932500Y-93700000D03*
%TD*%
D17*
%TO.C,U2*%
X149232500Y-100150000D03*
X150182500Y-100150000D03*
X151132500Y-100150000D03*
X151132500Y-97875000D03*
X150182500Y-97875000D03*
X149232500Y-97875000D03*
%TD*%
D18*
%TO.C,R8*%
X153300000Y-101775000D03*
X153300000Y-100125000D03*
%TD*%
%TO.C,R7*%
X157250000Y-101775000D03*
X157250000Y-100125000D03*
%TD*%
%TO.C,R4*%
X155350000Y-97875000D03*
X155350000Y-96225000D03*
%TD*%
D19*
%TO.C,R1*%
X108895000Y-77175000D03*
X107875000Y-77175000D03*
%TD*%
D20*
%TO.C,R12*%
X147500000Y-74265000D03*
X147500000Y-73625000D03*
%TD*%
%TO.C,R11*%
X112400000Y-98300000D03*
X112400000Y-97660000D03*
%TD*%
D21*
%TO.C,L1*%
X109930000Y-94665000D03*
X109930000Y-93695000D03*
%TD*%
D22*
%TO.C,C11*%
X107450000Y-86610000D03*
X108410000Y-86610000D03*
%TD*%
D15*
%TO.C,D5*%
X149500000Y-74287500D03*
X149500000Y-72712500D03*
%TD*%
D23*
%TO.C,J3*%
X122025000Y-65550000D03*
D24*
X120775000Y-65550000D03*
X119525000Y-65550000D03*
X118275000Y-65550000D03*
%TD*%
D25*
%TO.C,Y1*%
X107450000Y-88400000D03*
X107450000Y-90600000D03*
X109150000Y-90600000D03*
X109150000Y-88400000D03*
%TD*%
D26*
%TO.C,J4*%
X118250000Y-112500000D03*
D24*
X119500000Y-112500000D03*
X120750000Y-112500000D03*
X122000000Y-112500000D03*
%TD*%
D19*
%TO.C,R2*%
X111970000Y-90600000D03*
X110950000Y-90600000D03*
%TD*%
D27*
%TO.C,F1*%
X155732500Y-88912500D03*
X152932500Y-88912500D03*
%TD*%
D28*
%TO.C,Q1*%
X157607500Y-91950000D03*
X155707500Y-91950000D03*
X156657500Y-93825000D03*
%TD*%
D12*
%TO.C,H4*%
X104575000Y-66000000D03*
X105519581Y-63719581D03*
X105519581Y-68280419D03*
X107800000Y-62775000D03*
D13*
X107800000Y-66000000D03*
D12*
X107800000Y-69225000D03*
X110080419Y-63719581D03*
X110080419Y-68280419D03*
X111025000Y-66000000D03*
%TD*%
D11*
%TO.C,C10*%
X113560000Y-93690000D03*
X113560000Y-92730000D03*
%TD*%
%TO.C,C7*%
X127130000Y-86310000D03*
X127130000Y-85350000D03*
%TD*%
D29*
%TO.C,D3*%
X158082500Y-88912500D03*
X161382500Y-88912500D03*
%TD*%
D30*
%TO.C,D2*%
X138025000Y-93550000D03*
X134725000Y-93550000D03*
%TD*%
D31*
%TO.C,C15*%
X138000000Y-112625000D03*
X140950000Y-112625000D03*
%TD*%
D12*
%TO.C,H2*%
X161375000Y-112000000D03*
X162319581Y-109719581D03*
X162319581Y-114280419D03*
X164600000Y-108775000D03*
D13*
X164600000Y-112000000D03*
D12*
X164600000Y-115225000D03*
X166880419Y-109719581D03*
X166880419Y-114280419D03*
X167825000Y-112000000D03*
%TD*%
D22*
%TO.C,C5*%
X125950000Y-97300000D03*
X126910000Y-97300000D03*
%TD*%
D19*
%TO.C,R10*%
X121800000Y-80260000D03*
X120780000Y-80260000D03*
%TD*%
D32*
%TO.C,R6*%
X155250000Y-100125000D03*
X155250000Y-101775000D03*
%TD*%
D33*
%TO.C,J1*%
X163700000Y-97375000D03*
D34*
X163700000Y-93875000D03*
%TD*%
D35*
%TO.C,C1*%
X128800000Y-87475000D03*
X128800000Y-85925000D03*
%TD*%
D12*
%TO.C,H1*%
X161375000Y-66000000D03*
X162319581Y-63719581D03*
X162319581Y-68280419D03*
X164600000Y-62775000D03*
D13*
X164600000Y-66000000D03*
D12*
X164600000Y-69225000D03*
X166880419Y-63719581D03*
X166880419Y-68280419D03*
X167825000Y-66000000D03*
%TD*%
D36*
%TO.C,R9*%
X118400000Y-80280000D03*
X119420000Y-80280000D03*
%TD*%
D37*
%TO.C,C2*%
X124900000Y-98925000D03*
X124900000Y-100475000D03*
%TD*%
D32*
%TO.C,R5*%
X153300000Y-96225000D03*
X153300000Y-97875000D03*
%TD*%
D38*
%TO.C,J5*%
X166025000Y-81400000D03*
X166025000Y-80750000D03*
X166025000Y-80100000D03*
X166025000Y-79450000D03*
X166025000Y-78800000D03*
D39*
X168700000Y-83400000D03*
D40*
X166250000Y-83300000D03*
D41*
X168700000Y-81300000D03*
X168700000Y-78900000D03*
D40*
X166250000Y-76900000D03*
D39*
X168700000Y-76800000D03*
%TD*%
D42*
%TO.C,U1*%
X115400000Y-87450000D03*
X115400000Y-87950000D03*
X115400000Y-88450000D03*
X115400000Y-88950000D03*
X115400000Y-89450000D03*
X115400000Y-89950000D03*
X115400000Y-90450000D03*
X115400000Y-90950000D03*
X115400000Y-91450000D03*
X115400000Y-91950000D03*
X115400000Y-92450000D03*
X115400000Y-92950000D03*
X115400000Y-93450000D03*
X115400000Y-93950000D03*
X115400000Y-94450000D03*
X115400000Y-94950000D03*
D43*
X117325000Y-96875000D03*
X117825000Y-96875000D03*
X118325000Y-96875000D03*
X118825000Y-96875000D03*
X119325000Y-96875000D03*
X119825000Y-96875000D03*
X120325000Y-96875000D03*
X120825000Y-96875000D03*
X121325000Y-96875000D03*
X121825000Y-96875000D03*
X122325000Y-96875000D03*
X122825000Y-96875000D03*
X123325000Y-96875000D03*
X123825000Y-96875000D03*
X124325000Y-96875000D03*
X124825000Y-96875000D03*
D42*
X126750000Y-94950000D03*
X126750000Y-94450000D03*
X126750000Y-93950000D03*
X126750000Y-93450000D03*
X126750000Y-92950000D03*
X126750000Y-92450000D03*
X126750000Y-91950000D03*
X126750000Y-91450000D03*
X126750000Y-90950000D03*
X126750000Y-90450000D03*
X126750000Y-89950000D03*
X126750000Y-89450000D03*
X126750000Y-88950000D03*
X126750000Y-88450000D03*
X126750000Y-87950000D03*
X126750000Y-87450000D03*
D43*
X124825000Y-85525000D03*
X124325000Y-85525000D03*
X123825000Y-85525000D03*
X123325000Y-85525000D03*
X122825000Y-85525000D03*
X122325000Y-85525000D03*
X121825000Y-85525000D03*
X121325000Y-85525000D03*
X120825000Y-85525000D03*
X120325000Y-85525000D03*
X119825000Y-85525000D03*
X119325000Y-85525000D03*
X118825000Y-85525000D03*
X118325000Y-85525000D03*
X117825000Y-85525000D03*
X117325000Y-85525000D03*
%TD*%
D11*
%TO.C,C8*%
X113580000Y-87450000D03*
X113580000Y-86490000D03*
%TD*%
D31*
%TO.C,C16*%
X138000000Y-115300000D03*
X140950000Y-115300000D03*
%TD*%
D44*
%TO.C,U3*%
X161762500Y-81375000D03*
X161762500Y-80425000D03*
X161762500Y-79475000D03*
X159487500Y-79475000D03*
X159487500Y-80425000D03*
X159487500Y-81375000D03*
%TD*%
D22*
%TO.C,C6*%
X117080000Y-83710000D03*
X118040000Y-83710000D03*
%TD*%
D45*
%TO.C,J2*%
X134820000Y-71150000D03*
X134820000Y-75050000D03*
X133550000Y-71150000D03*
X133550000Y-75050000D03*
X132280000Y-71150000D03*
X132280000Y-75050000D03*
X131010000Y-71150000D03*
X131010000Y-75050000D03*
X129740000Y-71150000D03*
X129740000Y-75050000D03*
%TD*%
D46*
%TO.C,C14*%
X146645000Y-100587500D03*
X146645000Y-97637500D03*
%TD*%
D14*
%TO.C,C12*%
X108410000Y-92390000D03*
X107450000Y-92390000D03*
%TD*%
D47*
%TO.C,SW1*%
X104500000Y-79710000D03*
D48*
X104500000Y-77170000D03*
X104500000Y-82250000D03*
%TD*%
D49*
%TO.C,C3*%
X115130000Y-83710000D03*
X113580000Y-83710000D03*
%TD*%
D50*
%TO.C,L2*%
X138000000Y-97575000D03*
X138000000Y-108825000D03*
%TD*%
M02*
