%TF.GenerationSoftware,KiCad,Pcbnew,10.0.6*%
%TF.CreationDate,2026-09-21T01:43:10+02:00*%
%TF.ProjectId,Phil's_Lab#11,5068696c-2773-45f4-9c61-622331312e6b,rev?*%
%TF.SameCoordinates,Original*%
%TF.FileFunction,Copper,L1,Top*%
%TF.FilePolarity,Positive*%
%FSLAX46Y46*%
G04 Gerber Fmt 4.6, Leading zero omitted, Abs format (unit mm)*
G04 Created by KiCad (PCBNEW 10.0.6) date 2026-09-21 01:43:10*
%MOMM*%
%LPD*%
G01*
G04 APERTURE LIST*
G04 Aperture macros list*
%AMRoundRect*
0 Rectangle with rounded corners*
0 $1 Rounding radius*
0 $2 $3 $4 $5 $6 $7 $8 $9 X,Y pos of 4 corners*
0 Add a 4 corners polygon primitive as box body*
4,1,4,$2,$3,$4,$5,$6,$7,$8,$9,$2,$3,0*
0 Add four circle primitives for the rounded corners*
1,1,$1+$1,$2,$3*
1,1,$1+$1,$4,$5*
1,1,$1+$1,$6,$7*
1,1,$1+$1,$8,$9*
0 Add four rect primitives between the rounded corners*
20,1,$1+$1,$2,$3,$4,$5,0*
20,1,$1+$1,$4,$5,$6,$7,0*
20,1,$1+$1,$6,$7,$8,$9,0*
20,1,$1+$1,$8,$9,$2,$3,0*%
G04 Aperture macros list end*
%TA.AperFunction,SMDPad,CuDef*%
%ADD10RoundRect,0.250000X0.325000X0.650000X-0.325000X0.650000X-0.325000X-0.650000X0.325000X-0.650000X0*%
%TD*%
%TA.AperFunction,SMDPad,CuDef*%
%ADD11RoundRect,0.140000X0.170000X-0.140000X0.170000X0.140000X-0.170000X0.140000X-0.170000X-0.140000X0*%
%TD*%
%TA.AperFunction,ComponentPad*%
%ADD12C,0.900000*%
%TD*%
%TA.AperFunction,ComponentPad*%
%ADD13C,8.600000*%
%TD*%
%TA.AperFunction,SMDPad,CuDef*%
%ADD14RoundRect,0.140000X0.140000X0.170000X-0.140000X0.170000X-0.140000X-0.170000X0.140000X-0.170000X0*%
%TD*%
%TA.AperFunction,SMDPad,CuDef*%
%ADD15RoundRect,0.218750X0.256250X-0.218750X0.256250X0.218750X-0.256250X0.218750X-0.256250X-0.218750X0*%
%TD*%
%TA.AperFunction,SMDPad,CuDef*%
%ADD16RoundRect,0.218750X-0.381250X0.218750X-0.381250X-0.218750X0.381250X-0.218750X0.381250X0.218750X0*%
%TD*%
%TA.AperFunction,SMDPad,CuDef*%
%ADD17RoundRect,0.150000X0.150000X-0.512500X0.150000X0.512500X-0.150000X0.512500X-0.150000X-0.512500X0*%
%TD*%
%TA.AperFunction,SMDPad,CuDef*%
%ADD18RoundRect,0.200000X0.275000X-0.200000X0.275000X0.200000X-0.275000X0.200000X-0.275000X-0.200000X0*%
%TD*%
%TA.AperFunction,SMDPad,CuDef*%
%ADD19RoundRect,0.135000X0.135000X0.185000X-0.135000X0.185000X-0.135000X-0.185000X0.135000X-0.185000X0*%
%TD*%
%TA.AperFunction,SMDPad,CuDef*%
%ADD20RoundRect,0.100000X0.100000X-0.130000X0.100000X0.130000X-0.100000X0.130000X-0.100000X-0.130000X0*%
%TD*%
%TA.AperFunction,SMDPad,CuDef*%
%ADD21RoundRect,0.147500X0.172500X-0.147500X0.172500X0.147500X-0.172500X0.147500X-0.172500X-0.147500X0*%
%TD*%
%TA.AperFunction,SMDPad,CuDef*%
%ADD22RoundRect,0.140000X-0.140000X-0.170000X0.140000X-0.170000X0.140000X0.170000X-0.140000X0.170000X0*%
%TD*%
%TA.AperFunction,ComponentPad*%
%ADD23RoundRect,0.200000X0.200000X0.450000X-0.200000X0.450000X-0.200000X-0.450000X0.200000X-0.450000X0*%
%TD*%
%TA.AperFunction,ComponentPad*%
%ADD24O,0.800000X1.300000*%
%TD*%
%TA.AperFunction,SMDPad,CuDef*%
%ADD25RoundRect,0.250000X-0.350000X0.450000X-0.350000X-0.450000X0.350000X-0.450000X0.350000X0.450000X0*%
%TD*%
%TA.AperFunction,ComponentPad*%
%ADD26RoundRect,0.200000X-0.200000X-0.450000X0.200000X-0.450000X0.200000X0.450000X-0.200000X0.450000X0*%
%TD*%
%TA.AperFunction,SMDPad,CuDef*%
%ADD27RoundRect,0.250000X0.375000X0.625000X-0.375000X0.625000X-0.375000X-0.625000X0.375000X-0.625000X0*%
%TD*%
%TA.AperFunction,SMDPad,CuDef*%
%ADD28RoundRect,0.150000X-0.150000X0.587500X-0.150000X-0.587500X0.150000X-0.587500X0.150000X0.587500X0*%
%TD*%
%TA.AperFunction,SMDPad,CuDef*%
%ADD29RoundRect,0.225000X-0.225000X-0.375000X0.225000X-0.375000X0.225000X0.375000X-0.225000X0.375000X0*%
%TD*%
%TA.AperFunction,SMDPad,CuDef*%
%ADD30RoundRect,0.225000X0.225000X0.375000X-0.225000X0.375000X-0.225000X-0.375000X0.225000X-0.375000X0*%
%TD*%
%TA.AperFunction,SMDPad,CuDef*%
%ADD31RoundRect,0.250000X-0.325000X-0.650000X0.325000X-0.650000X0.325000X0.650000X-0.325000X0.650000X0*%
%TD*%
%TA.AperFunction,SMDPad,CuDef*%
%ADD32RoundRect,0.200000X-0.275000X0.200000X-0.275000X-0.200000X0.275000X-0.200000X0.275000X0.200000X0*%
%TD*%
%TA.AperFunction,ComponentPad*%
%ADD33RoundRect,0.250001X0.949999X-0.949999X0.949999X0.949999X-0.949999X0.949999X-0.949999X-0.949999X0*%
%TD*%
%TA.AperFunction,ComponentPad*%
%ADD34C,2.400000*%
%TD*%
%TA.AperFunction,SMDPad,CuDef*%
%ADD35RoundRect,0.225000X0.250000X-0.225000X0.250000X0.225000X-0.250000X0.225000X-0.250000X-0.225000X0*%
%TD*%
%TA.AperFunction,SMDPad,CuDef*%
%ADD36RoundRect,0.135000X-0.135000X-0.185000X0.135000X-0.185000X0.135000X0.185000X-0.135000X0.185000X0*%
%TD*%
%TA.AperFunction,SMDPad,CuDef*%
%ADD37RoundRect,0.225000X-0.250000X0.225000X-0.250000X-0.225000X0.250000X-0.225000X0.250000X0.225000X0*%
%TD*%
%TA.AperFunction,SMDPad,CuDef*%
%ADD38RoundRect,0.100000X0.575000X-0.100000X0.575000X0.100000X-0.575000X0.100000X-0.575000X-0.100000X0*%
%TD*%
%TA.AperFunction,ComponentPad*%
%ADD39O,1.600000X0.900000*%
%TD*%
%TA.AperFunction,SMDPad,CuDef*%
%ADD40RoundRect,0.250000X0.450000X-0.550000X0.450000X0.550000X-0.450000X0.550000X-0.450000X-0.550000X0*%
%TD*%
%TA.AperFunction,SMDPad,CuDef*%
%ADD41RoundRect,0.250000X0.700000X-0.700000X0.700000X0.700000X-0.700000X0.700000X-0.700000X-0.700000X0*%
%TD*%
%TA.AperFunction,SMDPad,CuDef*%
%ADD42RoundRect,0.075000X-0.700000X-0.075000X0.700000X-0.075000X0.700000X0.075000X-0.700000X0.075000X0*%
%TD*%
%TA.AperFunction,SMDPad,CuDef*%
%ADD43RoundRect,0.075000X-0.075000X-0.700000X0.075000X-0.700000X0.075000X0.700000X-0.075000X0.700000X0*%
%TD*%
%TA.AperFunction,SMDPad,CuDef*%
%ADD44RoundRect,0.150000X0.512500X0.150000X-0.512500X0.150000X-0.512500X-0.150000X0.512500X-0.150000X0*%
%TD*%
%TA.AperFunction,SMDPad,CuDef*%
%ADD45R,0.740000X2.400000*%
%TD*%
%TA.AperFunction,SMDPad,CuDef*%
%ADD46RoundRect,0.250000X0.650000X-0.325000X0.650000X0.325000X-0.650000X0.325000X-0.650000X-0.325000X0*%
%TD*%
%TA.AperFunction,ComponentPad*%
%ADD47R,1.500000X1.500000*%
%TD*%
%TA.AperFunction,ComponentPad*%
%ADD48C,1.600000*%
%TD*%
%TA.AperFunction,SMDPad,CuDef*%
%ADD49RoundRect,0.225000X0.225000X0.250000X-0.225000X0.250000X-0.225000X-0.250000X0.225000X-0.250000X0*%
%TD*%
%TA.AperFunction,SMDPad,CuDef*%
%ADD50RoundRect,0.250000X-2.500000X1.375000X-2.500000X-1.375000X2.500000X-1.375000X2.500000X1.375000X0*%
%TD*%
%TA.AperFunction,ViaPad*%
%ADD51C,0.600000*%
%TD*%
%TA.AperFunction,Conductor*%
%ADD52C,0.750000*%
%TD*%
%TA.AperFunction,Conductor*%
%ADD53C,1.000000*%
%TD*%
%TA.AperFunction,Conductor*%
%ADD54C,0.500000*%
%TD*%
%TA.AperFunction,Conductor*%
%ADD55C,0.300000*%
%TD*%
%TA.AperFunction,Conductor*%
%ADD56C,0.400000*%
%TD*%
%TA.AperFunction,Conductor*%
%ADD57C,0.290576*%
%TD*%
%TA.AperFunction,Conductor*%
%ADD58C,0.200000*%
%TD*%
G04 APERTURE END LIST*
D10*
%TO.P,C13,1*%
%TO.N,BUCK_IN*%
X150182500Y-95200000D03*
%TO.P,C13,2*%
%TO.N,GND*%
X147232500Y-95200000D03*
%TD*%
D11*
%TO.P,C9,1*%
%TO.N,+3.3VA*%
X112460000Y-93700000D03*
%TO.P,C9,2*%
%TO.N,GND*%
X112460000Y-92740000D03*
%TD*%
D12*
%TO.P,H3,1,1_1*%
%TO.N,GND*%
X104550000Y-112000000D03*
X105494581Y-109719581D03*
X105494581Y-114280419D03*
X107775000Y-108775000D03*
D13*
X107775000Y-112000000D03*
D12*
X107775000Y-115225000D03*
X110055419Y-109719581D03*
X110055419Y-114280419D03*
X111000000Y-112000000D03*
%TD*%
D14*
%TO.P,C4,1*%
%TO.N,+3.3V*%
X118540000Y-98690000D03*
%TO.P,C4,2*%
%TO.N,GND*%
X117580000Y-98690000D03*
%TD*%
D15*
%TO.P,D4,1,K_1*%
%TO.N,Net-(D4-K)*%
X114340000Y-98455000D03*
%TO.P,D4,2,A_2*%
%TO.N,LED_STATUS*%
X114340000Y-96880000D03*
%TD*%
D16*
%TO.P,FB1,1*%
%TO.N,Net-(F1-Pad2)*%
X152932500Y-91575000D03*
%TO.P,FB1,2*%
%TO.N,BUCK_IN*%
X152932500Y-93700000D03*
%TD*%
D17*
%TO.P,U2,1,BST_1*%
%TO.N,BUCK_BST*%
X149232500Y-100150000D03*
%TO.P,U2,2,GND_2*%
%TO.N,GND*%
X150182500Y-100150000D03*
%TO.P,U2,3,FB_3*%
%TO.N,BUCK_FB*%
X151132500Y-100150000D03*
%TO.P,U2,4,EN_4*%
%TO.N,BUCK_EN*%
X151132500Y-97875000D03*
%TO.P,U2,5,IN_5*%
%TO.N,BUCK_IN*%
X150182500Y-97875000D03*
%TO.P,U2,6,SW_6*%
%TO.N,BUCK_SW*%
X149232500Y-97875000D03*
%TD*%
D18*
%TO.P,R8,1*%
%TO.N,+3.3V*%
X153300000Y-101775000D03*
%TO.P,R8,2*%
%TO.N,BUCK_FB*%
X153300000Y-100125000D03*
%TD*%
%TO.P,R7,1*%
%TO.N,Net-(R6-Pad2)*%
X157250000Y-101775000D03*
%TO.P,R7,2*%
%TO.N,GND*%
X157250000Y-100125000D03*
%TD*%
%TO.P,R4,1*%
%TO.N,BUCK_EN*%
X155350000Y-97875000D03*
%TO.P,R4,2*%
%TO.N,GND*%
X155350000Y-96225000D03*
%TD*%
D19*
%TO.P,R1,1*%
%TO.N,BOOT0*%
X108895000Y-77175000D03*
%TO.P,R1,2*%
%TO.N,Net-(SW1-B)*%
X107875000Y-77175000D03*
%TD*%
D20*
%TO.P,R12,1*%
%TO.N,Net-(D5-K)*%
X147500000Y-74265000D03*
%TO.P,R12,2*%
%TO.N,GND*%
X147500000Y-73625000D03*
%TD*%
%TO.P,R11,1*%
%TO.N,Net-(D4-K)*%
X112400000Y-98300000D03*
%TO.P,R11,2*%
%TO.N,GND*%
X112400000Y-97660000D03*
%TD*%
D21*
%TO.P,L1,1*%
%TO.N,+3.3V*%
X109930000Y-94665000D03*
%TO.P,L1,2*%
%TO.N,+3.3VA*%
X109930000Y-93695000D03*
%TD*%
D22*
%TO.P,C11,1*%
%TO.N,HSE_IN*%
X107450000Y-86610000D03*
%TO.P,C11,2*%
%TO.N,GND*%
X108410000Y-86610000D03*
%TD*%
D15*
%TO.P,D5,1,K_1*%
%TO.N,Net-(D5-K)*%
X149500000Y-74287500D03*
%TO.P,D5,2,A_2*%
%TO.N,+3.3V*%
X149500000Y-72712500D03*
%TD*%
D23*
%TO.P,J3,1,Pin_1_1*%
%TO.N,+3.3V*%
X122025000Y-65550000D03*
D24*
%TO.P,J3,2,Pin_2_2*%
%TO.N,I2C1_SCL*%
X120775000Y-65550000D03*
%TO.P,J3,3,Pin_3_3*%
%TO.N,I2C1_SDA*%
X119525000Y-65550000D03*
%TO.P,J3,4,Pin_4_4*%
%TO.N,GND*%
X118275000Y-65550000D03*
%TD*%
D25*
%TO.P,Y1,1,1_1*%
%TO.N,HSE_IN*%
X107450000Y-88400000D03*
%TO.P,Y1,2,G_2*%
%TO.N,GND*%
X107450000Y-90600000D03*
%TO.P,Y1,3,3_3*%
%TO.N,Net-(C12-Pad1)*%
X109150000Y-90600000D03*
%TO.P,Y1,4,G_4*%
%TO.N,GND*%
X109150000Y-88400000D03*
%TD*%
D26*
%TO.P,J4,1,Pin_1_1*%
%TO.N,+3.3V*%
X118250000Y-112500000D03*
D24*
%TO.P,J4,2,Pin_2_2*%
%TO.N,USART3_TX*%
X119500000Y-112500000D03*
%TO.P,J4,3,Pin_3_3*%
%TO.N,USART3_RX*%
X120750000Y-112500000D03*
%TO.P,J4,4,Pin_4_4*%
%TO.N,GND*%
X122000000Y-112500000D03*
%TD*%
D19*
%TO.P,R2,1*%
%TO.N,HSE_OUT*%
X111970000Y-90600000D03*
%TO.P,R2,2*%
%TO.N,Net-(C12-Pad1)*%
X110950000Y-90600000D03*
%TD*%
D27*
%TO.P,F1,1*%
%TO.N,Net-(D3-K)*%
X155732500Y-88912500D03*
%TO.P,F1,2*%
%TO.N,Net-(F1-Pad2)*%
X152932500Y-88912500D03*
%TD*%
D28*
%TO.P,Q1,1,G_1*%
%TO.N,GND*%
X157607500Y-91950000D03*
%TO.P,Q1,2,S_2*%
%TO.N,Net-(D3-K)*%
X155707500Y-91950000D03*
%TO.P,Q1,3,D_3*%
%TO.N,+12V*%
X156657500Y-93825000D03*
%TD*%
D12*
%TO.P,H4,1,1_1*%
%TO.N,GND*%
X104575000Y-66000000D03*
X105519581Y-63719581D03*
X105519581Y-68280419D03*
X107800000Y-62775000D03*
D13*
X107800000Y-66000000D03*
D12*
X107800000Y-69225000D03*
X110080419Y-63719581D03*
X110080419Y-68280419D03*
X111025000Y-66000000D03*
%TD*%
D11*
%TO.P,C10,1*%
%TO.N,+3.3VA*%
X113560000Y-93690000D03*
%TO.P,C10,2*%
%TO.N,GND*%
X113560000Y-92730000D03*
%TD*%
%TO.P,C7,1*%
%TO.N,+3.3V*%
X127130000Y-86310000D03*
%TO.P,C7,2*%
%TO.N,GND*%
X127130000Y-85350000D03*
%TD*%
D29*
%TO.P,D3,1,K_1*%
%TO.N,Net-(D3-K)*%
X158082500Y-88912500D03*
%TO.P,D3,2,A_2*%
%TO.N,+5V*%
X161382500Y-88912500D03*
%TD*%
D30*
%TO.P,D2,1,K_1*%
%TO.N,BUCK_SW*%
X138025000Y-93550000D03*
%TO.P,D2,2,A_2*%
%TO.N,GND*%
X134725000Y-93550000D03*
%TD*%
D31*
%TO.P,C15,1*%
%TO.N,+3.3V*%
X138000000Y-112625000D03*
%TO.P,C15,2*%
%TO.N,GND*%
X140950000Y-112625000D03*
%TD*%
D12*
%TO.P,H2,1,1_1*%
%TO.N,GND*%
X161375000Y-112000000D03*
X162319581Y-109719581D03*
X162319581Y-114280419D03*
X164600000Y-108775000D03*
D13*
X164600000Y-112000000D03*
D12*
X164600000Y-115225000D03*
X166880419Y-109719581D03*
X166880419Y-114280419D03*
X167825000Y-112000000D03*
%TD*%
D22*
%TO.P,C5,1*%
%TO.N,+3.3V*%
X125950000Y-97300000D03*
%TO.P,C5,2*%
%TO.N,GND*%
X126910000Y-97300000D03*
%TD*%
D19*
%TO.P,R10,1*%
%TO.N,+3.3V*%
X121800000Y-80260000D03*
%TO.P,R10,2*%
%TO.N,I2C1_SCL*%
X120780000Y-80260000D03*
%TD*%
D32*
%TO.P,R6,1*%
%TO.N,BUCK_FB*%
X155250000Y-100125000D03*
%TO.P,R6,2*%
%TO.N,Net-(R6-Pad2)*%
X155250000Y-101775000D03*
%TD*%
D33*
%TO.P,J1,1,Pin_1_1*%
%TO.N,+12V*%
X163700000Y-97375000D03*
D34*
%TO.P,J1,2,Pin_2_2*%
%TO.N,GND*%
X163700000Y-93875000D03*
%TD*%
D35*
%TO.P,C1,1*%
%TO.N,Net-(U1-VCAP_2)*%
X128800000Y-87475000D03*
%TO.P,C1,2*%
%TO.N,GND*%
X128800000Y-85925000D03*
%TD*%
D12*
%TO.P,H1,1,1_1*%
%TO.N,GND*%
X161375000Y-66000000D03*
X162319581Y-63719581D03*
X162319581Y-68280419D03*
X164600000Y-62775000D03*
D13*
X164600000Y-66000000D03*
D12*
X164600000Y-69225000D03*
X166880419Y-63719581D03*
X166880419Y-68280419D03*
X167825000Y-66000000D03*
%TD*%
D36*
%TO.P,R9,1*%
%TO.N,+3.3V*%
X118400000Y-80280000D03*
%TO.P,R9,2*%
%TO.N,I2C1_SDA*%
X119420000Y-80280000D03*
%TD*%
D37*
%TO.P,C2,1*%
%TO.N,Net-(U1-VCAP_1)*%
X124900000Y-98925000D03*
%TO.P,C2,2*%
%TO.N,GND*%
X124900000Y-100475000D03*
%TD*%
D32*
%TO.P,R5,1*%
%TO.N,BUCK_IN*%
X153300000Y-96225000D03*
%TO.P,R5,2*%
%TO.N,BUCK_EN*%
X153300000Y-97875000D03*
%TD*%
D38*
%TO.P,J5,1,VBUS_1*%
%TO.N,+5V*%
X166025000Y-81400000D03*
%TO.P,J5,2,D-_2*%
%TO.N,USB_CONN_D-*%
X166025000Y-80750000D03*
%TO.P,J5,3,D+_3*%
%TO.N,USB_CONN_D+*%
X166025000Y-80100000D03*
%TO.P,J5,4,ID_4*%
%TO.N,unconnected-(J5-ID-Pad4)*%
X166025000Y-79450000D03*
%TO.P,J5,5,GND_5*%
%TO.N,GND*%
X166025000Y-78800000D03*
D39*
%TO.P,J5,SH*%
%TO.N,N/C*%
X168700000Y-83400000D03*
D40*
X166250000Y-83300000D03*
D41*
X168700000Y-81300000D03*
X168700000Y-78900000D03*
D40*
X166250000Y-76900000D03*
D39*
X168700000Y-76800000D03*
%TD*%
D42*
%TO.P,U1,1,VBAT_1*%
%TO.N,+3.3V*%
X115400000Y-87450000D03*
%TO.P,U1,2,PC13_2*%
%TO.N,unconnected-(U1-PC13-Pad2)*%
X115400000Y-87950000D03*
%TO.P,U1,3,PC14_3*%
%TO.N,unconnected-(U1-PC14-Pad3)*%
X115400000Y-88450000D03*
%TO.P,U1,4,PC15_4*%
%TO.N,unconnected-(U1-PC15-Pad4)*%
X115400000Y-88950000D03*
%TO.P,U1,5,PH0_5*%
%TO.N,HSE_IN*%
X115400000Y-89450000D03*
%TO.P,U1,6,PH1_6*%
%TO.N,HSE_OUT*%
X115400000Y-89950000D03*
%TO.P,U1,7,NRST_7*%
%TO.N,NRST*%
X115400000Y-90450000D03*
%TO.P,U1,8,PC0_8*%
%TO.N,unconnected-(U1-PC0-Pad8)*%
X115400000Y-90950000D03*
%TO.P,U1,9,PC1_9*%
%TO.N,unconnected-(U1-PC1-Pad9)*%
X115400000Y-91450000D03*
%TO.P,U1,10,PC2_10*%
%TO.N,unconnected-(U1-PC2-Pad10)*%
X115400000Y-91950000D03*
%TO.P,U1,11,PC3_11*%
%TO.N,unconnected-(U1-PC3-Pad11)*%
X115400000Y-92450000D03*
%TO.P,U1,12,VSSA_12*%
%TO.N,GND*%
X115400000Y-92950000D03*
%TO.P,U1,13,VDDA_13*%
%TO.N,+3.3VA*%
X115400000Y-93450000D03*
%TO.P,U1,14,PA0_14*%
%TO.N,unconnected-(U1-PA0-Pad14)*%
X115400000Y-93950000D03*
%TO.P,U1,15,PA1_15*%
%TO.N,unconnected-(U1-PA1-Pad15)*%
X115400000Y-94450000D03*
%TO.P,U1,16,PA2_16*%
%TO.N,LED_STATUS*%
X115400000Y-94950000D03*
D43*
%TO.P,U1,17,PA3_17*%
%TO.N,unconnected-(U1-PA3-Pad17)*%
X117325000Y-96875000D03*
%TO.P,U1,18,VSS_18*%
%TO.N,GND*%
X117825000Y-96875000D03*
%TO.P,U1,19,VDD_19*%
%TO.N,+3.3V*%
X118325000Y-96875000D03*
%TO.P,U1,20,PA4_20*%
%TO.N,unconnected-(U1-PA4-Pad20)*%
X118825000Y-96875000D03*
%TO.P,U1,21,PA5_21*%
%TO.N,unconnected-(U1-PA5-Pad21)*%
X119325000Y-96875000D03*
%TO.P,U1,22,PA6_22*%
%TO.N,unconnected-(U1-PA6-Pad22)*%
X119825000Y-96875000D03*
%TO.P,U1,23,PA7_23*%
%TO.N,unconnected-(U1-PA7-Pad23)*%
X120325000Y-96875000D03*
%TO.P,U1,24,PC4_24*%
%TO.N,unconnected-(U1-PC4-Pad24)*%
X120825000Y-96875000D03*
%TO.P,U1,25,PC5_25*%
%TO.N,unconnected-(U1-PC5-Pad25)*%
X121325000Y-96875000D03*
%TO.P,U1,26,PB0_26*%
%TO.N,unconnected-(U1-PB0-Pad26)*%
X121825000Y-96875000D03*
%TO.P,U1,27,PB1_27*%
%TO.N,unconnected-(U1-PB1-Pad27)*%
X122325000Y-96875000D03*
%TO.P,U1,28,PB2_28*%
%TO.N,unconnected-(U1-PB2-Pad28)*%
X122825000Y-96875000D03*
%TO.P,U1,29,PB10_29*%
%TO.N,USART3_TX*%
X123325000Y-96875000D03*
%TO.P,U1,30,PB11_30*%
%TO.N,USART3_RX*%
X123825000Y-96875000D03*
%TO.P,U1,31,VCAP_1_31*%
%TO.N,Net-(U1-VCAP_1)*%
X124325000Y-96875000D03*
%TO.P,U1,32,VDD_32*%
%TO.N,+3.3V*%
X124825000Y-96875000D03*
D42*
%TO.P,U1,33,PB12_33*%
%TO.N,unconnected-(U1-PB12-Pad33)*%
X126750000Y-94950000D03*
%TO.P,U1,34,PB13_34*%
%TO.N,unconnected-(U1-PB13-Pad34)*%
X126750000Y-94450000D03*
%TO.P,U1,35,PB14_35*%
%TO.N,unconnected-(U1-PB14-Pad35)*%
X126750000Y-93950000D03*
%TO.P,U1,36,PB15_36*%
%TO.N,unconnected-(U1-PB15-Pad36)*%
X126750000Y-93450000D03*
%TO.P,U1,37,PC6_37*%
%TO.N,unconnected-(U1-PC6-Pad37)*%
X126750000Y-92950000D03*
%TO.P,U1,38,PC7_38*%
%TO.N,unconnected-(U1-PC7-Pad38)*%
X126750000Y-92450000D03*
%TO.P,U1,39,PC8_39*%
%TO.N,unconnected-(U1-PC8-Pad39)*%
X126750000Y-91950000D03*
%TO.P,U1,40,PC9_40*%
%TO.N,unconnected-(U1-PC9-Pad40)*%
X126750000Y-91450000D03*
%TO.P,U1,41,PA8_41*%
%TO.N,unconnected-(U1-PA8-Pad41)*%
X126750000Y-90950000D03*
%TO.P,U1,42,PA9_42*%
%TO.N,unconnected-(U1-PA9-Pad42)*%
X126750000Y-90450000D03*
%TO.P,U1,43,PA10_43*%
%TO.N,unconnected-(U1-PA10-Pad43)*%
X126750000Y-89950000D03*
%TO.P,U1,44,PA11_44*%
%TO.N,USB_D-*%
X126750000Y-89450000D03*
%TO.P,U1,45,PA12_45*%
%TO.N,USB_D+*%
X126750000Y-88950000D03*
%TO.P,U1,46,PA13_46*%
%TO.N,SWDIO*%
X126750000Y-88450000D03*
%TO.P,U1,47,VCAP_2_47*%
%TO.N,Net-(U1-VCAP_2)*%
X126750000Y-87950000D03*
%TO.P,U1,48,VDD_48*%
%TO.N,+3.3V*%
X126750000Y-87450000D03*
D43*
%TO.P,U1,49,PA14_49*%
%TO.N,SWCLK*%
X124825000Y-85525000D03*
%TO.P,U1,50,PA15_50*%
%TO.N,unconnected-(U1-PA15-Pad50)*%
X124325000Y-85525000D03*
%TO.P,U1,51,PC10_51*%
%TO.N,unconnected-(U1-PC10-Pad51)*%
X123825000Y-85525000D03*
%TO.P,U1,52,PC11_52*%
%TO.N,unconnected-(U1-PC11-Pad52)*%
X123325000Y-85525000D03*
%TO.P,U1,53,PC12_53*%
%TO.N,unconnected-(U1-PC12-Pad53)*%
X122825000Y-85525000D03*
%TO.P,U1,54,PD2_54*%
%TO.N,unconnected-(U1-PD2-Pad54)*%
X122325000Y-85525000D03*
%TO.P,U1,55,PB3_55*%
%TO.N,SWO*%
X121825000Y-85525000D03*
%TO.P,U1,56,PB4_56*%
%TO.N,unconnected-(U1-PB4-Pad56)*%
X121325000Y-85525000D03*
%TO.P,U1,57,PB5_57*%
%TO.N,unconnected-(U1-PB5-Pad57)*%
X120825000Y-85525000D03*
%TO.P,U1,58,PB6_58*%
%TO.N,I2C1_SCL*%
X120325000Y-85525000D03*
%TO.P,U1,59,PB7_59*%
%TO.N,I2C1_SDA*%
X119825000Y-85525000D03*
%TO.P,U1,60,BOOT0_60*%
%TO.N,BOOT0*%
X119325000Y-85525000D03*
%TO.P,U1,61,PB8_61*%
%TO.N,unconnected-(U1-PB8-Pad61)*%
X118825000Y-85525000D03*
%TO.P,U1,62,PB9_62*%
%TO.N,unconnected-(U1-PB9-Pad62)*%
X118325000Y-85525000D03*
%TO.P,U1,63,VSS_63*%
%TO.N,GND*%
X117825000Y-85525000D03*
%TO.P,U1,64,VDD_64*%
%TO.N,+3.3V*%
X117325000Y-85525000D03*
%TD*%
D11*
%TO.P,C8,1*%
%TO.N,+3.3V*%
X113580000Y-87450000D03*
%TO.P,C8,2*%
%TO.N,GND*%
X113580000Y-86490000D03*
%TD*%
D31*
%TO.P,C16,1*%
%TO.N,+3.3V*%
X138000000Y-115300000D03*
%TO.P,C16,2*%
%TO.N,GND*%
X140950000Y-115300000D03*
%TD*%
D44*
%TO.P,U3,1,I/O1_1*%
%TO.N,USB_CONN_D-*%
X161762500Y-81375000D03*
%TO.P,U3,2,GND_2*%
%TO.N,GND*%
X161762500Y-80425000D03*
%TO.P,U3,3,I/O2_3*%
%TO.N,USB_CONN_D+*%
X161762500Y-79475000D03*
%TO.P,U3,4,I/O2_4*%
%TO.N,USB_D+*%
X159487500Y-79475000D03*
%TO.P,U3,5,VBUS_5*%
%TO.N,+5V*%
X159487500Y-80425000D03*
%TO.P,U3,6,I/O1_6*%
%TO.N,USB_D-*%
X159487500Y-81375000D03*
%TD*%
D22*
%TO.P,C6,1*%
%TO.N,+3.3V*%
X117080000Y-83710000D03*
%TO.P,C6,2*%
%TO.N,GND*%
X118040000Y-83710000D03*
%TD*%
D45*
%TO.P,J2,1,Pin_1_1*%
%TO.N,+3.3V*%
X134820000Y-71150000D03*
%TO.P,J2,2,Pin_2_2*%
%TO.N,SWDIO*%
X134820000Y-75050000D03*
%TO.P,J2,3,Pin_3_3*%
%TO.N,GND*%
X133550000Y-71150000D03*
%TO.P,J2,4,Pin_4_4*%
%TO.N,SWCLK*%
X133550000Y-75050000D03*
%TO.P,J2,5,Pin_5_5*%
%TO.N,GND*%
X132280000Y-71150000D03*
%TO.P,J2,6,Pin_6_6*%
%TO.N,SWO*%
X132280000Y-75050000D03*
%TO.P,J2,7,Pin_7_7*%
%TO.N,unconnected-(J2-Pin_7-Pad7)*%
X131010000Y-71150000D03*
%TO.P,J2,8,Pin_8_8*%
%TO.N,unconnected-(J2-Pin_8-Pad8)*%
X131010000Y-75050000D03*
%TO.P,J2,9,Pin_9_9*%
%TO.N,GND*%
X129740000Y-71150000D03*
%TO.P,J2,10,Pin_10_10*%
%TO.N,NRST*%
X129740000Y-75050000D03*
%TD*%
D46*
%TO.P,C14,1*%
%TO.N,BUCK_BST*%
X146645000Y-100587500D03*
%TO.P,C14,2*%
%TO.N,BUCK_SW*%
X146645000Y-97637500D03*
%TD*%
D14*
%TO.P,C12,1*%
%TO.N,Net-(C12-Pad1)*%
X108410000Y-92390000D03*
%TO.P,C12,2*%
%TO.N,GND*%
X107450000Y-92390000D03*
%TD*%
D47*
%TO.P,SW1,1,A_1*%
%TO.N,+3.3V*%
X104500000Y-79710000D03*
D48*
%TO.P,SW1,2,B_2*%
%TO.N,Net-(SW1-B)*%
X104500000Y-77170000D03*
%TO.P,SW1,3,C_3*%
%TO.N,GND*%
X104500000Y-82250000D03*
%TD*%
D49*
%TO.P,C3,1*%
%TO.N,+3.3V*%
X115130000Y-83710000D03*
%TO.P,C3,2*%
%TO.N,GND*%
X113580000Y-83710000D03*
%TD*%
D50*
%TO.P,L2,1*%
%TO.N,BUCK_SW*%
X138000000Y-97575000D03*
%TO.P,L2,2*%
%TO.N,+3.3V*%
X138000000Y-108825000D03*
%TD*%
D51*
%TO.N,GND*%
X134150000Y-94320000D03*
X157610000Y-90910000D03*
X118040000Y-83100000D03*
X127490000Y-97300000D03*
X160620000Y-78330000D03*
X112970000Y-86490000D03*
X141830000Y-112630000D03*
X127620000Y-84910000D03*
X157600000Y-92980000D03*
X128800000Y-85170000D03*
X158030000Y-100120000D03*
X157250000Y-99420000D03*
X147240000Y-94000000D03*
X164220000Y-78010000D03*
X129740000Y-69620000D03*
X154570000Y-96230000D03*
X163410000Y-78800000D03*
X112830000Y-83710000D03*
X147240000Y-96400000D03*
X164220000Y-78800000D03*
X112470000Y-92150000D03*
X106070000Y-90600000D03*
X107450000Y-93310000D03*
X112400000Y-97130000D03*
X156130000Y-96230000D03*
X113560000Y-92140000D03*
X108410000Y-85690000D03*
X150180000Y-99190000D03*
X140070000Y-112620000D03*
X163410000Y-78010000D03*
X132280000Y-69630000D03*
X117000000Y-98690000D03*
X141830000Y-115310000D03*
X124900000Y-101230000D03*
X133560000Y-69630000D03*
X134150000Y-92780000D03*
X110540000Y-88400000D03*
X150180000Y-101110000D03*
X140080000Y-115310000D03*
X147500000Y-73090000D03*
%TO.N,+3.3V*%
X134950000Y-107570000D03*
X110550000Y-94680000D03*
X115130000Y-82930000D03*
X112960000Y-87450000D03*
X134950000Y-109620000D03*
X117825000Y-80275000D03*
X141050000Y-109630000D03*
X153300000Y-102480000D03*
X125950000Y-97910000D03*
X141050000Y-107580000D03*
X119120000Y-98690000D03*
X122375000Y-80260000D03*
X152520000Y-101780000D03*
X137120000Y-115300000D03*
X149500000Y-71970000D03*
X138880000Y-112630000D03*
X127740000Y-86310000D03*
X137120000Y-112630000D03*
X134950000Y-108600000D03*
X109310000Y-94680000D03*
X134820000Y-69610000D03*
X141050000Y-108610000D03*
X138880000Y-115300000D03*
%TO.N,NRST*%
X123575000Y-84055000D03*
X120635000Y-86995000D03*
%TD*%
%TO.N,BUCK_IN*%
D52*
X152457500Y-96225000D02*
X151432500Y-95200000D01*
X150182500Y-95200000D02*
X150182500Y-97875000D01*
X153300000Y-96225000D02*
X152457500Y-96225000D01*
X151432500Y-95200000D02*
X152932500Y-93700000D01*
X150182500Y-95200000D02*
X151432500Y-95200000D01*
%TO.N,GND*%
D53*
X141825000Y-112625000D02*
X141830000Y-112630000D01*
D54*
X127180000Y-85350000D02*
X127620000Y-84910000D01*
D53*
X140090000Y-115300000D02*
X140080000Y-115310000D01*
D54*
X112400000Y-97130000D02*
X112400000Y-97620000D01*
D53*
X140070000Y-112620000D02*
X140945000Y-112620000D01*
X134150000Y-92780000D02*
X134150000Y-92975000D01*
X147232500Y-95200000D02*
X147232500Y-96362500D01*
D55*
X107450000Y-92390000D02*
X107450000Y-90600000D01*
D53*
X155350000Y-96225000D02*
X154575000Y-96225000D01*
X157607500Y-90912500D02*
X157610000Y-90910000D01*
X154575000Y-96225000D02*
X154570000Y-96230000D01*
D55*
X118040000Y-83710000D02*
X118040000Y-83100000D01*
D53*
X157607500Y-91950000D02*
X157607500Y-90912500D01*
X140945000Y-112620000D02*
X140950000Y-112625000D01*
D55*
X113780000Y-92950000D02*
X113560000Y-92730000D01*
X113560000Y-92730000D02*
X112470000Y-92730000D01*
X115400000Y-92950000D02*
X113780000Y-92950000D01*
D53*
X147232500Y-95200000D02*
X147232500Y-94007500D01*
X140950000Y-115300000D02*
X141820000Y-115300000D01*
D56*
X161762500Y-80425000D02*
X161115000Y-80425000D01*
D54*
X128800000Y-85170000D02*
X128800000Y-85925000D01*
D52*
X164220000Y-78010000D02*
X163410000Y-78010000D01*
D55*
X117825000Y-96875000D02*
X117825000Y-98445000D01*
D52*
X163430000Y-78010000D02*
X164220000Y-78800000D01*
D54*
X112470000Y-92730000D02*
X112460000Y-92740000D01*
D55*
X117580000Y-98690000D02*
X117000000Y-98690000D01*
D53*
X134150000Y-92975000D02*
X134725000Y-93550000D01*
D52*
X164200000Y-78010000D02*
X163410000Y-78800000D01*
D53*
X157250000Y-99420000D02*
X157250000Y-100125000D01*
X134150000Y-94320000D02*
X134150000Y-94125000D01*
D56*
X160620000Y-79930000D02*
X160620000Y-78330000D01*
D53*
X157607500Y-92930000D02*
X157657500Y-92980000D01*
D55*
X133550000Y-71150000D02*
X133550000Y-69640000D01*
X108410000Y-86610000D02*
X108410000Y-85690000D01*
D53*
X156125000Y-96225000D02*
X156130000Y-96230000D01*
D54*
X147500000Y-73090000D02*
X147500000Y-73585000D01*
D53*
X140950000Y-115300000D02*
X140090000Y-115300000D01*
D55*
X129740000Y-71150000D02*
X129740000Y-69620000D01*
D54*
X113560000Y-92140000D02*
X113560000Y-92730000D01*
X113580000Y-83710000D02*
X112830000Y-83710000D01*
D53*
X147232500Y-94007500D02*
X147240000Y-94000000D01*
D52*
X150182500Y-100150000D02*
X150182500Y-99192500D01*
X164220000Y-78010000D02*
X164200000Y-78010000D01*
D54*
X126910000Y-97300000D02*
X127490000Y-97300000D01*
D55*
X110540000Y-88400000D02*
X109150000Y-88400000D01*
D53*
X157607500Y-91950000D02*
X157607500Y-92930000D01*
D52*
X150182500Y-101107500D02*
X150180000Y-101110000D01*
D54*
X113580000Y-86490000D02*
X112970000Y-86490000D01*
D53*
X141820000Y-115300000D02*
X141830000Y-115310000D01*
D52*
X163410000Y-78800000D02*
X164220000Y-78800000D01*
D53*
X157250000Y-100125000D02*
X158025000Y-100125000D01*
D55*
X117825000Y-85525000D02*
X117825000Y-83925000D01*
D54*
X112470000Y-92150000D02*
X112470000Y-92730000D01*
D53*
X158025000Y-100125000D02*
X158030000Y-100120000D01*
D55*
X117825000Y-98445000D02*
X117580000Y-98690000D01*
X132280000Y-71150000D02*
X132280000Y-69630000D01*
D53*
X134150000Y-94125000D02*
X134725000Y-93550000D01*
D52*
X163410000Y-78010000D02*
X163410000Y-78800000D01*
D55*
X107450000Y-93310000D02*
X107450000Y-92390000D01*
X133550000Y-69640000D02*
X133560000Y-69630000D01*
D52*
X163410000Y-78010000D02*
X163430000Y-78010000D01*
X150182500Y-100150000D02*
X150182500Y-101107500D01*
X164220000Y-78800000D02*
X164220000Y-78010000D01*
D53*
X134150000Y-92780000D02*
X134150000Y-94320000D01*
D54*
X127130000Y-85350000D02*
X127180000Y-85350000D01*
D53*
X155350000Y-96225000D02*
X156125000Y-96225000D01*
D55*
X106070000Y-90600000D02*
X107450000Y-90600000D01*
D56*
X161115000Y-80425000D02*
X160620000Y-79930000D01*
D54*
X124900000Y-100475000D02*
X124900000Y-101230000D01*
D52*
X150182500Y-99192500D02*
X150180000Y-99190000D01*
D55*
X117825000Y-83925000D02*
X118040000Y-83710000D01*
D53*
X147232500Y-96362500D02*
X147240000Y-96362500D01*
D54*
X164220000Y-78800000D02*
X166025000Y-78800000D01*
D53*
X140950000Y-112625000D02*
X141825000Y-112625000D01*
%TO.N,+3.3VA*%
D54*
X109930000Y-93695000D02*
X112455000Y-93695000D01*
D55*
X112470000Y-93690000D02*
X112460000Y-93700000D01*
D54*
X113550000Y-93700000D02*
X113560000Y-93690000D01*
X112460000Y-93700000D02*
X113550000Y-93700000D01*
X112455000Y-93695000D02*
X112460000Y-93700000D01*
D55*
X113800000Y-93450000D02*
X113560000Y-93690000D01*
X115400000Y-93450000D02*
X113800000Y-93450000D01*
%TO.N,+3.3V*%
D53*
X138000000Y-112625000D02*
X137125000Y-112625000D01*
D55*
X118325000Y-98475000D02*
X118540000Y-98690000D01*
D54*
X118400000Y-80280000D02*
X117830000Y-80280000D01*
D53*
X152525000Y-101775000D02*
X152520000Y-101780000D01*
D55*
X118540000Y-98690000D02*
X119120000Y-98690000D01*
D54*
X109930000Y-94665000D02*
X110535000Y-94665000D01*
D55*
X124825000Y-96875000D02*
X125525000Y-96875000D01*
D53*
X137125000Y-112625000D02*
X137120000Y-112630000D01*
D54*
X149500000Y-72712500D02*
X149500000Y-71970000D01*
D55*
X126750000Y-86690000D02*
X127130000Y-86310000D01*
D53*
X138000000Y-112625000D02*
X138000000Y-115300000D01*
X153300000Y-101775000D02*
X153300000Y-102480000D01*
D54*
X115130000Y-83710000D02*
X117080000Y-83710000D01*
X115130000Y-83710000D02*
X115130000Y-82930000D01*
D55*
X125950000Y-97300000D02*
X125950000Y-97910000D01*
D53*
X138000000Y-112625000D02*
X138875000Y-112625000D01*
D54*
X109930000Y-94665000D02*
X109325000Y-94665000D01*
D55*
X118325000Y-96875000D02*
X118325000Y-98475000D01*
X115400000Y-87450000D02*
X113580000Y-87450000D01*
D54*
X121800000Y-80260000D02*
X122375000Y-80260000D01*
D55*
X127130000Y-86310000D02*
X127740000Y-86310000D01*
D53*
X138000000Y-115300000D02*
X137120000Y-115300000D01*
X138000000Y-115300000D02*
X138880000Y-115300000D01*
D55*
X117325000Y-85525000D02*
X117325000Y-83955000D01*
X125525000Y-96875000D02*
X125950000Y-97300000D01*
D53*
X138875000Y-112625000D02*
X138880000Y-112630000D01*
D54*
X109325000Y-94665000D02*
X109310000Y-94680000D01*
X110535000Y-94665000D02*
X110550000Y-94680000D01*
D55*
X126750000Y-87450000D02*
X126750000Y-86690000D01*
D53*
X138000000Y-108825000D02*
X138000000Y-112625000D01*
D54*
X117830000Y-80280000D02*
X117825000Y-80275000D01*
D55*
X117325000Y-83955000D02*
X117080000Y-83710000D01*
D53*
X153300000Y-101775000D02*
X152525000Y-101775000D01*
D55*
X113580000Y-87450000D02*
X112960000Y-87450000D01*
X134820000Y-69610000D02*
X134820000Y-71150000D01*
%TO.N,Net-(D4-K)*%
D52*
X114340000Y-98455000D02*
X114330000Y-98465000D01*
X114330000Y-98465000D02*
X112400000Y-98465000D01*
%TO.N,LED_STATUS*%
D55*
X114340000Y-96880000D02*
X114340000Y-96010000D01*
X114340000Y-96010000D02*
X115400000Y-94950000D01*
%TO.N,Net-(F1-Pad2)*%
D53*
X152932500Y-88912500D02*
X152932500Y-91575000D01*
%TO.N,BUCK_BST*%
D52*
X147082500Y-100150000D02*
X146645000Y-100587500D01*
X149232500Y-100150000D02*
X147082500Y-100150000D01*
%TO.N,BUCK_FB*%
X153300000Y-100125000D02*
X155250000Y-100125000D01*
X151132500Y-100150000D02*
X153275000Y-100150000D01*
X153275000Y-100150000D02*
X153300000Y-100125000D01*
%TO.N,BUCK_EN*%
X153300000Y-97875000D02*
X155350000Y-97875000D01*
X153300000Y-97875000D02*
X151132500Y-97875000D01*
%TO.N,BUCK_SW*%
X146645000Y-97637500D02*
X146637500Y-97637500D01*
X149232500Y-97875000D02*
X146882500Y-97875000D01*
D53*
X138000000Y-97575000D02*
X138000000Y-93575000D01*
X138000000Y-97575000D02*
X146582500Y-97575000D01*
X138000000Y-93575000D02*
X138025000Y-93550000D01*
D52*
X146882500Y-97875000D02*
X146645000Y-97637500D01*
D53*
X146582500Y-97575000D02*
X146645000Y-97637500D01*
%TO.N,Net-(R6-Pad2)*%
D52*
X157250000Y-101775000D02*
X155250000Y-101775000D01*
%TO.N,BOOT0*%
D55*
X110375000Y-85325000D02*
X108895000Y-83845000D01*
X119325000Y-85525000D02*
X119325000Y-86403120D01*
X116375000Y-86650000D02*
X115050000Y-85325000D01*
X119078120Y-86650000D02*
X116375000Y-86650000D01*
X108895000Y-83845000D02*
X108895000Y-77175000D01*
X115050000Y-85325000D02*
X110375000Y-85325000D01*
X119325000Y-86403120D02*
X119078120Y-86650000D01*
%TO.N,Net-(SW1-B)*%
X104505000Y-77175000D02*
X104500000Y-77170000D01*
X107875000Y-77175000D02*
X104505000Y-77175000D01*
%TO.N,Net-(D5-K)*%
D54*
X149482500Y-74305000D02*
X147500000Y-74305000D01*
X149500000Y-74287500D02*
X149482500Y-74305000D01*
%TO.N,HSE_IN*%
D55*
X107450000Y-88400000D02*
X107450000Y-86610000D01*
X107450000Y-88400000D02*
X107450000Y-88360000D01*
X107450000Y-88360000D02*
X107870000Y-87940000D01*
X107450000Y-88400000D02*
X108500000Y-89450000D01*
X108500000Y-89450000D02*
X115400000Y-89450000D01*
%TO.N,I2C1_SCL*%
X120780000Y-80120000D02*
X120775000Y-80115000D01*
X120780000Y-80260000D02*
X120780000Y-80120000D01*
X120325000Y-85525000D02*
X120325000Y-84375000D01*
X120780000Y-83920000D02*
X120780000Y-80260000D01*
X120775000Y-80115000D02*
X120775000Y-65550000D01*
X120325000Y-84375000D02*
X120780000Y-83920000D01*
%TO.N,I2C1_SDA*%
X119420000Y-83920000D02*
X119420000Y-80280000D01*
X119420000Y-65655000D02*
X119525000Y-65550000D01*
X119420000Y-80280000D02*
X119420000Y-65655000D01*
X119825000Y-85525000D02*
X119825000Y-84325000D01*
X119825000Y-84325000D02*
X119420000Y-83920000D01*
%TO.N,Net-(C12-Pad1)*%
X108410000Y-92390000D02*
X108710000Y-92390000D01*
X110950000Y-90600000D02*
X109150000Y-90600000D01*
X108710000Y-92390000D02*
X109150000Y-91950000D01*
X109150000Y-91950000D02*
X109150000Y-90600000D01*
%TO.N,USART3_TX*%
X123325000Y-96875000D02*
X123325000Y-97775000D01*
X119500000Y-101600000D02*
X119500000Y-112500000D01*
X123325000Y-97775000D02*
X119500000Y-101600000D01*
%TO.N,USART3_RX*%
X123825000Y-96875000D02*
X123825000Y-99175000D01*
X123825000Y-99175000D02*
X120750000Y-102250000D01*
X120750000Y-102250000D02*
X120750000Y-112500000D01*
%TO.N,HSE_OUT*%
X111970000Y-90430000D02*
X112450000Y-89950000D01*
X112450000Y-89950000D02*
X115400000Y-89950000D01*
X111970000Y-90600000D02*
X111970000Y-90430000D01*
%TO.N,Net-(D3-K)*%
D53*
X155732500Y-88912500D02*
X158082500Y-88912500D01*
X155732500Y-88912500D02*
X155732500Y-91925000D01*
X155732500Y-91925000D02*
X155707500Y-91950000D01*
%TO.N,+12V*%
X160232500Y-97400000D02*
X163675000Y-97400000D01*
X156657500Y-93825000D02*
X160232500Y-97400000D01*
X163675000Y-97400000D02*
X163700000Y-97375000D01*
%TO.N,+5V*%
D54*
X166025000Y-81400000D02*
X161382500Y-86042500D01*
X160650000Y-82800000D02*
X160650000Y-81022316D01*
X162870000Y-82950000D02*
X160800000Y-82950000D01*
X164420000Y-81400000D02*
X162870000Y-82950000D01*
X160650000Y-81022316D02*
X160052684Y-80425000D01*
X160052684Y-80425000D02*
X159487500Y-80425000D01*
X166025000Y-81400000D02*
X164420000Y-81400000D01*
X160800000Y-82950000D02*
X160650000Y-82800000D01*
X161400000Y-88895000D02*
X161382500Y-88912500D01*
X161382500Y-86042500D02*
X161382500Y-88912500D01*
%TO.N,Net-(U1-VCAP_2)*%
D55*
X126750000Y-87950000D02*
X128325000Y-87950000D01*
X128325000Y-87950000D02*
X128800000Y-87475000D01*
%TO.N,Net-(U1-VCAP_1)*%
X124325000Y-98350000D02*
X124900000Y-98925000D01*
X124325000Y-96875000D02*
X124325000Y-98350000D01*
%TO.N,USB_CONN_D-*%
D57*
X162756251Y-81375000D02*
X163459363Y-80671888D01*
X164934387Y-80671888D02*
X165012499Y-80750000D01*
X161762500Y-81375000D02*
X162756251Y-81375000D01*
X165012499Y-80750000D02*
X166025000Y-80750000D01*
X163459363Y-80671888D02*
X164934387Y-80671888D01*
%TO.N,USB_CONN_D+*%
X162756251Y-79475000D02*
X163459363Y-80178112D01*
X164934387Y-80178112D02*
X165012499Y-80100000D01*
X163459363Y-80178112D02*
X164934387Y-80178112D01*
X165012499Y-80100000D02*
X166025000Y-80100000D01*
X161762500Y-79475000D02*
X162756251Y-79475000D01*
%TO.N,NRST*%
D58*
X129730000Y-75060000D02*
X129740000Y-75050000D01*
D55*
X129740000Y-77890000D02*
X129740000Y-75050000D01*
X129750000Y-75060000D02*
X129740000Y-75050000D01*
X123575000Y-84055000D02*
X129740000Y-77890000D01*
X117180000Y-90450000D02*
X115400000Y-90450000D01*
X120635000Y-86995000D02*
X117180000Y-90450000D01*
%TO.N,USB_D-*%
D57*
X126750000Y-89450000D02*
X127912501Y-89450000D01*
X130152266Y-89446888D02*
X138927266Y-80671888D01*
X127912501Y-89450000D02*
X127915613Y-89446888D01*
X138927266Y-80671888D02*
X157790637Y-80671888D01*
X158493749Y-81375000D02*
X159487500Y-81375000D01*
X157790637Y-80671888D02*
X158493749Y-81375000D01*
X127915613Y-89446888D02*
X130152266Y-89446888D01*
%TO.N,USB_D+*%
X129947734Y-88953112D02*
X138722734Y-80178112D01*
X127915613Y-88953112D02*
X129947734Y-88953112D01*
X158493749Y-79475000D02*
X159487500Y-79475000D01*
X138722734Y-80178112D02*
X157790637Y-80178112D01*
X127912501Y-88950000D02*
X127915613Y-88953112D01*
X157790637Y-80178112D02*
X158493749Y-79475000D01*
X126750000Y-88950000D02*
X127912501Y-88950000D01*
%TO.N,SWDIO*%
D55*
X134820000Y-78210000D02*
X134820000Y-75050000D01*
X125625000Y-88203120D02*
X125625000Y-85125000D01*
X128840000Y-84190000D02*
X134820000Y-78210000D01*
X134980000Y-76040000D02*
X134960000Y-76020000D01*
X125625000Y-85125000D02*
X126560000Y-84190000D01*
X126750000Y-88450000D02*
X125871880Y-88450000D01*
X126560000Y-84190000D02*
X128840000Y-84190000D01*
X125871880Y-88450000D02*
X125625000Y-88203120D01*
%TO.N,SWCLK*%
X133550000Y-76070000D02*
X133550000Y-75050000D01*
X124825000Y-85525000D02*
X124825000Y-84795000D01*
X124825000Y-84795000D02*
X133550000Y-76070000D01*
%TO.N,SWO*%
X132280000Y-75880000D02*
X132280000Y-75050000D01*
X121825000Y-83415000D02*
X128060000Y-77180000D01*
X132280000Y-73860000D02*
X132280000Y-75050000D01*
X131410000Y-72990000D02*
X132280000Y-73860000D01*
X121825000Y-85525000D02*
X121825000Y-83415000D01*
X128060000Y-77180000D02*
X128060000Y-73990000D01*
X128060000Y-73990000D02*
X129060000Y-72990000D01*
X129060000Y-72990000D02*
X131410000Y-72990000D01*
%TD*%
%TA.AperFunction,Conductor*%
%TO.N,+3.3V*%
G36*
X141318039Y-107194685D02*
G01*
X141363794Y-107247489D01*
X141375000Y-107299000D01*
X141375000Y-109826000D01*
X141355315Y-109893039D01*
X141302511Y-109938794D01*
X141251000Y-109950000D01*
X140775000Y-109950000D01*
X140775000Y-110351000D01*
X140755315Y-110418039D01*
X140702511Y-110463794D01*
X140651000Y-110475000D01*
X135349000Y-110475000D01*
X135281961Y-110455315D01*
X135236206Y-110402511D01*
X135225000Y-110351000D01*
X135225000Y-109925000D01*
X134749000Y-109925000D01*
X134681961Y-109905315D01*
X134636206Y-109852511D01*
X134625000Y-109801000D01*
X134625000Y-107299000D01*
X134644685Y-107231961D01*
X134697489Y-107186206D01*
X134749000Y-107175000D01*
X141251000Y-107175000D01*
X141318039Y-107194685D01*
G37*
%TD.AperFunction*%
%TD*%
M02*
